{"glyphs":{"0":{"ha":604,"x_min":0,"x_max":0,"o":"m 303 -39 b 556 467 418 -39 556 47 b 303 972 556 685 529 972 b 49 467 49 972 49 593 b 303 -39 49 132 133 -39 z m 303 869 b 447 467 338 869 447 867 b 303 64 447 217 394 64 b 157 467 174 64 157 317 b 303 869 157 733 204 869 z "},"1":{"ha":363,"x_min":0,"x_max":0,"o":"m 171 15 b 238 -25 171 -6 206 -25 b 276 7 258 -25 276 -17 l 276 918 b 222 972 276 946 250 972 b 181 950 206 972 190 964 b 26 764 181 950 58 775 b 11 750 18 761 11 760 b 69 686 11 725 36 686 b 171 782 86 686 115 706 z "},"2":{"ha":553,"x_min":0,"x_max":0,"o":"m 246 90 b 508 683 346 211 508 444 b 281 972 508 824 439 972 b 39 688 163 972 39 883 b 156 458 39 586 86 458 b 224 519 192 458 221 496 b 219 532 225 528 222 532 b 206 525 215 532 213 525 b 146 688 185 525 146 596 b 278 869 146 821 214 869 b 400 688 319 869 400 836 b 96 78 400 383 99 81 b 79 38 85 68 79 53 b 131 -14 79 7 104 -14 l 443 -14 b 497 69 481 -14 497 26 b 482 110 497 88 494 110 b 447 90 469 110 469 90 z "},"3":{"ha":538,"x_min":0,"x_max":0,"o":"m 32 696 b 146 481 32 600 78 481 b 214 546 185 481 214 522 b 210 554 214 551 213 554 b 196 547 206 554 203 547 b 138 694 175 547 138 611 b 263 869 138 814 199 869 b 388 675 331 869 388 811 b 232 399 388 503 317 426 b 221 400 228 399 224 400 b 193 365 197 400 193 379 b 232 304 193 328 210 310 b 357 156 267 294 357 261 b 276 64 357 99 317 64 b 185 158 204 64 185 147 b 188 174 185 167 188 168 b 157 182 188 179 178 182 b 83 147 126 182 83 171 b 271 -39 83 75 153 -39 b 464 161 382 -39 464 46 b 342 354 464 268 393 324 b 493 671 421 408 493 499 b 268 972 493 814 431 972 b 32 696 151 972 32 886 z "},"4":{"ha":538,"x_min":0,"x_max":0,"o":"m 478 261 b 532 343 517 261 532 300 b 517 383 532 361 529 383 b 482 364 504 383 504 364 l 446 364 l 446 911 b 371 972 446 944 417 972 b 326 957 351 972 326 967 b 340 904 326 947 340 944 l 340 365 l 313 365 b 146 363 260 365 196 364 b 225 840 204 510 225 725 b 149 922 225 908 179 922 b 111 906 125 922 111 917 b 118 854 111 903 118 875 b 38 356 118 764 113 547 b 17 321 28 346 17 339 b 79 260 17 299 47 260 b 290 264 126 260 226 264 l 340 264 l 340 15 b 407 -25 340 -6 375 -25 b 446 7 428 -25 446 -17 l 446 261 z "},"5":{"ha":508,"x_min":0,"x_max":0,"o":"m 64 604 b 131 550 58 571 114 550 b 239 599 165 550 182 599 b 353 356 315 599 353 507 b 240 64 353 164 313 64 b 144 222 153 64 144 192 b 150 247 144 239 150 239 b 82 282 150 260 117 282 b 38 218 47 282 38 258 b 239 -39 38 147 81 -39 b 461 356 349 -39 461 68 b 261 699 461 638 339 699 b 178 672 225 699 196 686 l 193 847 l 375 847 b 428 931 413 847 428 888 b 414 965 428 943 425 965 b 379 951 403 965 401 951 b 260 950 379 951 338 950 b 119 950 224 950 156 950 b 104 936 114 950 106 947 z "},"6":{"ha":554,"x_min":0,"x_max":0,"o":"m 294 871 b 376 781 342 871 376 825 b 399 769 376 772 386 769 b 476 814 429 769 476 792 b 294 972 476 871 397 972 b 53 449 53 972 53 578 b 292 -39 53 325 61 -39 b 510 343 328 -39 510 -19 b 300 676 510 511 449 676 b 167 611 264 676 218 668 b 294 871 183 804 233 871 z m 292 576 b 404 343 368 576 404 467 b 292 63 404 125 339 63 b 163 392 233 63 169 132 b 292 576 178 517 226 576 z "},"7":{"ha":443,"x_min":0,"x_max":0,"o":"m 239 7 b 426 876 239 449 336 663 b 439 921 433 893 439 908 b 406 958 439 946 422 958 b 238 947 382 958 332 947 b 60 951 142 947 90 950 b 49 954 54 953 53 954 b 25 903 33 954 25 929 b 76 840 25 874 29 840 b 313 850 136 840 225 846 b 128 50 229 676 128 364 b 199 -25 128 -11 167 -25 b 239 7 219 -25 239 -17 z "},"8":{"ha":528,"x_min":0,"x_max":0,"o":"m 260 -39 b 432 160 363 -39 432 50 b 374 304 432 219 410 271 b 479 611 435 356 479 454 b 260 972 479 946 311 972 b 42 611 154 972 42 878 b 146 303 42 446 88 351 b 89 160 111 268 89 218 b 260 -39 89 50 160 -39 z m 260 869 b 374 611 329 869 374 769 b 260 356 374 447 315 356 b 147 611 206 356 147 438 b 260 869 147 764 193 869 z m 260 254 b 329 160 296 254 329 221 b 261 63 329 107 307 63 b 192 160 218 63 192 107 b 260 254 192 219 225 254 z "},"9":{"ha":554,"x_min":0,"x_max":0,"o":"m 260 63 b 178 153 213 63 178 108 b 156 164 178 161 168 164 b 78 119 125 164 78 142 b 260 -39 78 63 157 -39 b 501 485 501 -39 501 356 b 263 972 501 608 493 972 b 44 590 226 972 44 953 b 254 257 44 422 106 257 b 386 322 289 257 336 265 b 260 63 369 128 319 63 z m 263 357 b 150 590 186 357 150 467 b 263 871 150 808 215 871 b 392 540 321 871 383 800 b 263 357 376 417 326 357 z "},"B":{"ha":807,"x_min":0,"x_max":0,"o":"m 278 224 b 514 -62 278 53 332 -62 b 757 178 651 -62 757 39 b 611 390 757 297 692 367 b 790 689 713 444 790 538 b 443 1004 790 886 653 1004 b 25 575 196 1004 25 835 b 126 308 25 413 104 329 b 204 394 167 278 204 369 b 183 414 204 408 199 418 b 131 583 181 418 131 461 b 444 900 131 753 221 900 b 683 686 615 900 683 792 b 458 442 683 485 524 442 b 465 338 417 442 440 338 b 649 175 553 338 649 300 b 513 33 649 94 590 33 b 386 219 431 33 386 86 l 386 735 b 308 796 386 768 354 796 b 272 772 289 796 272 786 b 278 728 272 763 278 754 z "},"C":{"ha":678,"x_min":0,"x_max":0,"o":"m 314 578 b 261 592 274 578 271 592 b 246 547 251 592 246 567 b 307 481 246 501 274 481 b 675 807 461 481 675 636 b 499 990 675 928 599 990 b 46 383 222 990 46 654 b 364 -57 46 115 165 -57 b 638 58 532 -57 633 54 b 567 131 671 92 603 190 b 374 47 564 129 492 47 b 157 383 214 47 157 211 b 481 889 157 610 297 889 b 565 811 544 889 565 843 b 314 578 565 693 417 578 z "},"D":{"ha":846,"x_min":0,"x_max":0,"o":"m 382 717 b 304 778 382 750 350 778 b 268 754 285 778 268 768 b 274 710 268 744 274 736 l 274 178 b 451 -53 274 31 321 -53 b 800 557 604 -53 800 163 b 429 994 800 781 688 994 b 25 565 186 994 25 818 b 140 264 25 369 136 267 b 161 257 147 258 154 257 b 228 339 193 257 228 303 b 207 358 228 353 222 363 b 133 574 201 363 133 440 b 425 888 133 721 194 888 b 689 546 610 888 689 733 b 460 54 689 268 565 54 b 382 171 404 54 382 94 z "},"E":{"ha":619,"x_min":0,"x_max":0,"o":"m 588 100 b 592 119 590 106 592 113 b 535 188 592 151 563 188 b 506 164 524 188 513 181 b 301 50 488 125 418 50 b 165 171 224 50 165 100 b 314 321 165 281 256 314 b 347 393 331 322 347 363 b 324 426 347 411 340 426 b 311 425 319 426 315 426 b 171 611 250 431 171 507 b 429 889 171 744 290 889 b 517 814 481 889 517 864 b 361 628 517 725 453 628 b 308 642 321 628 318 642 b 293 592 299 642 293 611 b 369 525 293 542 335 525 b 626 813 507 525 626 668 b 429 996 626 914 557 996 b 60 604 226 996 60 789 b 181 378 60 483 119 415 b 54 168 114 343 54 269 b 299 -60 54 24 165 -60 b 588 100 476 -60 564 60 z "},"F":{"ha":810,"x_min":0,"x_max":0,"o":"m 572 78 l 572 314 l 733 314 b 746 411 765 314 789 443 l 572 411 l 572 865 b 840 861 658 864 815 861 b 904 935 883 861 904 901 b 885 981 904 956 894 981 b 846 969 881 981 874 969 b 531 972 817 969 607 972 b 25 563 197 972 25 829 b 147 279 25 415 107 308 b 168 272 154 274 161 272 b 235 354 200 272 235 318 b 214 374 235 368 229 378 b 135 563 178 410 135 467 b 464 863 135 781 269 850 l 464 411 l 363 411 b 342 383 349 411 342 399 b 392 314 342 354 363 314 l 464 314 l 464 96 b 428 -6 464 25 453 -6 b 404 -12 414 -6 404 6 b 494 -93 404 -39 460 -93 b 572 78 540 -93 572 -44 z "},"G":{"ha":713,"x_min":0,"x_max":0,"o":"m 532 81 b 535 -58 532 47 535 1 l 535 -72 b 279 -328 406 -111 279 -186 b 435 -492 279 -421 340 -492 b 638 -154 597 -492 631 -310 b 696 -151 657 -153 675 -151 b 714 -42 744 -150 779 -37 b 640 -49 692 -43 667 -44 b 639 169 640 36 639 104 b 647 379 639 239 640 304 b 575 432 647 410 600 432 b 531 404 551 432 531 431 b 533 358 531 394 533 372 b 319 53 533 244 461 53 b 163 378 231 53 163 178 b 482 890 163 621 308 890 b 567 813 546 890 567 844 b 394 642 567 724 465 642 b 342 656 354 642 351 656 b 326 606 332 656 326 625 b 388 539 326 560 354 539 b 676 819 508 539 676 668 b 500 992 676 926 600 992 b 47 376 224 992 47 653 b 317 -56 47 117 144 -56 b 532 81 401 -56 474 -6 z m 438 -385 b 388 -325 410 -385 388 -367 b 531 -175 388 -256 439 -204 b 438 -385 524 -286 500 -385 z "},"H":{"ha":942,"x_min":0,"x_max":0,"o":"m 538 914 b 482 972 538 947 511 972 b 25 560 271 972 25 854 b 142 278 25 407 93 313 b 233 357 182 249 233 299 b 225 379 233 367 232 379 b 208 372 218 379 217 372 b 135 564 190 372 135 447 b 429 868 135 750 258 868 l 429 419 l 301 419 b 281 392 288 419 281 407 b 331 322 281 363 301 322 l 429 322 l 429 1 b 499 -39 429 -19 467 -39 b 538 -7 519 -39 538 -31 l 538 322 l 754 322 l 754 1 b 824 -39 754 -19 792 -39 b 863 -7 844 -39 863 -31 l 863 864 b 900 968 863 981 900 947 b 826 1042 900 988 867 1042 b 754 893 788 1042 754 992 l 754 419 l 538 419 z "},"I":{"ha":550,"x_min":0,"x_max":0,"o":"m 471 914 b 415 972 471 947 444 972 b 25 581 251 972 25 875 b 142 304 25 440 93 338 b 233 388 182 275 233 329 b 224 408 233 397 231 408 b 208 399 217 408 215 399 b 135 581 190 399 135 469 b 363 864 135 756 238 849 l 363 1 b 432 -39 363 -19 400 -39 b 471 -7 453 -39 471 -31 z "},"J":{"ha":557,"x_min":0,"x_max":0,"o":"m 363 -58 l 363 -74 b 110 -328 235 -111 110 -187 b 265 -492 110 -421 171 -492 b 469 -154 426 -492 461 -314 b 526 -151 488 -153 506 -151 b 544 -42 575 -150 610 -37 b 471 -49 522 -43 497 -44 l 471 -7 l 471 914 b 415 972 471 947 444 972 b 25 581 251 972 25 875 b 142 304 25 418 107 326 b 165 296 149 299 157 296 b 233 388 200 296 233 340 b 224 408 233 397 231 408 b 208 399 217 408 215 399 b 135 581 190 399 135 469 b 363 864 135 756 238 849 z m 268 -385 b 218 -325 240 -385 218 -367 b 360 -176 218 -256 268 -204 b 268 -385 353 -286 331 -385 z "},"K":{"ha":832,"x_min":0,"x_max":0,"o":"m 471 914 b 415 972 471 947 444 972 b 25 581 251 972 25 875 b 142 304 25 440 93 338 b 242 388 182 275 242 329 b 231 404 242 397 238 404 b 208 399 224 404 217 399 b 135 581 190 399 135 469 b 363 864 135 756 238 849 l 363 1 b 432 -39 363 -19 400 -39 b 471 -7 453 -39 471 -31 l 471 307 b 779 -215 689 246 624 -21 b 797 -224 785 -221 790 -224 b 892 -151 819 -224 892 -178 b 865 -132 892 -140 872 -140 b 569 368 739 10 765 264 b 826 985 815 476 711 810 b 838 1000 835 989 838 994 b 756 1042 838 1022 790 1042 b 726 1024 739 1042 729 1029 b 471 425 590 792 740 481 z "},"L":{"ha":701,"x_min":0,"x_max":0,"o":"m 519 -51 b 699 157 626 -51 699 49 b 622 219 699 190 671 219 b 606 210 611 219 606 217 b 608 185 606 204 608 197 b 508 57 608 135 586 57 b 342 181 451 57 401 124 b 228 619 338 351 228 475 b 443 879 228 757 315 879 b 544 779 513 879 544 833 b 342 594 544 696 433 594 b 315 604 326 594 319 604 b 304 586 308 604 304 597 b 375 507 304 532 338 507 b 654 799 496 507 654 636 b 447 986 654 907 571 986 b 117 624 249 986 117 803 b 229 250 117 469 197 369 b 185 257 215 254 200 257 b 26 104 101 257 26 194 b 171 -39 26 29 79 -39 b 317 65 242 -39 290 8 b 519 -51 374 8 438 -51 z m 175 161 b 239 136 197 161 218 151 b 174 58 233 96 211 58 b 125 110 142 58 125 83 b 175 161 125 140 147 161 z "},"M":{"ha":761,"x_min":0,"x_max":0,"o":"m 738 26 b 675 133 704 43 675 75 l 675 751 b 499 972 675 914 585 972 b 386 915 472 972 421 967 b 258 972 343 967 282 972 b 86 751 175 972 86 914 l 86 171 b 47 39 86 79 67 46 b 10 28 28 32 10 40 b 75 -39 10 3 24 -39 b 194 150 153 -39 194 28 l 194 765 b 261 871 194 871 243 871 b 326 765 282 871 326 871 l 326 -12 b 361 -39 326 -39 343 -39 b 442 -6 396 -39 442 -19 b 435 1 442 -3 438 1 l 435 751 b 501 871 435 871 481 871 b 567 765 519 871 567 871 l 567 122 b 657 -39 567 13 613 -37 b 738 26 704 -40 760 13 z "},"N":{"ha":856,"x_min":0,"x_max":0,"o":"m 471 914 b 415 972 471 947 444 972 b 25 581 251 972 25 875 b 167 296 25 418 119 296 b 242 388 203 296 242 340 b 231 404 242 397 238 404 b 208 399 224 404 217 399 b 135 581 190 399 135 469 b 363 864 135 756 238 849 l 363 1 b 432 -39 363 -19 400 -39 b 471 -7 453 -39 471 -31 l 471 529 b 656 863 471 647 614 863 b 668 843 661 863 668 861 l 668 18 b 772 -131 669 -99 732 -131 b 843 -83 815 -131 843 -104 b 776 42 843 -54 776 -62 l 776 851 b 682 972 776 943 721 972 b 471 800 601 972 526 896 z "},"O":{"ha":707,"x_min":0,"x_max":0,"o":"m 543 472 b 340 65 542 213 456 65 b 139 428 242 65 139 176 b 358 899 139 783 310 871 b 365 897 361 897 363 897 b 383 929 378 897 383 911 b 335 1001 383 960 365 1001 b 319 999 329 1001 324 1000 b 28 414 308 994 28 886 b 336 -39 28 165 133 -39 b 651 472 499 -39 651 121 b 643 582 651 506 649 543 b 721 664 689 601 721 629 b 676 739 721 701 696 739 b 660 721 669 739 664 733 b 621 686 647 707 635 694 b 431 864 590 783 532 864 b 304 732 356 864 304 804 b 513 557 304 625 397 557 l 539 557 b 543 472 542 528 543 499 z m 508 653 b 406 729 436 653 406 696 b 440 764 406 744 413 764 b 525 653 483 764 511 717 z "},"P":{"ha":788,"x_min":0,"x_max":0,"o":"m 278 1 b 347 -39 278 -19 315 -39 b 386 -7 368 -39 386 -31 l 386 176 b 778 633 590 215 778 392 b 443 972 778 831 646 972 b 25 543 196 972 25 803 b 126 276 25 381 104 297 b 204 363 167 246 204 338 b 183 382 204 376 199 386 b 131 551 181 386 131 429 b 444 868 131 721 221 868 b 671 631 607 868 671 736 b 386 281 671 397 481 292 l 386 735 b 308 796 386 768 354 796 b 272 772 289 796 272 786 b 278 728 272 763 278 754 z "},"Q":{"ha":725,"x_min":0,"x_max":0,"o":"m 633 -164 b 154 463 460 -164 154 -7 b 365 867 154 743 268 867 b 561 478 463 867 561 753 b 369 61 561 279 500 97 b 363 61 367 61 365 61 b 350 50 354 61 350 57 b 419 -24 350 28 396 -24 b 669 478 482 -24 669 103 b 368 972 669 832 511 972 b 46 461 225 972 46 824 b 590 -272 46 -11 367 -272 b 686 -140 679 -272 722 -140 b 633 -164 675 -140 668 -164 z "},"R":{"ha":788,"x_min":0,"x_max":0,"o":"m 278 1 b 347 -39 278 -19 315 -39 b 386 -7 368 -39 386 -31 l 386 186 b 643 -222 575 135 507 -68 b 661 -231 649 -228 654 -231 b 756 -158 683 -231 756 -185 b 729 -139 756 -147 736 -147 b 514 229 635 -37 651 150 b 778 633 660 297 778 444 b 439 972 778 831 642 972 b 25 543 192 972 25 800 b 126 276 25 381 104 297 b 204 363 167 246 204 338 b 183 382 204 376 199 386 b 131 551 181 386 131 429 b 440 868 131 714 226 868 b 671 631 603 868 671 736 b 386 281 671 396 492 300 l 386 735 b 308 796 386 768 354 796 b 272 772 289 796 272 786 b 278 728 272 763 278 754 z "},"S":{"ha":575,"x_min":0,"x_max":0,"o":"m 281 -50 b 488 156 397 -50 488 43 b 147 607 488 388 147 392 b 421 881 147 758 318 881 b 497 804 476 881 497 851 b 297 596 497 713 372 596 b 261 586 274 596 261 610 b 339 506 261 557 290 506 b 603 806 424 506 603 651 b 428 985 603 914 536 985 b 39 607 239 985 39 790 b 378 151 39 324 378 317 b 281 54 378 92 338 54 b 200 88 228 54 204 83 b 185 100 196 96 192 100 b 131 19 164 100 131 51 b 281 -50 131 11 163 -50 z "},"T":{"ha":713,"x_min":0,"x_max":0,"o":"m 572 78 l 572 865 b 753 861 638 864 733 861 b 807 935 789 861 807 901 b 790 981 807 956 799 981 b 757 969 786 981 781 969 b 524 972 731 969 590 972 b 25 563 235 972 25 829 b 147 279 25 415 107 308 b 168 272 154 274 161 272 b 235 354 200 272 235 318 b 214 374 235 368 229 378 b 135 563 178 410 135 467 b 464 863 135 778 292 849 l 464 96 b 428 -6 464 25 453 -6 b 404 -12 414 -6 404 6 b 494 -93 404 -39 460 -93 b 572 78 540 -93 572 -44 z "},"U":{"ha":856,"x_min":0,"x_max":0,"o":"m 668 131 b 722 -39 672 18 674 -39 b 793 -6 753 -39 793 -24 b 789 4 793 -3 792 0 b 776 308 783 49 776 126 l 776 911 b 699 972 776 944 744 972 b 663 949 679 972 663 963 b 668 904 663 939 668 931 l 668 376 b 483 71 668 258 525 71 b 471 90 478 71 471 72 l 471 914 b 415 972 471 947 444 972 b 25 581 251 972 25 875 b 142 304 25 440 93 338 b 242 388 182 275 242 329 b 231 404 242 397 238 404 b 208 399 224 404 217 399 b 135 581 190 399 135 469 b 363 864 135 756 238 849 l 363 82 b 457 -39 363 -10 418 -39 b 668 133 536 -39 611 38 z "},"V":{"ha":818,"x_min":0,"x_max":0,"o":"m 668 736 b 483 71 668 286 525 71 b 471 90 478 71 471 72 l 471 914 b 415 972 471 947 444 972 b 25 581 251 972 25 875 b 142 304 25 440 93 338 b 242 388 182 275 242 329 b 231 404 242 397 238 404 b 208 399 224 404 217 399 b 135 581 190 399 135 469 b 363 864 135 756 238 849 l 363 82 b 457 -39 363 -10 418 -39 b 776 754 613 -39 776 274 b 764 914 776 839 771 881 b 690 972 756 954 736 972 b 654 949 671 972 654 963 b 668 736 654 926 668 874 z "},"W":{"ha":761,"x_min":0,"x_max":0,"o":"m 675 814 b 724 921 675 883 688 910 b 729 926 728 922 729 924 b 639 972 729 939 679 972 b 567 828 606 972 567 940 l 567 168 b 500 63 567 63 518 63 b 435 168 479 63 435 63 l 435 869 b 357 931 435 903 403 931 b 321 907 338 931 321 921 b 326 863 321 897 326 889 l 326 182 b 260 63 326 63 281 63 b 194 168 242 63 194 63 l 194 828 b 121 972 194 940 156 972 b 32 926 82 972 32 939 b 38 921 32 924 33 922 b 86 814 71 910 86 883 l 86 182 b 253 -39 86 19 167 -39 b 372 19 278 -39 333 -33 b 503 -39 415 -33 478 -39 b 675 182 586 -39 675 19 z "},"X":{"ha":546,"x_min":0,"x_max":0,"o":"m 519 36 b 335 365 447 142 386 256 b 519 935 475 682 519 924 b 450 972 519 957 481 972 b 417 961 443 972 417 972 b 418 957 417 960 417 958 b 276 500 385 799 333 639 b 136 936 179 740 136 932 b 146 960 136 951 146 956 b 117 972 146 968 129 972 b 29 919 85 972 29 950 b 217 360 29 900 86 653 b 13 35 128 167 42 35 b 0 28 3 35 0 32 b 89 -39 0 13 40 -39 b 140 -8 118 -39 129 -26 b 275 235 192 74 236 156 b 421 -22 318 150 367 63 b 450 -39 428 -33 436 -39 b 532 22 476 -39 532 7 b 519 36 532 31 528 32 z "},"Y":{"ha":863,"x_min":0,"x_max":0,"o":"m 776 911 b 699 972 776 944 744 972 b 663 949 679 972 663 963 b 668 904 663 939 668 931 l 668 376 b 483 71 668 258 525 71 b 471 90 478 71 471 72 l 471 914 b 415 972 471 947 444 972 b 25 581 251 972 25 875 b 142 304 25 440 93 338 b 242 388 182 275 242 329 b 231 404 242 397 238 404 b 208 399 224 404 217 399 b 135 581 190 399 135 469 b 363 864 135 756 238 849 l 363 82 b 457 -39 363 -10 418 -39 b 668 133 536 -39 611 38 l 668 -58 l 668 -74 b 415 -328 540 -111 415 -187 b 571 -492 415 -421 476 -492 b 775 -154 732 -492 767 -314 b 832 -151 793 -153 811 -151 b 850 -42 881 -150 915 -37 b 776 -49 828 -43 803 -44 l 776 -7 z m 574 -385 b 524 -325 546 -385 524 -367 b 665 -176 524 -256 574 -204 b 574 -385 658 -286 636 -385 z "},"Z":{"ha":676,"x_min":0,"x_max":0,"o":"m 219 -346 b 375 -510 219 -439 281 -510 b 578 -206 532 -510 578 -346 b 576 -174 578 -194 578 -183 b 636 -169 596 -171 615 -169 b 654 -60 685 -168 719 -56 b 561 -71 626 -61 594 -64 b 428 101 535 25 481 78 b 635 589 514 174 635 315 b 342 972 635 825 513 972 b 39 594 201 972 39 853 b 247 257 39 371 183 257 b 317 342 290 257 317 293 b 310 361 317 357 314 361 b 288 357 304 361 297 357 b 150 601 246 357 150 425 b 339 864 150 771 243 864 b 524 596 389 864 524 833 b 288 136 524 221 297 135 b 276 138 283 138 279 138 b 253 103 260 138 253 122 b 300 35 253 74 269 36 b 457 -96 375 32 432 -14 b 219 -346 335 -135 219 -211 z m 472 -204 b 378 -403 472 -296 443 -403 b 328 -343 350 -403 328 -385 b 472 -193 328 -274 379 -221 z "},"a":{"ha":492,"x_min":0,"x_max":0,"o":"m 442 53 b 394 117 408 53 394 86 l 394 346 b 319 407 394 379 365 407 b 283 383 300 407 283 397 b 289 339 283 374 289 365 l 289 125 b 211 53 274 86 249 53 b 132 167 163 53 132 94 b 361 457 132 367 256 457 b 401 454 375 457 389 454 b 419 486 415 454 419 463 b 356 544 419 522 393 544 b 25 171 186 544 25 403 b 190 -39 25 53 82 -39 b 310 18 243 -39 282 -14 b 417 -39 331 -15 368 -39 b 615 178 536 -39 592 86 b 617 188 617 183 617 186 b 568 244 617 214 590 244 b 535 203 554 244 540 232 b 442 53 522 142 497 53 z "},"b":{"ha":525,"x_min":0,"x_max":0,"o":"m 200 354 b 328 101 200 256 249 158 b 253 53 311 72 288 53 b 154 213 186 53 154 121 l 154 863 b 79 924 154 896 125 924 b 35 908 60 924 35 918 b 49 856 35 899 49 896 l 49 193 b 244 -39 49 57 117 -39 b 414 61 325 -39 379 1 b 485 51 436 54 460 51 b 653 189 579 51 636 114 b 574 229 671 267 579 261 b 474 129 565 175 533 129 b 444 132 464 129 454 129 b 465 290 458 181 465 236 b 318 517 465 446 392 517 b 200 354 253 517 200 467 z m 286 360 b 311 425 286 399 293 425 b 360 279 336 425 360 372 b 353 188 360 253 358 219 b 286 360 313 231 286 293 z "},"c":{"ha":413,"x_min":0,"x_max":0,"o":"m 271 -39 b 546 214 475 -39 536 129 b 461 228 551 263 474 290 b 286 53 444 143 394 53 b 144 224 204 53 144 114 b 244 451 144 349 193 451 b 301 376 292 451 294 400 b 389 408 293 328 389 356 b 257 544 389 457 353 544 b 31 224 125 544 31 383 b 271 -39 31 53 147 -39 z "},"d":{"ha":508,"x_min":0,"x_max":0,"o":"m 204 -39 b 328 15 257 -39 297 -15 b 433 -39 349 -17 386 -39 b 632 178 553 -39 608 86 b 633 188 633 183 633 186 b 585 244 633 214 607 244 b 551 203 571 244 557 232 b 458 53 539 142 514 53 b 411 117 425 53 411 86 l 411 863 b 336 924 411 896 382 924 b 292 908 317 924 292 918 b 306 856 292 899 306 896 l 306 542 b 25 185 154 521 25 397 b 204 -39 25 39 96 -39 z m 225 53 b 132 194 176 53 132 94 b 306 450 132 368 215 433 l 306 107 b 225 53 288 76 261 53 z "},"e":{"ha":413,"x_min":0,"x_max":0,"o":"m 368 404 b 243 544 368 488 321 544 b 31 236 136 544 31 413 b 276 -39 31 63 150 -39 b 546 214 481 -39 536 129 b 461 228 551 263 474 290 b 292 53 444 143 400 53 b 163 139 219 53 182 92 b 368 404 297 179 368 301 z m 144 240 b 231 451 142 299 163 451 b 260 403 249 451 260 433 b 146 215 260 319 215 247 b 144 240 146 224 144 232 z "},"f":{"ha":372,"x_min":0,"x_max":0,"o":"m 314 397 b 357 381 351 394 349 381 b 383 468 375 381 383 449 b 326 507 383 497 357 507 b 154 497 289 507 218 503 l 154 890 b 79 951 154 924 125 951 b 35 936 60 951 35 946 b 49 883 35 926 49 924 l 49 489 b 29 488 40 489 33 488 b -3 454 7 485 -3 468 b 40 393 -3 432 18 415 b 49 383 43 390 46 386 l 49 -364 b 176 -572 49 -467 79 -572 b 361 -172 288 -572 361 -404 b 154 376 361 57 281 222 l 154 407 z m 256 -172 b 188 -471 256 -349 228 -471 b 154 -364 160 -471 154 -408 l 154 231 b 256 -172 221 101 256 -46 z "},"g":{"ha":489,"x_min":0,"x_max":0,"o":"m 132 -412 b 265 -572 132 -501 188 -572 b 410 -375 336 -572 410 -521 l 410 -135 b 613 174 485 -69 565 13 b 614 188 614 179 614 186 b 565 244 614 214 588 244 b 532 203 551 244 540 232 b 410 -18 504 107 460 38 l 410 360 b 335 421 410 393 381 421 b 299 397 315 421 299 411 b 304 353 299 388 304 379 l 304 196 b 211 67 294 140 267 67 b 132 181 163 67 132 108 b 361 471 132 381 256 471 b 401 468 375 471 389 468 b 419 500 415 468 419 476 b 356 558 419 536 393 558 b 25 185 186 558 25 417 b 190 -25 25 67 82 -25 b 304 25 239 -25 276 -3 l 304 -121 b 132 -412 213 -201 132 -272 z m 265 -485 b 229 -408 243 -485 229 -451 b 304 -226 229 -325 260 -272 l 304 -375 b 265 -485 304 -401 310 -485 z "},"h":{"ha":511,"x_min":0,"x_max":0,"o":"m 49 22 b 115 -39 49 -29 88 -39 b 154 21 156 -39 154 -6 l 154 224 b 290 453 164 333 250 453 b 319 374 317 453 319 417 l 319 92 b 436 -39 319 21 363 -39 b 635 178 556 -39 610 86 b 554 203 646 222 571 288 b 461 53 542 142 517 53 b 425 117 425 53 425 104 l 425 404 b 310 544 425 468 403 544 b 154 407 242 544 192 485 l 154 863 b 79 924 154 896 125 924 b 35 908 60 924 35 918 b 49 856 35 899 49 896 z "},"i":{"ha":240,"x_min":0,"x_max":0,"o":"m 122 668 b 207 753 171 668 207 707 b 122 838 207 801 171 838 b 39 753 76 838 39 801 b 122 668 39 707 76 668 z m 154 469 b 79 531 154 503 125 531 b 43 507 60 531 43 521 b 49 463 43 497 49 489 l 49 92 b 165 -39 49 21 92 -39 b 364 178 285 -39 339 86 b 283 203 375 222 300 288 b 190 53 271 142 246 53 b 154 117 154 53 154 104 z "},"j":{"ha":233,"x_min":0,"x_max":0,"o":"m 276 203 b 154 -18 249 107 204 38 l 154 469 b 79 531 154 503 125 531 b 43 507 60 531 43 521 b 49 463 43 497 49 489 l 49 -121 b -124 -412 -43 -201 -124 -272 b 10 -572 -124 -501 -68 -572 b 154 -375 81 -572 154 -521 l 154 -135 b 357 174 229 -69 310 13 b 358 188 358 179 358 186 b 310 244 358 214 332 244 b 276 203 296 244 285 232 z m 17 753 b 101 668 17 707 54 668 b 186 753 147 668 186 707 b 101 838 186 801 147 838 b 17 753 54 838 17 801 z m 10 -485 b -26 -408 -12 -485 -26 -451 b 49 -226 -26 -325 4 -272 l 49 -375 b 10 -485 49 -401 54 -485 z "},"k":{"ha":486,"x_min":0,"x_max":0,"o":"m 49 22 b 115 -39 49 -29 88 -39 b 154 21 156 -39 154 -6 l 154 260 b 293 451 197 407 260 451 b 338 393 319 451 338 428 b 208 178 338 265 208 221 b 390 -39 208 86 281 -39 b 610 176 517 -39 585 101 b 529 201 621 221 546 286 b 406 53 517 140 469 53 b 307 168 351 53 321 108 b 440 394 363 208 440 288 b 317 544 440 472 403 544 b 154 429 254 544 199 490 l 154 863 b 79 924 154 896 125 924 b 35 908 60 924 35 918 b 49 856 35 899 49 896 z "},"l":{"ha":306,"x_min":0,"x_max":0,"o":"m 154 807 b 175 863 154 829 160 863 b 213 729 197 863 213 821 b 154 411 213 653 183 469 z m 351 201 b 228 53 339 140 292 53 b 154 149 176 53 154 93 l 154 229 b 299 731 172 246 299 526 b 175 954 299 808 297 954 b 49 776 106 954 49 881 l 49 144 b 213 -39 49 35 106 -39 b 432 176 339 -39 407 101 b 351 201 443 221 368 283 z "},"m":{"ha":754,"x_min":0,"x_max":0,"o":"m 878 178 b 879 188 879 183 879 186 b 831 244 879 214 853 244 b 797 203 817 244 803 232 b 704 53 785 142 760 53 b 668 117 668 53 668 104 l 668 404 b 557 544 668 468 647 544 b 411 414 494 544 446 488 b 301 544 408 476 385 544 b 154 411 239 544 190 486 l 154 469 b 79 531 154 503 125 531 b 43 507 60 531 43 521 b 49 463 43 497 49 489 l 49 22 b 115 -39 49 -29 88 -39 b 154 21 156 -39 154 -6 l 154 224 b 279 453 163 333 242 453 b 306 374 303 453 306 417 l 306 22 b 372 -39 306 -29 344 -39 b 411 21 413 -39 411 -6 l 411 224 b 536 453 419 333 499 453 b 563 374 560 453 563 417 l 563 92 b 679 -39 563 21 606 -39 b 878 178 799 -39 853 86 z "},"n":{"ha":501,"x_min":0,"x_max":0,"o":"m 49 22 b 115 -39 49 -29 88 -39 b 154 21 156 -39 154 -6 l 154 224 b 290 453 164 333 250 453 b 319 374 317 453 319 417 l 319 92 b 436 -39 319 21 363 -39 b 635 178 556 -39 611 86 b 636 188 636 183 636 186 b 588 244 636 214 610 244 b 554 203 574 244 560 232 b 461 53 542 142 517 53 b 425 117 425 53 425 104 l 425 404 b 310 544 425 468 403 544 b 154 407 242 544 192 485 l 154 469 b 79 531 154 503 125 531 b 43 507 60 531 43 521 b 49 463 43 497 49 489 z "},"o":{"ha":508,"x_min":0,"x_max":0,"o":"m 557 229 b 457 129 549 175 517 129 b 429 132 447 129 439 129 b 449 282 443 179 449 231 b 331 515 449 417 396 515 b 218 353 256 515 218 440 b 318 106 218 253 253 161 b 236 53 300 74 275 53 b 136 228 182 53 136 111 b 200 450 136 365 178 417 b 172 547 236 474 208 547 b 31 219 142 547 31 424 b 233 -39 31 81 93 -39 b 400 61 313 -39 365 1 b 468 51 421 54 443 51 b 636 189 563 51 619 114 b 557 229 654 267 563 261 z m 292 358 b 315 424 292 401 300 424 b 349 260 344 424 349 354 b 344 196 349 239 347 218 b 292 358 313 238 292 296 z "},"p":{"ha":501,"x_min":0,"x_max":0,"o":"m 221 -53 b 361 11 269 -53 324 -29 b 632 188 546 11 632 124 b 582 240 632 207 606 240 b 550 203 569 240 563 229 b 406 97 518 138 497 101 b 442 300 426 147 442 222 b 281 544 442 438 389 544 b 154 471 222 544 183 513 b 79 531 153 503 124 531 b 35 515 60 531 35 525 b 49 463 35 506 49 503 l 49 -507 b 81 -544 49 -528 53 -544 b 154 -483 108 -544 154 -535 l 154 -32 b 221 -53 165 -44 188 -53 z m 246 451 b 333 278 293 451 333 406 b 285 83 333 226 318 132 b 154 35 221 78 174 64 l 154 335 b 246 451 169 403 206 451 z "},"q":{"ha":507,"x_min":0,"x_max":0,"o":"m 190 -39 b 304 13 240 -39 276 -17 l 304 -389 b 443 -572 304 -503 349 -572 b 581 -387 517 -572 581 -497 b 446 -118 581 -287 529 -210 b 631 174 515 -56 588 26 b 632 188 632 179 632 186 b 583 244 632 214 606 244 b 550 203 569 244 558 232 b 410 -37 518 96 467 21 l 410 346 b 335 407 410 379 381 407 b 299 383 315 407 299 397 b 304 339 299 374 304 365 l 304 182 b 211 53 294 126 267 53 b 132 167 163 53 132 94 b 361 457 132 367 256 457 b 401 454 375 457 389 454 b 419 486 415 454 419 463 b 356 544 419 522 393 544 b 25 171 186 544 25 403 b 190 -39 25 53 82 -39 z m 482 -403 b 446 -481 482 -457 464 -481 b 410 -401 432 -481 410 -467 l 410 -196 b 482 -403 468 -272 482 -335 z "},"r":{"ha":426,"x_min":0,"x_max":0,"o":"m 351 -39 b 550 178 471 -39 525 86 b 551 188 550 181 551 183 b 503 244 551 214 525 244 b 469 203 489 244 475 232 b 369 53 457 142 433 53 b 314 128 332 53 314 89 b 376 447 314 267 376 431 b 310 525 382 479 326 525 l 238 525 b 164 531 224 525 210 525 b 76 604 149 588 110 604 b 7 540 40 604 7 579 b 67 451 7 500 32 471 b 44 210 65 381 60 265 b 122 171 32 163 104 113 b 157 426 147 251 156 372 l 172 426 l 278 426 b 208 119 233 307 208 208 b 351 -39 208 -3 286 -39 z "},"s":{"ha":443,"x_min":0,"x_max":0,"o":"m 128 190 b 182 358 146 257 160 304 b 282 163 231 308 282 250 b 251 78 282 128 267 96 b 28 158 182 78 56 158 b 28 19 -3 158 -40 85 b 181 -39 56 -7 122 -39 b 317 11 238 -39 283 -18 b 503 78 403 17 460 43 b 567 185 535 104 567 157 b 517 240 567 204 540 240 b 485 203 504 240 494 229 b 371 103 469 158 436 117 b 378 153 375 118 378 136 b 228 450 378 285 293 335 b 261 544 229 458 261 504 b 211 607 261 582 244 607 b 93 497 174 607 93 544 b 115 432 93 474 101 453 b 47 218 90 358 61 279 b 128 190 36 171 113 132 z "},"t":{"ha":251,"x_min":0,"x_max":0,"o":"m -76 653 b -47 560 -117 653 -92 560 b 49 557 -47 560 -12 557 l 49 115 b 176 -39 49 6 101 -39 b 375 178 296 -39 351 86 b 376 188 376 183 376 186 b 328 244 376 214 350 244 b 294 203 314 244 300 232 b 201 53 282 142 257 53 b 154 117 172 53 154 72 l 154 557 b 421 560 228 557 310 557 b 431 653 457 561 469 694 b 154 647 336 649 239 647 l 154 890 b 79 951 154 924 125 951 b 35 936 60 951 35 946 b 49 883 35 926 49 924 l 49 649 b -76 653 -26 650 -76 653 z "},"u":{"ha":506,"x_min":0,"x_max":0,"o":"m 431 -39 b 629 178 550 -39 604 86 b 631 188 631 183 631 186 b 582 244 631 214 604 244 b 549 203 568 244 554 232 b 456 53 536 142 511 53 b 419 117 419 53 419 104 l 419 469 b 344 531 419 503 390 531 b 300 515 325 531 300 525 b 314 463 300 506 314 503 l 314 239 b 200 51 297 142 256 51 b 136 167 160 51 136 92 b 176 447 136 283 151 344 b 154 524 182 468 222 524 b 81 472 81 524 90 496 b 31 160 81 472 31 307 b 178 -40 31 39 85 -40 b 317 60 239 -40 283 1 b 431 -39 326 4 368 -39 z "},"v":{"ha":451,"x_min":0,"x_max":0,"o":"m 49 97 b 167 -39 49 22 78 -39 b 435 304 331 -39 435 117 b 311 544 435 424 367 544 b 254 476 285 544 254 501 b 274 464 254 468 267 469 b 331 308 292 450 331 421 b 185 53 331 147 253 53 b 154 96 160 53 154 69 l 154 469 b 79 531 154 503 125 531 b 43 507 60 531 43 521 b 49 463 43 497 49 489 z "},"w":{"ha":692,"x_min":0,"x_max":0,"o":"m 292 151 b 222 53 292 99 275 53 b 154 151 163 53 154 101 l 154 469 b 79 531 154 503 125 531 b 43 507 60 531 43 521 b 49 463 43 497 49 489 l 49 153 b 218 -39 49 78 64 -39 b 344 28 271 -39 326 -8 b 471 -39 364 -8 411 -39 b 640 151 614 -39 640 65 l 640 469 b 565 531 640 503 611 531 b 529 507 546 531 529 521 b 535 463 529 497 535 489 l 535 151 b 465 53 535 99 518 53 b 397 151 411 53 399 93 l 397 469 b 322 531 397 503 368 531 b 286 507 303 531 286 521 b 292 463 286 497 292 489 z "},"x":{"ha":565,"x_min":0,"x_max":0,"o":"m 122 171 b 168 422 143 238 165 361 b 267 229 206 358 238 296 b 142 68 228 174 185 118 b 82 7 97 17 82 25 b 154 -39 82 -19 122 -39 b 217 3 179 -39 197 -28 l 310 135 b 504 -39 369 8 421 -39 b 689 178 617 -39 665 86 b 690 188 690 183 690 186 b 642 244 690 214 664 244 b 608 203 628 244 614 232 b 517 47 596 142 572 47 b 375 229 465 47 428 117 l 532 453 b 538 474 536 458 538 465 b 479 546 538 506 507 546 b 440 508 464 546 453 533 b 332 325 417 464 379 397 b 236 507 297 399 269 453 b 163 544 218 536 185 544 b 81 478 104 544 81 526 b 44 210 81 407 58 261 b 122 171 32 163 104 113 z "},"y":{"ha":499,"x_min":0,"x_max":0,"o":"m 542 203 b 419 -18 514 107 469 38 l 419 469 b 344 531 419 503 390 531 b 308 507 325 531 308 521 b 314 463 308 497 314 489 l 314 239 b 200 51 297 142 256 51 b 136 167 160 51 136 92 b 176 447 136 283 151 344 b 154 524 182 468 222 524 b 81 472 81 524 90 496 b 31 160 81 472 31 307 b 178 -40 31 39 85 -40 b 314 56 238 -40 281 0 l 314 -121 b 142 -412 222 -201 142 -272 b 275 -572 142 -501 197 -572 b 419 -375 346 -572 419 -521 l 419 -135 b 622 174 494 -69 575 13 b 624 188 624 179 624 186 b 575 244 624 214 597 244 b 542 203 561 244 550 232 z m 275 -485 b 239 -408 253 -485 239 -451 b 314 -226 239 -325 269 -272 l 314 -375 b 275 -485 314 -401 319 -485 z "},"z":{"ha":500,"x_min":0,"x_max":0,"o":"m 143 -412 b 276 -572 143 -501 199 -572 b 440 -257 403 -572 440 -403 b 432 -124 440 -206 438 -161 b 624 174 504 -61 578 21 b 625 188 625 179 625 186 b 576 244 625 214 599 244 b 543 203 563 244 551 232 b 410 -29 514 100 464 28 b 296 99 386 32 349 69 b 474 353 394 143 474 236 b 289 544 474 460 406 544 b 47 221 128 544 82 403 b 125 185 40 186 106 106 b 289 453 176 400 219 453 b 368 364 343 453 368 411 b 167 111 368 225 264 139 l 186 35 b 324 -112 271 35 308 -35 b 143 -412 229 -197 143 -268 z m 335 -276 b 276 -485 335 -351 329 -485 b 240 -408 254 -485 240 -451 b 333 -208 240 -314 279 -258 b 335 -276 335 -233 335 -257 z "},"ﬁ":{"ha":571,"x_min":0,"x_max":0,"o":"m 485 463 b 399 535 485 496 475 535 b 154 510 382 535 279 517 l 154 890 b 79 951 154 924 125 951 b 35 936 60 951 35 946 b 49 883 35 926 49 924 l 49 503 b 29 501 39 503 33 501 b -3 468 7 499 -3 482 b 40 407 -3 446 18 429 b 49 397 43 404 46 400 l 49 -364 b 176 -572 49 -467 79 -572 b 361 -172 288 -572 361 -404 b 154 390 361 57 281 233 l 154 421 l 379 419 l 379 92 b 496 -39 379 21 422 -39 b 694 178 615 -39 669 86 b 614 203 706 222 631 288 b 521 53 601 142 576 53 b 485 117 485 53 485 104 z m 256 -172 b 188 -471 256 -349 228 -471 b 154 -364 160 -471 154 -408 l 154 240 b 256 -172 221 107 256 -46 z m 439 668 b 524 753 488 668 524 707 b 439 838 524 801 488 838 b 356 753 393 838 356 801 b 439 668 356 707 393 668 z "},"ﬂ":{"ha":608,"x_min":0,"x_max":0,"o":"m 654 201 b 531 53 642 140 594 53 b 457 149 479 53 457 93 l 457 406 b 601 775 522 468 601 569 b 478 954 601 847 600 954 b 351 776 408 954 351 889 l 351 458 b 256 444 325 450 293 444 b 154 460 224 444 188 451 l 154 890 b 79 951 154 924 125 951 b 35 936 60 951 35 946 b 49 883 35 926 49 924 l 49 486 b 29 488 40 488 33 488 b -3 450 7 485 -3 464 b 40 379 -3 408 18 401 l 49 371 l 49 -364 b 176 -572 49 -467 79 -572 b 361 -200 288 -572 361 -432 b 154 367 361 -14 281 229 l 154 378 b 281 353 178 367 219 353 b 351 360 307 353 331 356 l 351 144 b 515 -39 351 35 408 -39 b 735 176 642 -39 710 101 b 654 201 746 221 671 283 z m 256 -200 b 188 -471 256 -376 228 -471 b 154 -364 160 -471 154 -408 l 154 218 b 256 -200 221 78 256 -99 z m 457 807 b 481 863 457 836 465 863 b 515 767 503 863 515 849 b 457 529 515 671 500 599 z "},"ß":{"ha":540,"x_min":0,"x_max":0,"o":"m 372 760 b 208 972 372 863 307 972 b 49 732 119 972 49 892 l 49 -362 b 81 -400 49 -383 53 -400 b 154 -339 108 -400 154 -390 l 154 732 b 204 872 154 821 167 872 b 269 764 250 872 269 813 b 225 503 269 644 229 583 b 374 163 219 404 374 258 b 344 82 374 128 360 100 b 232 131 307 81 250 131 b 193 71 214 131 193 106 b 306 -39 193 22 232 -39 b 424 13 358 -39 397 -18 b 600 78 504 18 558 44 b 664 185 632 104 664 157 b 614 240 664 204 638 240 b 582 203 601 240 592 229 b 467 101 567 158 532 117 b 475 167 472 124 475 146 b 317 522 475 324 317 429 b 372 760 317 578 372 626 z "},"À":{"ha":689,"x_min":0,"x_max":0,"o":"m 333 535 b 672 810 503 535 672 650 b 492 986 672 908 606 986 b 46 351 228 986 46 658 b 303 -56 46 53 151 -56 b 525 101 400 -56 483 14 b 575 -47 529 -11 526 -47 b 646 -14 606 -47 646 -32 b 642 -4 646 -11 644 -8 b 629 300 636 40 629 118 b 647 526 629 408 640 490 b 604 563 653 553 626 563 b 547 535 578 563 550 553 b 315 53 519 317 478 53 b 157 354 196 53 157 181 b 485 881 157 572 269 881 b 563 804 538 881 563 842 b 340 635 563 700 440 635 b 288 649 300 635 297 649 b 272 604 278 649 272 624 b 333 535 272 558 300 535 z m 454 1056 b 485 1042 458 1049 469 1042 b 547 1074 522 1042 547 1058 b 536 1094 547 1081 542 1088 l 410 1240 b 369 1267 400 1254 389 1267 b 313 1222 351 1267 313 1249 b 324 1199 313 1215 317 1207 z "},"à":{"ha":492,"x_min":0,"x_max":0,"o":"m 442 53 b 394 117 408 53 394 86 l 394 346 b 319 407 394 379 365 407 b 283 383 300 407 283 397 b 289 339 283 374 289 365 l 289 125 b 211 53 274 86 249 53 b 132 167 163 53 132 94 b 361 457 132 367 256 457 b 401 454 375 457 389 454 b 419 486 415 454 419 463 b 356 544 419 522 393 544 b 25 171 186 544 25 403 b 190 -39 25 53 82 -39 b 310 18 243 -39 282 -14 b 417 -39 331 -15 368 -39 b 615 178 536 -39 592 86 b 617 188 617 183 617 186 b 568 244 617 214 590 244 b 535 203 554 244 540 232 b 442 53 522 142 497 53 z m 290 628 b 321 614 294 621 306 614 b 383 646 358 614 383 631 b 372 667 383 653 378 660 l 246 813 b 206 839 236 826 225 839 b 149 794 188 839 149 821 b 160 771 149 788 153 779 z "},"Á":{"ha":689,"x_min":0,"x_max":0,"o":"m 333 535 b 672 810 503 535 672 650 b 492 986 672 908 606 986 b 46 351 228 986 46 658 b 303 -56 46 53 151 -56 b 525 101 400 -56 483 14 b 575 -47 529 -11 526 -47 b 646 -14 606 -47 646 -32 b 642 -4 646 -11 644 -8 b 629 300 636 40 629 118 b 647 526 629 408 640 490 b 604 563 653 553 626 563 b 547 535 578 563 550 553 b 315 53 519 317 478 53 b 157 354 196 53 157 181 b 485 881 157 572 269 881 b 563 804 538 881 563 842 b 340 635 563 700 440 635 b 288 649 300 635 297 649 b 272 604 278 649 272 624 b 333 535 272 558 300 535 z m 579 1199 b 596 1226 586 1207 596 1214 b 539 1267 596 1250 565 1267 b 493 1240 519 1267 496 1256 l 367 1094 b 356 1074 361 1088 356 1081 b 410 1042 356 1058 372 1042 b 456 1067 425 1042 444 1049 z "},"á":{"ha":492,"x_min":0,"x_max":0,"o":"m 442 53 b 394 117 408 53 394 86 l 394 346 b 319 407 394 379 365 407 b 283 383 300 407 283 397 b 289 339 283 374 289 365 l 289 125 b 211 53 274 86 249 53 b 132 167 163 53 132 94 b 361 457 132 367 256 457 b 401 454 375 457 389 454 b 419 486 415 454 419 463 b 356 544 419 522 393 544 b 25 171 186 544 25 403 b 190 -39 25 53 82 -39 b 310 18 243 -39 282 -14 b 417 -39 331 -15 368 -39 b 615 178 536 -39 592 86 b 617 188 617 183 617 186 b 568 244 617 214 590 244 b 535 203 554 244 540 232 b 442 53 522 142 497 53 z m 415 771 b 432 799 422 779 432 786 b 375 839 432 822 401 839 b 329 813 356 839 332 828 l 203 667 b 192 646 197 660 192 653 b 246 614 192 631 208 614 b 292 639 261 614 281 621 z "},"Â":{"ha":689,"x_min":0,"x_max":0,"o":"m 333 535 b 672 810 503 535 672 650 b 492 986 672 908 606 986 b 46 351 228 986 46 658 b 303 -56 46 53 151 -56 b 525 101 400 -56 483 14 b 575 -47 529 -11 526 -47 b 646 -14 606 -47 646 -32 b 642 -4 646 -11 644 -8 b 629 300 636 40 629 118 b 647 526 629 408 640 490 b 604 563 653 553 626 563 b 547 535 578 563 550 553 b 315 53 519 317 478 53 b 157 354 196 53 157 181 b 485 881 157 572 269 881 b 563 804 538 881 563 842 b 340 635 563 700 440 635 b 288 649 300 635 297 649 b 272 604 278 649 272 624 b 333 535 272 558 300 535 z m 508 1228 b 461 1267 497 1254 494 1267 b 397 1229 438 1267 414 1254 l 300 1090 b 297 1085 299 1089 297 1088 b 357 1042 297 1065 332 1042 b 390 1065 378 1042 383 1053 l 450 1161 l 518 1056 b 549 1042 522 1049 533 1042 b 611 1074 586 1042 611 1058 b 600 1094 611 1081 606 1088 z "},"â":{"ha":492,"x_min":0,"x_max":0,"o":"m 442 53 b 394 117 408 53 394 86 l 394 346 b 319 407 394 379 365 407 b 283 383 300 407 283 397 b 289 339 283 374 289 365 l 289 125 b 211 53 274 86 249 53 b 132 167 163 53 132 94 b 361 457 132 367 256 457 b 401 454 375 457 389 454 b 419 486 415 454 419 463 b 356 544 419 522 393 544 b 25 171 186 544 25 403 b 190 -39 25 53 82 -39 b 310 18 243 -39 282 -14 b 417 -39 331 -15 368 -39 b 615 178 536 -39 592 86 b 617 188 617 183 617 186 b 568 244 617 214 590 244 b 535 203 554 244 540 232 b 442 53 522 142 497 53 z m 344 800 b 297 839 333 826 331 839 b 233 801 274 839 250 826 l 136 663 b 133 657 135 661 133 660 b 193 614 133 638 168 614 b 226 638 214 614 219 625 l 286 733 l 354 628 b 385 614 358 621 369 614 b 447 646 422 614 447 631 b 436 667 447 653 442 660 z "},"Ã":{"ha":689,"x_min":0,"x_max":0,"o":"m 333 535 b 672 810 503 535 672 650 b 492 986 672 908 606 986 b 46 351 228 986 46 658 b 303 -56 46 53 151 -56 b 525 101 400 -56 483 14 b 575 -47 529 -11 526 -47 b 646 -14 606 -47 646 -32 b 642 -4 646 -11 644 -8 b 629 300 636 40 629 118 b 647 526 629 408 640 490 b 604 563 653 553 626 563 b 547 535 578 563 550 553 b 315 53 519 317 478 53 b 157 354 196 53 157 181 b 485 881 157 572 269 881 b 563 804 538 881 563 842 b 340 635 563 700 440 635 b 288 649 300 635 297 649 b 272 604 278 649 272 624 b 333 535 272 558 300 535 z m 363 1088 b 399 1139 367 1111 372 1139 b 528 1063 419 1139 454 1063 b 638 1196 575 1063 638 1107 b 590 1221 638 1208 613 1221 b 553 1193 575 1221 553 1214 b 525 1150 553 1167 543 1150 b 386 1224 482 1150 461 1224 b 281 1097 324 1224 281 1151 b 331 1069 281 1082 307 1069 b 363 1088 344 1069 363 1075 z "},"ã":{"ha":492,"x_min":0,"x_max":0,"o":"m 442 53 b 394 117 408 53 394 86 l 394 346 b 319 407 394 379 365 407 b 283 383 300 407 283 397 b 289 339 283 374 289 365 l 289 125 b 211 53 274 86 249 53 b 132 167 163 53 132 94 b 361 457 132 367 256 457 b 401 454 375 457 389 454 b 419 486 415 454 419 463 b 356 544 419 522 393 544 b 25 171 186 544 25 403 b 190 -39 25 53 82 -39 b 310 18 243 -39 282 -14 b 417 -39 331 -15 368 -39 b 615 178 536 -39 592 86 b 617 188 617 183 617 186 b 568 244 617 214 590 244 b 535 203 554 244 540 232 b 442 53 522 142 497 53 z m 199 660 b 235 711 203 683 208 711 b 364 635 256 711 290 635 b 474 768 411 635 474 679 b 426 793 474 781 449 793 b 389 765 411 793 389 786 b 361 722 389 739 379 722 b 222 796 318 722 297 796 b 117 669 160 796 117 724 b 167 642 117 654 143 642 b 199 660 181 642 199 647 z "},"Ä":{"ha":689,"x_min":0,"x_max":0,"o":"m 333 535 b 672 810 503 535 672 650 b 492 986 672 908 606 986 b 46 351 228 986 46 658 b 303 -56 46 53 151 -56 b 525 101 400 -56 483 14 b 575 -47 529 -11 526 -47 b 646 -14 606 -47 646 -32 b 642 -4 646 -11 644 -8 b 629 300 636 40 629 118 b 647 526 629 408 640 490 b 604 563 653 553 626 563 b 547 535 578 563 550 553 b 315 53 519 317 478 53 b 157 354 196 53 157 181 b 485 881 157 572 269 881 b 563 804 538 881 563 842 b 340 635 563 700 440 635 b 288 649 300 635 297 649 b 272 604 278 649 272 624 b 333 535 272 558 300 535 z m 289 1135 b 354 1069 289 1099 318 1069 b 419 1135 390 1069 419 1099 b 354 1200 419 1171 390 1200 b 289 1135 318 1200 289 1171 z m 489 1135 b 554 1069 489 1099 518 1069 b 619 1135 590 1069 619 1099 b 554 1200 619 1171 590 1200 b 489 1135 518 1200 489 1171 z "},"ä":{"ha":492,"x_min":0,"x_max":0,"o":"m 442 53 b 394 117 408 53 394 86 l 394 346 b 319 407 394 379 365 407 b 283 383 300 407 283 397 b 289 339 283 374 289 365 l 289 125 b 211 53 274 86 249 53 b 132 167 163 53 132 94 b 361 457 132 367 256 457 b 401 454 375 457 389 454 b 419 486 415 454 419 463 b 356 544 419 522 393 544 b 25 171 186 544 25 403 b 190 -39 25 53 82 -39 b 310 18 243 -39 282 -14 b 417 -39 331 -15 368 -39 b 615 178 536 -39 592 86 b 617 188 617 183 617 186 b 568 244 617 214 590 244 b 535 203 554 244 540 232 b 442 53 522 142 497 53 z m 125 707 b 190 642 125 671 154 642 b 256 707 226 642 256 671 b 190 772 256 743 226 772 b 125 707 154 772 125 743 z m 325 707 b 390 642 325 671 354 642 b 456 707 426 642 456 671 b 390 772 456 743 426 772 b 325 707 354 772 325 743 z "},"Å":{"ha":689,"x_min":0,"x_max":0,"o":"m 333 535 b 672 810 503 535 672 650 b 492 986 672 908 606 986 b 46 351 228 986 46 658 b 303 -56 46 53 151 -56 b 525 101 400 -56 483 14 b 575 -47 529 -11 526 -47 b 646 -14 606 -47 646 -32 b 642 -4 646 -11 644 -8 b 629 300 636 40 629 118 b 647 526 629 408 640 490 b 604 563 653 553 626 563 b 547 535 578 563 550 553 b 315 53 519 317 478 53 b 157 354 196 53 157 181 b 485 881 157 572 269 881 b 563 804 538 881 563 842 b 340 635 563 700 440 635 b 288 649 300 635 297 649 b 272 604 278 649 272 624 b 333 535 272 558 300 535 z m 311 1171 b 454 1028 311 1092 375 1028 b 597 1171 533 1028 597 1092 b 454 1314 597 1250 533 1314 b 311 1171 375 1314 311 1250 z m 393 1171 b 454 1232 393 1204 419 1232 b 515 1171 488 1232 515 1204 b 454 1110 515 1136 488 1110 b 393 1171 419 1110 393 1136 z "},"å":{"ha":492,"x_min":0,"x_max":0,"o":"m 442 53 b 394 117 408 53 394 86 l 394 346 b 319 407 394 379 365 407 b 283 383 300 407 283 397 b 289 339 283 374 289 365 l 289 125 b 211 53 274 86 249 53 b 132 167 163 53 132 94 b 361 457 132 367 256 457 b 401 454 375 457 389 454 b 419 486 415 454 419 463 b 356 544 419 522 393 544 b 25 171 186 544 25 403 b 190 -39 25 53 82 -39 b 310 18 243 -39 282 -14 b 417 -39 331 -15 368 -39 b 615 178 536 -39 592 86 b 617 188 617 183 617 186 b 568 244 617 214 590 244 b 535 203 554 244 540 232 b 442 53 522 142 497 53 z m 147 743 b 290 600 147 664 211 600 b 433 743 369 600 433 664 b 290 886 433 822 369 886 b 147 743 211 886 147 822 z m 229 743 b 290 804 229 776 256 804 b 351 743 324 804 351 776 b 290 682 351 708 324 682 b 229 743 256 682 229 708 z "},"Æ":{"ha":1156,"x_min":0,"x_max":0,"o":"m 1124 100 b 1128 119 1126 106 1128 113 b 1071 188 1128 151 1099 188 b 1042 164 1060 188 1049 181 b 838 50 1024 125 954 50 b 701 171 760 50 701 100 b 850 321 701 281 792 314 b 883 393 867 322 883 363 b 860 426 883 411 876 426 b 847 425 856 426 851 426 b 707 611 786 431 707 507 b 965 889 707 744 826 889 b 1053 814 1017 889 1053 864 b 897 628 1053 725 989 628 b 844 642 857 628 854 642 b 829 592 835 642 829 611 b 906 525 829 542 871 525 b 1163 813 1043 525 1163 668 b 965 996 1163 914 1093 996 b 671 826 846 996 739 924 b 492 986 664 917 599 986 b 46 351 228 986 46 658 b 303 -56 46 53 151 -56 b 525 101 400 -56 483 14 b 575 -47 529 -11 526 -47 b 646 -14 606 -47 646 -32 b 642 -4 646 -11 644 -8 b 638 25 640 4 639 14 b 835 -60 683 -29 754 -60 b 1124 100 1013 -60 1100 60 z m 333 535 b 597 640 433 535 532 575 b 596 604 596 628 596 615 b 599 563 596 589 597 575 b 547 535 574 561 550 551 b 315 53 519 317 478 53 b 157 354 196 53 157 181 b 485 881 157 572 269 881 b 563 804 538 881 563 842 b 340 635 563 700 440 635 b 288 649 300 635 297 649 b 272 604 278 649 272 624 b 333 535 272 558 300 535 z m 629 300 b 636 454 629 361 632 413 b 717 378 658 419 688 396 b 629 299 683 360 651 333 z "},"æ":{"ha":668,"x_min":0,"x_max":0,"o":"m 179 -39 b 289 11 224 -39 260 -18 b 350 -39 293 -31 324 -39 b 390 8 383 -39 389 -15 b 532 -39 431 -22 481 -39 b 801 214 736 -39 792 129 b 717 228 807 263 729 290 b 547 53 700 143 656 53 b 418 139 475 53 438 92 b 624 404 553 179 624 301 b 499 544 624 488 576 544 b 413 515 468 544 439 535 b 356 544 401 533 381 544 b 25 171 186 544 25 403 b 179 -39 25 53 85 -39 z m 211 53 b 132 167 163 53 132 94 b 353 457 132 361 249 451 b 286 236 313 401 286 325 b 297 150 286 204 290 176 b 211 53 283 101 257 53 z m 400 240 b 486 451 397 299 418 451 b 515 403 504 451 515 433 b 401 215 515 319 471 247 b 400 240 401 224 400 232 z "},"Ǽ":{"ha":1156,"x_min":0,"x_max":0,"o":"m 1124 100 b 1128 119 1126 106 1128 113 b 1071 188 1128 151 1099 188 b 1042 164 1060 188 1049 181 b 838 50 1024 125 954 50 b 701 171 760 50 701 100 b 850 321 701 281 792 314 b 883 393 867 322 883 363 b 860 426 883 411 876 426 b 847 425 856 426 851 426 b 707 611 786 431 707 507 b 965 889 707 744 826 889 b 1053 814 1017 889 1053 864 b 897 628 1053 725 989 628 b 844 642 857 628 854 642 b 829 592 835 642 829 611 b 906 525 829 542 871 525 b 1163 813 1043 525 1163 668 b 965 996 1163 914 1093 996 b 671 826 846 996 739 924 b 492 986 664 917 599 986 b 46 351 228 986 46 658 b 303 -56 46 53 151 -56 b 525 101 400 -56 483 14 b 575 -47 529 -11 526 -47 b 646 -14 606 -47 646 -32 b 642 -4 646 -11 644 -8 b 638 25 640 4 639 14 b 835 -60 683 -29 754 -60 b 1124 100 1013 -60 1100 60 z m 333 535 b 597 640 433 535 532 575 b 596 604 596 628 596 615 b 599 563 596 589 597 575 b 547 535 574 561 550 551 b 315 53 519 317 478 53 b 157 354 196 53 157 181 b 485 881 157 572 269 881 b 563 804 538 881 563 842 b 340 635 563 700 440 635 b 288 649 300 635 297 649 b 272 604 278 649 272 624 b 333 535 272 558 300 535 z m 629 300 b 636 454 629 361 632 413 b 717 378 658 419 688 396 b 629 299 683 360 651 333 z m 838 1199 b 854 1226 844 1207 854 1214 b 797 1267 854 1250 824 1267 b 751 1240 778 1267 754 1256 l 625 1094 b 614 1074 619 1088 614 1081 b 668 1042 614 1058 631 1042 b 714 1067 683 1042 703 1049 z "},"ǽ":{"ha":668,"x_min":0,"x_max":0,"o":"m 179 -39 b 289 11 224 -39 260 -18 b 350 -39 293 -31 324 -39 b 390 8 383 -39 389 -15 b 532 -39 431 -22 481 -39 b 801 214 736 -39 792 129 b 717 228 807 263 729 290 b 547 53 700 143 656 53 b 418 139 475 53 438 92 b 624 404 553 179 624 301 b 499 544 624 488 576 544 b 413 515 468 544 439 535 b 356 544 401 533 381 544 b 25 171 186 544 25 403 b 179 -39 25 53 85 -39 z m 211 53 b 132 167 163 53 132 94 b 353 457 132 361 249 451 b 286 236 313 401 286 325 b 297 150 286 204 290 176 b 211 53 283 101 257 53 z m 400 240 b 486 451 397 299 418 451 b 515 403 504 451 515 433 b 401 215 515 319 471 247 b 400 240 401 224 400 232 z m 515 771 b 532 799 522 779 532 786 b 475 839 532 822 501 839 b 429 813 456 839 432 828 l 303 667 b 292 646 297 660 292 653 b 346 614 292 631 308 614 b 392 639 361 614 381 621 z "},"Ā":{"ha":689,"x_min":0,"x_max":0,"o":"m 333 535 b 672 810 503 535 672 650 b 492 986 672 908 606 986 b 46 351 228 986 46 658 b 303 -56 46 53 151 -56 b 525 101 400 -56 483 14 b 575 -47 529 -11 526 -47 b 646 -14 606 -47 646 -32 b 642 -4 646 -11 644 -8 b 629 300 636 40 629 118 b 647 526 629 408 640 490 b 604 563 653 553 626 563 b 547 535 578 563 550 553 b 315 53 519 317 478 53 b 157 354 196 53 157 181 b 485 881 157 572 269 881 b 563 804 538 881 563 842 b 340 635 563 700 440 635 b 288 649 300 635 297 649 b 272 604 278 649 272 624 b 333 535 272 558 300 535 z m 344 1169 b 294 1110 313 1169 294 1147 b 331 1078 294 1090 306 1078 l 571 1078 b 578 1076 574 1076 576 1076 b 614 1133 600 1076 614 1107 b 583 1169 614 1157 607 1172 z "},"ā":{"ha":492,"x_min":0,"x_max":0,"o":"m 442 53 b 394 117 408 53 394 86 l 394 346 b 319 407 394 379 365 407 b 283 383 300 407 283 397 b 289 339 283 374 289 365 l 289 125 b 211 53 274 86 249 53 b 132 167 163 53 132 94 b 361 457 132 367 256 457 b 401 454 375 457 389 454 b 419 486 415 454 419 463 b 356 544 419 522 393 544 b 25 171 186 544 25 403 b 190 -39 25 53 82 -39 b 310 18 243 -39 282 -14 b 417 -39 331 -15 368 -39 b 615 178 536 -39 592 86 b 617 188 617 183 617 186 b 568 244 617 214 590 244 b 535 203 554 244 540 232 b 442 53 522 142 497 53 z m 181 742 b 131 682 149 742 131 719 b 167 650 131 663 142 650 l 407 650 b 414 649 410 649 413 649 b 450 706 436 649 450 679 b 419 742 450 729 443 744 z "},"Ă":{"ha":689,"x_min":0,"x_max":0,"o":"m 333 535 b 672 810 503 535 672 650 b 492 986 672 908 606 986 b 46 351 228 986 46 658 b 303 -56 46 53 151 -56 b 525 101 400 -56 483 14 b 575 -47 529 -11 526 -47 b 646 -14 606 -47 646 -32 b 642 -4 646 -11 644 -8 b 629 300 636 40 629 118 b 647 526 629 408 640 490 b 604 563 653 553 626 563 b 547 535 578 563 550 553 b 315 53 519 317 478 53 b 157 354 196 53 157 181 b 485 881 157 572 269 881 b 563 804 538 881 563 842 b 340 635 563 700 440 635 b 288 649 300 635 297 649 b 272 604 278 649 272 624 b 333 535 272 558 300 535 z m 456 1056 b 613 1211 503 1056 613 1075 b 554 1253 613 1231 579 1253 b 519 1228 533 1253 522 1239 b 454 1140 519 1196 521 1140 b 379 1239 386 1140 382 1199 b 349 1253 375 1246 364 1253 b 286 1221 311 1253 286 1236 b 456 1056 286 1090 388 1056 z "},"ă":{"ha":492,"x_min":0,"x_max":0,"o":"m 442 53 b 394 117 408 53 394 86 l 394 346 b 319 407 394 379 365 407 b 283 383 300 407 283 397 b 289 339 283 374 289 365 l 289 125 b 211 53 274 86 249 53 b 132 167 163 53 132 94 b 361 457 132 367 256 457 b 401 454 375 457 389 454 b 419 486 415 454 419 463 b 356 544 419 522 393 544 b 25 171 186 544 25 403 b 190 -39 25 53 82 -39 b 310 18 243 -39 282 -14 b 417 -39 331 -15 368 -39 b 615 178 536 -39 592 86 b 617 188 617 183 617 186 b 568 244 617 214 590 244 b 535 203 554 244 540 232 b 442 53 522 142 497 53 z m 292 628 b 449 783 339 628 449 647 b 390 825 449 803 415 825 b 356 800 369 825 358 811 b 290 713 356 768 357 713 b 215 811 222 713 218 771 b 185 825 211 818 200 825 b 122 793 147 825 122 808 b 292 628 122 663 224 628 z "},"Ą":{"ha":689,"x_min":0,"x_max":0,"o":"m 333 535 b 672 810 503 535 672 650 b 492 986 672 908 606 986 b 46 351 228 986 46 658 b 303 -56 46 53 151 -56 b 525 101 400 -56 483 14 b 532 -10 526 49 528 13 b 425 -182 479 -47 425 -112 b 575 -300 425 -232 464 -300 b 683 -240 654 -300 683 -282 b 664 -207 683 -228 676 -200 b 582 -219 644 -217 603 -219 b 518 -169 533 -219 518 -196 b 633 -36 518 -112 579 -57 b 646 -14 643 -32 649 -25 b 629 300 622 88 629 197 b 647 526 629 408 640 490 b 604 563 653 553 626 563 b 547 535 578 563 550 553 b 315 53 519 317 478 53 b 157 354 196 53 157 181 b 485 881 157 572 269 881 b 563 804 538 881 563 842 b 340 635 563 700 440 635 b 288 649 300 635 297 649 b 272 604 278 649 272 624 b 333 535 272 558 300 535 z "},"ą":{"ha":492,"x_min":0,"x_max":0,"o":"m 442 53 b 394 117 408 53 394 86 l 394 346 b 319 407 394 379 365 407 b 283 383 300 407 283 397 b 289 339 283 374 289 365 l 289 125 b 211 53 274 86 249 53 b 132 167 163 53 132 94 b 361 457 132 367 256 457 b 401 454 375 457 389 454 b 419 486 415 454 419 463 b 356 544 419 522 393 544 b 25 171 186 544 25 403 b 190 -39 25 53 82 -39 b 310 18 243 -39 282 -14 b 372 -32 321 -1 346 -22 b 308 -151 331 -71 308 -106 b 458 -269 308 -201 347 -269 b 567 -210 538 -269 567 -251 b 547 -176 567 -197 560 -169 b 465 -189 528 -186 486 -189 b 401 -139 417 -189 401 -165 b 515 -3 401 -82 460 -47 b 615 178 569 40 599 117 b 617 188 617 183 617 186 b 568 244 617 214 590 244 b 535 203 554 244 540 232 b 442 53 522 142 497 53 z "},"Ç":{"ha":678,"x_min":0,"x_max":0,"o":"m 314 578 b 261 592 274 578 271 592 b 246 547 251 592 246 567 b 307 481 246 501 274 481 b 675 807 461 481 675 636 b 499 990 675 928 599 990 b 46 383 222 990 46 654 b 318 -54 46 136 147 -29 b 299 -128 311 -78 299 -117 b 411 -204 299 -193 411 -136 b 331 -264 411 -242 379 -264 b 257 -251 310 -264 276 -261 b 238 -285 244 -244 238 -272 b 346 -344 238 -326 267 -344 b 496 -212 457 -344 496 -262 b 383 -92 496 -175 481 -108 l 396 -56 b 638 58 544 -43 633 54 b 567 131 671 92 603 190 b 374 47 564 129 492 47 b 157 383 214 47 157 211 b 481 889 157 610 297 889 b 565 811 544 889 565 843 b 314 578 565 693 417 578 z "},"ç":{"ha":413,"x_min":0,"x_max":0,"o":"m 281 -43 b 282 -39 281 -42 281 -40 b 546 214 476 -32 536 131 b 461 228 551 263 474 290 b 286 53 444 143 394 53 b 144 224 204 53 144 114 b 244 451 144 349 193 451 b 301 376 292 451 294 400 b 389 408 293 328 389 356 b 257 544 389 457 353 544 b 31 224 125 544 31 383 b 206 -31 31 82 108 -4 b 181 -122 203 -40 181 -107 b 293 -199 181 -187 293 -131 b 213 -258 293 -236 261 -258 b 139 -246 192 -258 158 -256 b 119 -279 126 -239 119 -267 b 228 -339 119 -321 149 -339 b 378 -207 339 -339 378 -257 b 265 -86 378 -169 363 -103 z "},"Ć":{"ha":678,"x_min":0,"x_max":0,"o":"m 314 578 b 261 592 274 578 271 592 b 246 547 251 592 246 567 b 307 481 246 501 274 481 b 675 807 461 481 675 636 b 499 990 675 928 599 990 b 46 383 222 990 46 654 b 364 -57 46 115 165 -57 b 638 58 532 -57 633 54 b 567 131 671 92 603 190 b 374 47 564 129 492 47 b 157 383 214 47 157 211 b 481 889 157 610 297 889 b 565 811 544 889 565 843 b 314 578 565 693 417 578 z m 594 1203 b 611 1231 601 1211 611 1218 b 554 1271 611 1254 581 1271 b 508 1244 535 1271 511 1260 l 382 1099 b 371 1078 376 1092 371 1085 b 425 1046 371 1063 388 1046 b 471 1071 440 1046 460 1053 z "},"ć":{"ha":413,"x_min":0,"x_max":0,"o":"m 271 -39 b 546 214 475 -39 536 129 b 461 228 551 263 474 290 b 286 53 444 143 394 53 b 144 224 204 53 144 114 b 244 451 144 349 193 451 b 301 376 292 451 294 400 b 389 408 293 328 389 356 b 257 544 389 457 353 544 b 31 224 125 544 31 383 b 271 -39 31 53 147 -39 z m 392 771 b 408 799 399 779 408 786 b 351 839 408 822 378 839 b 306 813 332 839 308 828 l 179 667 b 168 646 174 660 168 653 b 222 614 168 631 185 614 b 268 639 238 614 257 621 z "},"Ĉ":{"ha":678,"x_min":0,"x_max":0,"o":"m 314 578 b 261 592 274 578 271 592 b 246 547 251 592 246 567 b 307 481 246 501 274 481 b 675 807 461 481 675 636 b 499 990 675 928 599 990 b 46 383 222 990 46 654 b 364 -57 46 115 165 -57 b 638 58 532 -57 633 54 b 567 131 671 92 603 190 b 374 47 564 129 492 47 b 157 383 214 47 157 211 b 481 889 157 610 297 889 b 565 811 544 889 565 843 b 314 578 565 693 417 578 z m 524 1232 b 476 1271 513 1258 510 1271 b 413 1233 453 1271 429 1258 l 315 1094 b 313 1089 314 1093 313 1092 b 372 1046 313 1069 347 1046 b 406 1069 393 1046 399 1057 l 465 1165 l 533 1060 b 564 1046 538 1053 549 1046 b 626 1078 601 1046 626 1063 b 615 1099 626 1085 621 1092 z "},"ĉ":{"ha":413,"x_min":0,"x_max":0,"o":"m 271 -39 b 546 214 475 -39 536 129 b 461 228 551 263 474 290 b 286 53 444 143 394 53 b 144 224 204 53 144 114 b 244 451 144 349 193 451 b 301 376 292 451 294 400 b 389 408 293 328 389 356 b 257 544 389 457 353 544 b 31 224 125 544 31 383 b 271 -39 31 53 147 -39 z m 321 800 b 274 839 310 826 307 839 b 210 801 250 839 226 826 l 113 663 b 110 657 111 661 110 660 b 169 614 110 638 144 614 b 203 638 190 614 196 625 l 263 733 l 331 628 b 361 614 335 621 346 614 b 424 646 399 614 424 631 b 413 667 424 653 418 660 z "},"Ċ":{"ha":678,"x_min":0,"x_max":0,"o":"m 314 578 b 261 592 274 578 271 592 b 246 547 251 592 246 567 b 307 481 246 501 274 481 b 675 807 461 481 675 636 b 499 990 675 928 599 990 b 46 383 222 990 46 654 b 364 -57 46 115 165 -57 b 638 58 532 -57 633 54 b 567 131 671 92 603 190 b 374 47 564 129 492 47 b 157 383 214 47 157 211 b 481 889 157 610 297 889 b 565 811 544 889 565 843 b 314 578 565 693 417 578 z m 400 1129 b 469 1060 400 1090 431 1060 b 539 1129 508 1060 539 1090 b 469 1199 539 1168 508 1199 b 400 1129 431 1199 400 1168 z "},"ċ":{"ha":413,"x_min":0,"x_max":0,"o":"m 271 -39 b 546 214 475 -39 536 129 b 461 228 551 263 474 290 b 286 53 444 143 394 53 b 144 224 204 53 144 114 b 244 451 144 349 193 451 b 301 376 292 451 294 400 b 389 408 293 328 389 356 b 257 544 389 457 353 544 b 31 224 125 544 31 383 b 271 -39 31 53 147 -39 z m 197 697 b 267 628 197 658 228 628 b 336 697 306 628 336 658 b 267 767 336 736 306 767 b 197 697 228 767 197 736 z "},"Č":{"ha":678,"x_min":0,"x_max":0,"o":"m 314 578 b 261 592 274 578 271 592 b 246 547 251 592 246 567 b 307 481 246 501 274 481 b 675 807 461 481 675 636 b 499 990 675 928 599 990 b 46 383 222 990 46 654 b 364 -57 46 115 165 -57 b 638 58 532 -57 633 54 b 567 131 671 92 603 190 b 374 47 564 129 492 47 b 157 383 214 47 157 211 b 481 889 157 610 297 889 b 565 811 544 889 565 843 b 314 578 565 693 417 578 z m 411 1085 b 478 1046 433 1056 440 1046 b 522 1083 501 1046 514 1058 l 611 1211 b 621 1229 613 1213 621 1224 b 563 1271 621 1249 588 1271 b 529 1247 542 1271 532 1258 l 469 1151 l 401 1257 b 371 1271 397 1264 386 1271 b 308 1239 333 1271 308 1254 b 319 1218 308 1232 314 1225 z "},"č":{"ha":413,"x_min":0,"x_max":0,"o":"m 271 -39 b 546 214 475 -39 536 129 b 461 228 551 263 474 290 b 286 53 444 143 394 53 b 144 224 204 53 144 114 b 244 451 144 349 193 451 b 301 376 292 451 294 400 b 389 408 293 328 389 356 b 257 544 389 457 353 544 b 31 224 125 544 31 383 b 271 -39 31 53 147 -39 z m 208 653 b 275 614 231 624 238 614 b 319 651 299 614 311 626 l 408 779 b 418 797 410 781 418 792 b 360 839 418 817 385 839 b 326 815 339 839 329 826 l 267 719 l 199 825 b 168 839 194 832 183 839 b 106 807 131 839 106 822 b 117 786 106 800 111 793 z "},"Ď":{"ha":846,"x_min":0,"x_max":0,"o":"m 382 717 b 304 778 382 750 350 778 b 268 754 285 778 268 768 b 274 710 268 744 274 736 l 274 178 b 451 -53 274 31 321 -53 b 800 557 604 -53 800 163 b 429 994 800 781 688 994 b 25 565 186 994 25 818 b 140 264 25 369 136 267 b 161 257 147 258 154 257 b 228 339 193 257 228 303 b 207 358 228 353 222 363 b 133 574 201 363 133 440 b 425 888 133 721 194 888 b 689 546 610 888 689 733 b 460 54 689 268 565 54 b 382 171 404 54 382 94 z m 385 1089 b 451 1050 407 1060 414 1050 b 496 1088 475 1050 488 1063 l 585 1215 b 594 1233 586 1217 594 1228 b 536 1275 594 1253 561 1275 b 503 1251 515 1275 506 1263 l 443 1156 l 375 1261 b 344 1275 371 1268 360 1275 b 282 1243 307 1275 282 1258 b 293 1222 282 1236 288 1229 z "},"ď":{"ha":619,"x_min":0,"x_max":0,"o":"m 204 -39 b 328 15 257 -39 297 -15 b 433 -39 349 -17 386 -39 b 632 178 553 -39 608 86 b 633 188 633 183 633 186 b 585 244 633 214 607 244 b 551 203 571 244 557 232 b 458 53 539 142 514 53 b 411 117 425 53 411 86 l 411 863 b 336 924 411 896 382 924 b 292 908 317 924 292 918 b 306 856 292 899 306 896 l 306 542 b 25 185 154 521 25 397 b 204 -39 25 39 96 -39 z m 225 53 b 132 194 176 53 132 94 b 306 450 132 368 215 433 l 306 107 b 225 53 288 76 261 53 z m 539 894 b 475 833 507 894 475 872 b 522 772 475 800 496 778 b 479 728 506 747 489 731 b 471 718 475 725 471 725 b 508 679 471 703 486 679 b 603 819 540 679 603 767 b 539 894 603 871 572 894 z "},"Ð":{"ha":846,"x_min":0,"x_max":0,"o":"m 238 499 b 188 439 206 499 188 476 b 224 407 188 419 199 407 l 274 407 l 274 178 b 451 -53 274 31 321 -53 b 800 557 604 -53 800 163 b 429 994 800 781 688 994 b 25 565 186 994 25 818 b 140 264 25 369 136 267 b 161 257 147 258 154 257 b 228 339 193 257 228 303 b 207 358 228 353 222 363 b 133 574 201 363 133 440 b 425 888 133 721 194 888 b 689 546 610 888 689 733 b 460 54 689 268 565 54 b 382 171 404 54 382 94 l 382 407 l 464 407 b 471 406 467 406 469 406 b 507 463 493 406 507 436 b 476 499 507 486 500 501 l 382 499 l 382 717 b 304 778 382 750 350 778 b 268 754 285 778 268 768 b 274 710 268 744 274 736 l 274 499 z "},"ð":{"ha":476,"x_min":0,"x_max":0,"o":"m 78 728 b 151 678 46 703 117 650 b 233 742 151 678 178 700 b 349 301 293 647 349 501 b 236 53 349 167 315 53 b 136 242 182 53 136 125 b 236 457 136 397 197 436 b 271 482 260 450 271 468 b 226 544 271 511 250 544 b 31 233 153 544 31 436 b 233 -39 31 94 100 -39 b 449 310 388 -39 449 122 b 313 800 449 528 386 688 b 413 871 342 821 375 844 b 365 953 442 892 371 1010 b 264 867 332 922 299 894 b 175 957 233 903 203 933 b 135 972 161 968 151 972 b 57 886 99 972 57 911 b 68 871 57 874 61 871 b 92 874 76 871 82 874 b 185 806 108 874 144 850 b 78 728 125 761 78 728 z "},"Đ":{"ha":846,"x_min":0,"x_max":0,"o":"m 238 499 b 188 439 206 499 188 476 b 224 407 188 419 199 407 l 274 407 l 274 178 b 451 -53 274 31 321 -53 b 800 557 604 -53 800 163 b 429 994 800 781 688 994 b 25 565 186 994 25 818 b 140 264 25 369 136 267 b 161 257 147 258 154 257 b 228 339 193 257 228 303 b 207 358 228 353 222 363 b 133 574 201 363 133 440 b 425 888 133 721 194 888 b 689 546 610 888 689 733 b 460 54 689 268 565 54 b 382 171 404 54 382 94 l 382 407 l 464 407 b 471 406 467 406 469 406 b 507 463 493 406 507 436 b 476 499 507 486 500 501 l 382 499 l 382 717 b 304 778 382 750 350 778 b 268 754 285 778 268 768 b 274 710 268 744 274 736 l 274 499 z "},"đ":{"ha":508,"x_min":0,"x_max":0,"o":"m 204 -39 b 328 15 257 -39 297 -15 b 433 -39 349 -17 386 -39 b 632 178 553 -39 608 86 b 633 188 633 183 633 186 b 585 244 633 214 607 244 b 551 203 571 244 557 232 b 458 53 539 142 514 53 b 411 117 425 53 411 86 l 411 638 l 454 638 b 461 636 457 636 460 636 b 497 693 483 636 497 667 b 467 729 497 717 490 732 l 411 729 l 411 863 b 336 924 411 896 382 924 b 292 908 317 924 292 918 b 306 856 292 899 306 896 l 306 729 l 214 729 b 164 669 182 729 164 707 b 200 638 164 650 175 638 l 306 638 l 306 542 b 25 185 154 521 25 397 b 204 -39 25 39 96 -39 z m 225 53 b 132 194 176 53 132 94 b 306 450 132 368 215 433 l 306 107 b 225 53 288 76 261 53 z "},"È":{"ha":619,"x_min":0,"x_max":0,"o":"m 588 100 b 592 119 590 106 592 113 b 535 188 592 151 563 188 b 506 164 524 188 513 181 b 301 50 488 125 418 50 b 165 171 224 50 165 100 b 314 321 165 281 256 314 b 347 393 331 322 347 363 b 324 426 347 411 340 426 b 311 425 319 426 315 426 b 171 611 250 431 171 507 b 429 889 171 744 290 889 b 517 814 481 889 517 864 b 361 628 517 725 453 628 b 308 642 321 628 318 642 b 293 592 299 642 293 611 b 369 525 293 542 335 525 b 626 813 507 525 626 668 b 429 996 626 914 557 996 b 60 604 226 996 60 789 b 181 378 60 483 119 415 b 54 168 114 343 54 269 b 299 -60 54 24 165 -60 b 588 100 476 -60 564 60 z m 401 1065 b 432 1051 406 1058 417 1051 b 494 1083 469 1051 494 1068 b 483 1104 494 1090 489 1097 l 357 1250 b 317 1276 347 1264 336 1276 b 260 1232 299 1276 260 1258 b 271 1208 260 1225 264 1217 z "},"è":{"ha":413,"x_min":0,"x_max":0,"o":"m 368 404 b 243 544 368 488 321 544 b 31 236 136 544 31 413 b 276 -39 31 63 150 -39 b 546 214 481 -39 536 129 b 461 228 551 263 474 290 b 292 53 444 143 400 53 b 163 139 219 53 182 92 b 368 404 297 179 368 301 z m 144 240 b 231 451 142 299 163 451 b 260 403 249 451 260 433 b 146 215 260 319 215 247 b 144 240 146 224 144 232 z m 243 628 b 274 614 247 621 258 614 b 336 646 311 614 336 631 b 325 667 336 653 331 660 l 199 813 b 158 839 189 826 178 839 b 101 794 140 839 101 821 b 113 771 101 788 106 779 z "},"É":{"ha":619,"x_min":0,"x_max":0,"o":"m 588 100 b 592 119 590 106 592 113 b 535 188 592 151 563 188 b 506 164 524 188 513 181 b 301 50 488 125 418 50 b 165 171 224 50 165 100 b 314 321 165 281 256 314 b 347 393 331 322 347 363 b 324 426 347 411 340 426 b 311 425 319 426 315 426 b 171 611 250 431 171 507 b 429 889 171 744 290 889 b 517 814 481 889 517 864 b 361 628 517 725 453 628 b 308 642 321 628 318 642 b 293 592 299 642 293 611 b 369 525 293 542 335 525 b 626 813 507 525 626 668 b 429 996 626 914 557 996 b 60 604 226 996 60 789 b 181 378 60 483 119 415 b 54 168 114 343 54 269 b 299 -60 54 24 165 -60 b 588 100 476 -60 564 60 z m 526 1208 b 543 1236 533 1217 543 1224 b 486 1276 543 1260 513 1276 b 440 1250 467 1276 443 1265 l 314 1104 b 303 1083 308 1097 303 1090 b 357 1051 303 1068 319 1051 b 403 1076 372 1051 392 1058 z "},"é":{"ha":413,"x_min":0,"x_max":0,"o":"m 368 404 b 243 544 368 488 321 544 b 31 236 136 544 31 413 b 276 -39 31 63 150 -39 b 546 214 481 -39 536 129 b 461 228 551 263 474 290 b 292 53 444 143 400 53 b 163 139 219 53 182 92 b 368 404 297 179 368 301 z m 144 240 b 231 451 142 299 163 451 b 260 403 249 451 260 433 b 146 215 260 319 215 247 b 144 240 146 224 144 232 z m 368 771 b 385 799 375 779 385 786 b 328 839 385 822 354 839 b 282 813 308 839 285 828 l 156 667 b 144 646 150 660 144 653 b 199 614 144 631 161 614 b 244 639 214 614 233 621 z "},"Ê":{"ha":619,"x_min":0,"x_max":0,"o":"m 588 100 b 592 119 590 106 592 113 b 535 188 592 151 563 188 b 506 164 524 188 513 181 b 301 50 488 125 418 50 b 165 171 224 50 165 100 b 314 321 165 281 256 314 b 347 393 331 322 347 363 b 324 426 347 411 340 426 b 311 425 319 426 315 426 b 171 611 250 431 171 507 b 429 889 171 744 290 889 b 517 814 481 889 517 864 b 361 628 517 725 453 628 b 308 642 321 628 318 642 b 293 592 299 642 293 611 b 369 525 293 542 335 525 b 626 813 507 525 626 668 b 429 996 626 914 557 996 b 60 604 226 996 60 789 b 181 378 60 483 119 415 b 54 168 114 343 54 269 b 299 -60 54 24 165 -60 b 588 100 476 -60 564 60 z m 456 1238 b 408 1276 444 1264 442 1276 b 344 1239 385 1276 361 1264 l 247 1100 b 244 1094 246 1099 244 1097 b 304 1051 244 1075 279 1051 b 338 1075 325 1051 331 1063 l 397 1171 l 465 1065 b 496 1051 469 1058 481 1051 b 558 1083 533 1051 558 1068 b 547 1104 558 1090 553 1097 z "},"ê":{"ha":413,"x_min":0,"x_max":0,"o":"m 368 404 b 243 544 368 488 321 544 b 31 236 136 544 31 413 b 276 -39 31 63 150 -39 b 546 214 481 -39 536 129 b 461 228 551 263 474 290 b 292 53 444 143 400 53 b 163 139 219 53 182 92 b 368 404 297 179 368 301 z m 144 240 b 231 451 142 299 163 451 b 260 403 249 451 260 433 b 146 215 260 319 215 247 b 144 240 146 224 144 232 z m 297 800 b 250 839 286 826 283 839 b 186 801 226 839 203 826 l 89 663 b 86 657 88 661 86 660 b 146 614 86 638 121 614 b 179 638 167 614 172 625 l 239 733 l 307 628 b 338 614 311 621 322 614 b 400 646 375 614 400 631 b 389 667 400 653 394 660 z "},"Ë":{"ha":619,"x_min":0,"x_max":0,"o":"m 588 100 b 592 119 590 106 592 113 b 535 188 592 151 563 188 b 506 164 524 188 513 181 b 301 50 488 125 418 50 b 165 171 224 50 165 100 b 314 321 165 281 256 314 b 347 393 331 322 347 363 b 324 426 347 411 340 426 b 311 425 319 426 315 426 b 171 611 250 431 171 507 b 429 889 171 744 290 889 b 517 814 481 889 517 864 b 361 628 517 725 453 628 b 308 642 321 628 318 642 b 293 592 299 642 293 611 b 369 525 293 542 335 525 b 626 813 507 525 626 668 b 429 996 626 914 557 996 b 60 604 226 996 60 789 b 181 378 60 483 119 415 b 54 168 114 343 54 269 b 299 -60 54 24 165 -60 b 588 100 476 -60 564 60 z m 236 1144 b 301 1079 236 1108 265 1079 b 367 1144 338 1079 367 1108 b 301 1210 367 1181 338 1210 b 236 1144 265 1210 236 1181 z m 436 1144 b 501 1079 436 1108 465 1079 b 567 1144 538 1079 567 1108 b 501 1210 567 1181 538 1210 b 436 1144 465 1210 436 1181 z "},"ë":{"ha":413,"x_min":0,"x_max":0,"o":"m 368 404 b 243 544 368 488 321 544 b 31 236 136 544 31 413 b 276 -39 31 63 150 -39 b 546 214 481 -39 536 129 b 461 228 551 263 474 290 b 292 53 444 143 400 53 b 163 139 219 53 182 92 b 368 404 297 179 368 301 z m 144 240 b 231 451 142 299 163 451 b 260 403 249 451 260 433 b 146 215 260 319 215 247 b 144 240 146 224 144 232 z m 78 707 b 143 642 78 671 107 642 b 208 707 179 642 208 671 b 143 772 208 743 179 772 b 78 707 107 772 78 743 z m 278 707 b 343 642 278 671 307 642 b 408 707 379 642 408 671 b 343 772 408 743 379 772 b 278 707 307 772 278 743 z "},"Ē":{"ha":619,"x_min":0,"x_max":0,"o":"m 588 100 b 592 119 590 106 592 113 b 535 188 592 151 563 188 b 506 164 524 188 513 181 b 301 50 488 125 418 50 b 165 171 224 50 165 100 b 314 321 165 281 256 314 b 347 393 331 322 347 363 b 324 426 347 411 340 426 b 311 425 319 426 315 426 b 171 611 250 431 171 507 b 429 889 171 744 290 889 b 517 814 481 889 517 864 b 361 628 517 725 453 628 b 308 642 321 628 318 642 b 293 592 299 642 293 611 b 369 525 293 542 335 525 b 626 813 507 525 626 668 b 429 996 626 914 557 996 b 60 604 226 996 60 789 b 181 378 60 483 119 415 b 54 168 114 343 54 269 b 299 -60 54 24 165 -60 b 588 100 476 -60 564 60 z m 292 1179 b 242 1119 260 1179 242 1157 b 278 1088 242 1100 253 1088 l 518 1088 b 525 1086 521 1086 524 1086 b 561 1143 547 1086 561 1117 b 531 1179 561 1167 554 1182 z "},"ē":{"ha":413,"x_min":0,"x_max":0,"o":"m 368 404 b 243 544 368 488 321 544 b 31 236 136 544 31 413 b 276 -39 31 63 150 -39 b 546 214 481 -39 536 129 b 461 228 551 263 474 290 b 292 53 444 143 400 53 b 163 139 219 53 182 92 b 368 404 297 179 368 301 z m 144 240 b 231 451 142 299 163 451 b 260 403 249 451 260 433 b 146 215 260 319 215 247 b 144 240 146 224 144 232 z m 133 742 b 83 682 101 742 83 719 b 119 650 83 663 94 650 l 360 650 b 367 649 363 649 365 649 b 403 706 389 649 403 679 b 372 742 403 729 396 744 z "},"Ĕ":{"ha":619,"x_min":0,"x_max":0,"o":"m 588 100 b 592 119 590 106 592 113 b 535 188 592 151 563 188 b 506 164 524 188 513 181 b 301 50 488 125 418 50 b 165 171 224 50 165 100 b 314 321 165 281 256 314 b 347 393 331 322 347 363 b 324 426 347 411 340 426 b 311 425 319 426 315 426 b 171 611 250 431 171 507 b 429 889 171 744 290 889 b 517 814 481 889 517 864 b 361 628 517 725 453 628 b 308 642 321 628 318 642 b 293 592 299 642 293 611 b 369 525 293 542 335 525 b 626 813 507 525 626 668 b 429 996 626 914 557 996 b 60 604 226 996 60 789 b 181 378 60 483 119 415 b 54 168 114 343 54 269 b 299 -60 54 24 165 -60 b 588 100 476 -60 564 60 z m 403 1065 b 560 1221 450 1065 560 1085 b 501 1263 560 1240 526 1263 b 467 1238 481 1263 469 1249 b 401 1150 467 1206 468 1150 b 326 1249 333 1150 329 1208 b 296 1263 322 1256 311 1263 b 233 1231 258 1263 233 1246 b 403 1065 233 1100 335 1065 z "},"ĕ":{"ha":413,"x_min":0,"x_max":0,"o":"m 368 404 b 243 544 368 488 321 544 b 31 236 136 544 31 413 b 276 -39 31 63 150 -39 b 546 214 481 -39 536 129 b 461 228 551 263 474 290 b 292 53 444 143 400 53 b 163 139 219 53 182 92 b 368 404 297 179 368 301 z m 144 240 b 231 451 142 299 163 451 b 260 403 249 451 260 433 b 146 215 260 319 215 247 b 144 240 146 224 144 232 z m 244 628 b 401 783 292 628 401 647 b 343 825 401 803 368 825 b 308 800 322 825 311 811 b 243 713 308 768 310 713 b 168 811 175 713 171 771 b 138 825 164 818 153 825 b 75 793 100 825 75 808 b 244 628 75 663 176 628 z "},"Ė":{"ha":619,"x_min":0,"x_max":0,"o":"m 588 100 b 592 119 590 106 592 113 b 535 188 592 151 563 188 b 506 164 524 188 513 181 b 301 50 488 125 418 50 b 165 171 224 50 165 100 b 314 321 165 281 256 314 b 347 393 331 322 347 363 b 324 426 347 411 340 426 b 311 425 319 426 315 426 b 171 611 250 431 171 507 b 429 889 171 744 290 889 b 517 814 481 889 517 864 b 361 628 517 725 453 628 b 308 642 321 628 318 642 b 293 592 299 642 293 611 b 369 525 293 542 335 525 b 626 813 507 525 626 668 b 429 996 626 914 557 996 b 60 604 226 996 60 789 b 181 378 60 483 119 415 b 54 168 114 343 54 269 b 299 -60 54 24 165 -60 b 588 100 476 -60 564 60 z m 332 1135 b 401 1065 332 1096 363 1065 b 471 1135 440 1065 471 1096 b 401 1204 471 1174 440 1204 b 332 1135 363 1204 332 1174 z "},"ė":{"ha":413,"x_min":0,"x_max":0,"o":"m 368 404 b 243 544 368 488 321 544 b 31 236 136 544 31 413 b 276 -39 31 63 150 -39 b 546 214 481 -39 536 129 b 461 228 551 263 474 290 b 292 53 444 143 400 53 b 163 139 219 53 182 92 b 368 404 297 179 368 301 z m 144 240 b 231 451 142 299 163 451 b 260 403 249 451 260 433 b 146 215 260 319 215 247 b 144 240 146 224 144 232 z m 174 697 b 243 628 174 658 204 628 b 313 697 282 628 313 658 b 243 767 313 736 282 767 b 174 697 204 767 174 736 z "},"Ę":{"ha":619,"x_min":0,"x_max":0,"o":"m 588 100 b 592 119 590 106 592 113 b 535 188 592 151 563 188 b 506 164 524 188 513 181 b 301 50 488 125 418 50 b 165 171 224 50 165 100 b 314 321 165 281 256 314 b 347 393 331 322 347 363 b 324 426 347 411 340 426 b 311 425 319 426 315 426 b 171 611 250 431 171 507 b 429 889 171 744 290 889 b 517 814 481 889 517 864 b 361 628 517 725 453 628 b 308 642 321 628 318 642 b 293 592 299 642 293 611 b 369 525 293 542 335 525 b 626 813 507 525 626 668 b 429 996 626 914 557 996 b 60 604 226 996 60 789 b 181 378 60 483 119 415 b 54 168 114 343 54 269 b 289 -60 54 31 157 -56 b 239 -165 257 -94 239 -126 b 389 -283 239 -215 278 -283 b 497 -224 468 -283 497 -265 b 478 -190 497 -211 490 -183 b 396 -203 458 -200 417 -203 b 332 -153 347 -203 332 -179 b 449 -26 332 -104 397 -54 b 588 100 518 11 565 64 z "},"ę":{"ha":413,"x_min":0,"x_max":0,"o":"m 368 404 b 243 544 368 488 321 544 b 31 236 136 544 31 413 b 231 -35 31 89 118 -11 b 151 -168 178 -74 151 -117 b 301 -286 151 -218 190 -286 b 410 -226 381 -286 410 -268 b 390 -193 410 -214 403 -186 b 308 -206 371 -203 329 -206 b 244 -156 260 -206 244 -182 b 369 -25 244 -104 314 -46 b 546 214 479 15 532 104 b 461 228 551 263 474 290 b 292 53 444 143 400 53 b 163 139 219 53 182 92 b 368 404 297 179 368 301 z m 144 240 b 231 451 142 299 163 451 b 260 403 249 451 260 433 b 146 215 260 319 215 247 b 144 240 146 224 144 232 z "},"Ě":{"ha":619,"x_min":0,"x_max":0,"o":"m 588 100 b 592 119 590 106 592 113 b 535 188 592 151 563 188 b 506 164 524 188 513 181 b 301 50 488 125 418 50 b 165 171 224 50 165 100 b 314 321 165 281 256 314 b 347 393 331 322 347 363 b 324 426 347 411 340 426 b 311 425 319 426 315 426 b 171 611 250 431 171 507 b 429 889 171 744 290 889 b 517 814 481 889 517 864 b 361 628 517 725 453 628 b 308 642 321 628 318 642 b 293 592 299 642 293 611 b 369 525 293 542 335 525 b 626 813 507 525 626 668 b 429 996 626 914 557 996 b 60 604 226 996 60 789 b 181 378 60 483 119 415 b 54 168 114 343 54 269 b 299 -60 54 24 165 -60 b 588 100 476 -60 564 60 z m 343 1090 b 410 1051 365 1061 372 1051 b 454 1089 433 1051 446 1064 l 543 1217 b 553 1235 544 1218 553 1229 b 494 1276 553 1254 519 1276 b 461 1253 474 1276 464 1264 l 401 1157 l 333 1263 b 303 1276 329 1269 318 1276 b 240 1244 265 1276 240 1260 b 251 1224 240 1238 246 1231 z "},"ě":{"ha":413,"x_min":0,"x_max":0,"o":"m 368 404 b 243 544 368 488 321 544 b 31 236 136 544 31 413 b 276 -39 31 63 150 -39 b 546 214 481 -39 536 129 b 461 228 551 263 474 290 b 292 53 444 143 400 53 b 163 139 219 53 182 92 b 368 404 297 179 368 301 z m 144 240 b 231 451 142 299 163 451 b 260 403 249 451 260 433 b 146 215 260 319 215 247 b 144 240 146 224 144 232 z m 185 653 b 251 614 207 624 214 614 b 296 651 275 614 288 626 l 385 779 b 394 797 386 781 394 792 b 336 839 394 817 361 839 b 303 815 315 839 306 826 l 243 719 l 175 825 b 144 839 171 832 160 839 b 82 807 107 839 82 822 b 93 786 82 800 88 793 z "},"Ĝ":{"ha":713,"x_min":0,"x_max":0,"o":"m 532 81 b 535 -58 532 47 535 1 l 535 -72 b 279 -328 406 -111 279 -186 b 435 -492 279 -421 340 -492 b 638 -154 597 -492 631 -310 b 696 -151 657 -153 675 -151 b 714 -42 744 -150 779 -37 b 640 -49 692 -43 667 -44 b 639 169 640 36 639 104 b 647 379 639 239 640 304 b 575 432 647 410 600 432 b 531 404 551 432 531 431 b 533 358 531 394 533 372 b 319 53 533 244 461 53 b 163 378 231 53 163 178 b 482 890 163 621 308 890 b 567 813 546 890 567 844 b 394 642 567 724 465 642 b 342 656 354 642 351 656 b 326 606 332 656 326 625 b 388 539 326 560 354 539 b 676 819 508 539 676 668 b 500 992 676 926 600 992 b 47 376 224 992 47 653 b 317 -56 47 117 144 -56 b 532 81 401 -56 474 -6 z m 438 -385 b 388 -325 410 -385 388 -367 b 531 -175 388 -256 439 -204 b 438 -385 524 -286 500 -385 z m 536 1235 b 489 1274 525 1261 522 1274 b 425 1236 465 1274 442 1261 l 328 1097 b 325 1092 326 1096 325 1094 b 385 1049 325 1072 360 1049 b 418 1072 406 1049 411 1060 l 478 1168 l 546 1063 b 576 1049 550 1056 561 1049 b 639 1081 614 1049 639 1065 b 628 1101 639 1088 633 1094 z "},"ĝ":{"ha":489,"x_min":0,"x_max":0,"o":"m 132 -412 b 265 -572 132 -501 188 -572 b 410 -375 336 -572 410 -521 l 410 -135 b 613 174 485 -69 565 13 b 614 188 614 179 614 186 b 565 244 614 214 588 244 b 532 203 551 244 540 232 b 410 -18 504 107 460 38 l 410 360 b 335 421 410 393 381 421 b 299 397 315 421 299 411 b 304 353 299 388 304 379 l 304 196 b 211 67 294 140 267 67 b 132 181 163 67 132 108 b 361 471 132 381 256 471 b 401 468 375 471 389 468 b 419 500 415 468 419 476 b 356 558 419 536 393 558 b 25 185 186 558 25 417 b 190 -25 25 67 82 -25 b 304 25 239 -25 276 -3 l 304 -121 b 132 -412 213 -201 132 -272 z m 265 -485 b 229 -408 243 -485 229 -451 b 304 -226 229 -325 260 -272 l 304 -375 b 265 -485 304 -401 310 -485 z m 363 817 b 315 856 351 843 349 856 b 251 818 292 856 268 843 l 154 679 b 151 674 153 678 151 676 b 211 631 151 654 186 631 b 244 654 232 631 238 642 l 304 750 l 372 644 b 403 631 376 638 388 631 b 465 663 440 631 465 647 b 454 683 465 669 460 676 z "},"Ğ":{"ha":713,"x_min":0,"x_max":0,"o":"m 532 81 b 535 -58 532 47 535 1 l 535 -72 b 279 -328 406 -111 279 -186 b 435 -492 279 -421 340 -492 b 638 -154 597 -492 631 -310 b 696 -151 657 -153 675 -151 b 714 -42 744 -150 779 -37 b 640 -49 692 -43 667 -44 b 639 169 640 36 639 104 b 647 379 639 239 640 304 b 575 432 647 410 600 432 b 531 404 551 432 531 431 b 533 358 531 394 533 372 b 319 53 533 244 461 53 b 163 378 231 53 163 178 b 482 890 163 621 308 890 b 567 813 546 890 567 844 b 394 642 567 724 465 642 b 342 656 354 642 351 656 b 326 606 332 656 326 625 b 388 539 326 560 354 539 b 676 819 508 539 676 668 b 500 992 676 926 600 992 b 47 376 224 992 47 653 b 317 -56 47 117 144 -56 b 532 81 401 -56 474 -6 z m 438 -385 b 388 -325 410 -385 388 -367 b 531 -175 388 -256 439 -204 b 438 -385 524 -286 500 -385 z m 483 1063 b 640 1218 531 1063 640 1082 b 582 1260 640 1238 607 1260 b 547 1235 561 1260 550 1246 b 482 1147 547 1203 549 1147 b 407 1246 414 1147 410 1206 b 376 1260 403 1253 392 1260 b 314 1228 339 1260 314 1243 b 483 1063 314 1097 415 1063 z "},"ğ":{"ha":489,"x_min":0,"x_max":0,"o":"m 132 -412 b 265 -572 132 -501 188 -572 b 410 -375 336 -572 410 -521 l 410 -135 b 613 174 485 -69 565 13 b 614 188 614 179 614 186 b 565 244 614 214 588 244 b 532 203 551 244 540 232 b 410 -18 504 107 460 38 l 410 360 b 335 421 410 393 381 421 b 299 397 315 421 299 411 b 304 353 299 388 304 379 l 304 196 b 211 67 294 140 267 67 b 132 181 163 67 132 108 b 361 471 132 381 256 471 b 401 468 375 471 389 468 b 419 500 415 468 419 476 b 356 558 419 536 393 558 b 25 185 186 558 25 417 b 190 -25 25 67 82 -25 b 304 25 239 -25 276 -3 l 304 -121 b 132 -412 213 -201 132 -272 z m 265 -485 b 229 -408 243 -485 229 -451 b 304 -226 229 -325 260 -272 l 304 -375 b 265 -485 304 -401 310 -485 z m 310 644 b 467 800 357 644 467 664 b 408 842 467 819 433 842 b 374 817 388 842 376 828 b 308 729 374 785 375 729 b 233 828 240 729 236 788 b 203 842 229 835 218 842 b 140 810 165 842 140 825 b 310 644 140 679 242 644 z "},"Ġ":{"ha":713,"x_min":0,"x_max":0,"o":"m 532 81 b 535 -58 532 47 535 1 l 535 -72 b 279 -328 406 -111 279 -186 b 435 -492 279 -421 340 -492 b 638 -154 597 -492 631 -310 b 696 -151 657 -153 675 -151 b 714 -42 744 -150 779 -37 b 640 -49 692 -43 667 -44 b 639 169 640 36 639 104 b 647 379 639 239 640 304 b 575 432 647 410 600 432 b 531 404 551 432 531 431 b 533 358 531 394 533 372 b 319 53 533 244 461 53 b 163 378 231 53 163 178 b 482 890 163 621 308 890 b 567 813 546 890 567 844 b 394 642 567 724 465 642 b 342 656 354 642 351 656 b 326 606 332 656 326 625 b 388 539 326 560 354 539 b 676 819 508 539 676 668 b 500 992 676 926 600 992 b 47 376 224 992 47 653 b 317 -56 47 117 144 -56 b 532 81 401 -56 474 -6 z m 438 -385 b 388 -325 410 -385 388 -367 b 531 -175 388 -256 439 -204 b 438 -385 524 -286 500 -385 z m 413 1132 b 482 1063 413 1093 443 1063 b 551 1132 521 1063 551 1093 b 482 1201 551 1171 521 1201 b 413 1132 443 1201 413 1171 z "},"ġ":{"ha":489,"x_min":0,"x_max":0,"o":"m 132 -412 b 265 -572 132 -501 188 -572 b 410 -375 336 -572 410 -521 l 410 -135 b 613 174 485 -69 565 13 b 614 188 614 179 614 186 b 565 244 614 214 588 244 b 532 203 551 244 540 232 b 410 -18 504 107 460 38 l 410 360 b 335 421 410 393 381 421 b 299 397 315 421 299 411 b 304 353 299 388 304 379 l 304 196 b 211 67 294 140 267 67 b 132 181 163 67 132 108 b 361 471 132 381 256 471 b 401 468 375 471 389 468 b 419 500 415 468 419 476 b 356 558 419 536 393 558 b 25 185 186 558 25 417 b 190 -25 25 67 82 -25 b 304 25 239 -25 276 -3 l 304 -121 b 132 -412 213 -201 132 -272 z m 265 -485 b 229 -408 243 -485 229 -451 b 304 -226 229 -325 260 -272 l 304 -375 b 265 -485 304 -401 310 -485 z m 239 714 b 308 644 239 675 269 644 b 378 714 347 644 378 675 b 308 783 378 753 347 783 b 239 714 269 783 239 753 z "},"Ģ":{"ha":713,"x_min":0,"x_max":0,"o":"m 351 -469 b 435 -492 375 -485 403 -492 b 640 -68 629 -492 640 -231 b 639 169 640 26 639 100 b 647 379 639 239 640 304 b 575 432 647 410 600 432 b 531 404 551 432 531 431 b 533 358 531 394 533 372 b 319 53 533 244 461 53 b 163 378 231 53 163 178 b 482 890 163 621 308 890 b 567 813 546 890 567 844 b 394 642 567 724 465 642 b 342 656 354 642 351 656 b 326 606 332 656 326 625 b 388 539 326 560 354 539 b 676 819 508 539 676 668 b 500 992 676 926 600 992 b 47 376 224 992 47 653 b 317 -56 47 117 144 -56 b 532 81 401 -56 474 -6 b 535 -58 532 47 535 1 b 438 -385 535 -204 522 -385 b 414 -379 429 -385 421 -383 b 351 -469 399 -335 288 -428 z m 324 -112 b 260 -174 292 -112 260 -135 b 307 -235 260 -207 281 -229 b 264 -279 290 -260 274 -276 b 256 -289 260 -282 256 -282 b 293 -328 256 -304 271 -328 b 388 -187 325 -328 388 -240 b 324 -112 388 -136 357 -112 z "},"ģ":{"ha":489,"x_min":0,"x_max":0,"o":"m 132 -412 b 265 -572 132 -501 188 -572 b 410 -375 336 -572 410 -521 l 410 -135 b 613 174 485 -69 565 13 b 614 188 614 179 614 186 b 565 244 614 214 588 244 b 532 203 551 244 540 232 b 410 -18 504 107 460 38 l 410 360 b 335 421 410 393 381 421 b 299 397 315 421 299 411 b 304 353 299 388 304 379 l 304 196 b 211 67 294 140 267 67 b 132 181 163 67 132 108 b 361 471 132 381 256 471 b 401 468 375 471 389 468 b 419 500 415 468 419 476 b 356 558 419 536 393 558 b 25 185 186 558 25 417 b 190 -25 25 67 82 -25 b 304 25 239 -25 276 -3 l 304 -121 b 132 -412 213 -201 132 -272 z m 315 628 b 379 689 347 628 379 650 b 332 750 379 722 358 744 b 375 794 349 775 365 792 b 383 804 379 797 383 797 b 346 843 383 819 368 843 b 251 703 314 843 251 756 b 315 628 251 651 282 628 z m 265 -485 b 229 -408 243 -485 229 -451 b 304 -226 229 -325 260 -272 l 304 -375 b 265 -485 304 -401 310 -485 z "},"Ĥ":{"ha":942,"x_min":0,"x_max":0,"o":"m 538 914 b 482 972 538 947 511 972 b 25 560 271 972 25 854 b 142 278 25 407 93 313 b 233 357 182 249 233 299 b 225 379 233 367 232 379 b 208 372 218 379 217 372 b 135 564 190 372 135 447 b 429 868 135 750 258 868 l 429 419 l 301 419 b 281 392 288 419 281 407 b 331 322 281 363 301 322 l 429 322 l 429 1 b 499 -39 429 -19 467 -39 b 538 -7 519 -39 538 -31 l 538 322 l 754 322 l 754 1 b 824 -39 754 -19 792 -39 b 863 -7 844 -39 863 -31 l 863 864 b 900 968 863 981 900 947 b 826 1042 900 988 867 1042 b 754 893 788 1042 754 992 l 754 419 l 538 419 z m 665 1218 b 618 1257 654 1244 651 1257 b 554 1219 594 1257 571 1244 l 457 1081 b 454 1075 456 1079 454 1078 b 514 1032 454 1056 489 1032 b 547 1056 535 1032 540 1043 l 607 1151 l 675 1046 b 706 1032 679 1039 690 1032 b 768 1064 743 1032 768 1049 b 757 1085 768 1071 763 1078 z "},"ĥ":{"ha":511,"x_min":0,"x_max":0,"o":"m 49 22 b 115 -39 49 -29 88 -39 b 154 21 156 -39 154 -6 l 154 224 b 290 453 164 333 250 453 b 319 374 317 453 319 417 l 319 92 b 436 -39 319 21 363 -39 b 635 178 556 -39 610 86 b 554 203 646 222 571 288 b 461 53 542 142 517 53 b 425 117 425 53 425 104 l 425 404 b 310 544 425 468 403 544 b 154 407 242 544 192 485 l 154 863 b 79 924 154 896 125 924 b 35 908 60 924 35 918 b 49 856 35 899 49 896 z m 153 1167 b 106 1206 142 1193 139 1206 b 42 1168 82 1206 58 1193 l -56 1029 b -58 1024 -57 1028 -58 1026 b 1 981 -58 1004 -24 981 b 35 1004 22 981 28 992 l 94 1100 l 163 994 b 193 981 167 988 178 981 b 256 1013 231 981 256 997 b 244 1033 256 1019 250 1026 z "},"Ħ":{"ha":942,"x_min":0,"x_max":0,"o":"m 863 864 b 900 968 863 981 900 947 b 826 1042 900 988 867 1042 b 754 893 788 1042 754 992 l 754 674 l 538 674 l 538 914 b 482 972 538 947 511 972 b 25 560 271 972 25 854 b 142 278 25 407 93 313 b 233 357 182 249 233 299 b 225 379 233 367 232 379 b 208 372 218 379 217 372 b 135 564 190 372 135 447 b 429 868 135 750 258 868 l 429 674 l 367 674 b 317 614 335 674 317 651 b 353 582 317 594 328 582 l 429 582 l 429 1 b 499 -39 429 -19 467 -39 b 538 -7 519 -39 538 -31 l 538 322 l 754 322 l 754 1 b 824 -39 754 -19 792 -39 b 863 -7 844 -39 863 -31 l 863 582 l 906 582 b 913 581 908 581 911 581 b 949 638 935 581 949 611 b 918 674 949 661 942 676 l 863 674 z m 538 582 l 754 582 l 754 419 l 538 419 z "},"ħ":{"ha":511,"x_min":0,"x_max":0,"o":"m 49 22 b 115 -39 49 -29 88 -39 b 154 21 156 -39 154 -6 l 154 224 b 290 453 164 333 250 453 b 319 374 317 453 319 417 l 319 92 b 436 -39 319 21 363 -39 b 635 178 556 -39 610 86 b 554 203 646 222 571 288 b 461 53 542 142 517 53 b 425 117 425 53 425 104 l 425 404 b 310 544 425 468 403 544 b 154 407 242 544 192 485 l 154 638 l 260 638 b 267 636 263 636 265 636 b 303 693 289 636 303 667 b 272 729 303 717 296 732 l 154 729 l 154 863 b 79 924 154 896 125 924 b 35 908 60 924 35 918 b 49 856 35 899 49 896 l 49 729 l 19 729 b -31 669 -12 729 -31 707 b 6 638 -31 650 -19 638 l 49 638 z "},"Ì":{"ha":550,"x_min":0,"x_max":0,"o":"m 471 914 b 415 972 471 947 444 972 b 25 581 251 972 25 875 b 142 304 25 440 93 338 b 233 388 182 275 233 329 b 224 408 233 397 231 408 b 208 399 217 408 215 399 b 135 581 190 399 135 469 b 363 864 135 756 238 849 l 363 1 b 432 -39 363 -19 400 -39 b 471 -7 453 -39 471 -31 z m 386 1042 b 417 1028 390 1035 401 1028 b 479 1060 454 1028 479 1044 b 468 1081 479 1067 474 1074 l 342 1226 b 301 1253 332 1240 321 1253 b 244 1208 283 1253 244 1235 b 256 1185 244 1201 249 1193 z "},"ì":{"ha":240,"x_min":0,"x_max":0,"o":"m 154 469 b 79 531 154 503 125 531 b 43 507 60 531 43 521 b 49 463 43 497 49 489 l 49 92 b 165 -39 49 21 92 -39 b 364 178 285 -39 339 86 b 283 203 375 222 300 288 b 190 53 271 142 246 53 b 154 117 154 53 154 104 z m 101 621 b 132 607 106 614 117 607 b 194 639 169 607 194 624 b 183 660 194 646 189 653 l 57 806 b 17 832 47 819 36 832 b -40 788 -1 832 -40 814 b -29 764 -40 781 -36 772 z "},"Í":{"ha":550,"x_min":0,"x_max":0,"o":"m 471 914 b 415 972 471 947 444 972 b 25 581 251 972 25 875 b 142 304 25 440 93 338 b 233 388 182 275 233 329 b 224 408 233 397 231 408 b 208 399 217 408 215 399 b 135 581 190 399 135 469 b 363 864 135 756 238 849 l 363 1 b 432 -39 363 -19 400 -39 b 471 -7 453 -39 471 -31 z m 511 1185 b 528 1213 518 1193 528 1200 b 471 1253 528 1236 497 1253 b 425 1226 451 1253 428 1242 l 299 1081 b 288 1060 293 1074 288 1067 b 342 1028 288 1044 304 1028 b 388 1053 357 1028 376 1035 z "},"í":{"ha":240,"x_min":0,"x_max":0,"o":"m 154 469 b 79 531 154 503 125 531 b 43 507 60 531 43 521 b 49 463 43 497 49 489 l 49 92 b 165 -39 49 21 92 -39 b 364 178 285 -39 339 86 b 283 203 375 222 300 288 b 190 53 271 142 246 53 b 154 117 154 53 154 104 z m 226 764 b 243 792 233 772 243 779 b 186 832 243 815 213 832 b 140 806 167 832 143 821 l 14 660 b 3 639 8 653 3 646 b 57 607 3 624 19 607 b 103 632 72 607 92 614 z "},"Î":{"ha":550,"x_min":0,"x_max":0,"o":"m 471 914 b 415 972 471 947 444 972 b 25 581 251 972 25 875 b 142 304 25 440 93 338 b 233 388 182 275 233 329 b 224 408 233 397 231 408 b 208 399 217 408 215 399 b 135 581 190 399 135 469 b 363 864 135 756 238 849 l 363 1 b 432 -39 363 -19 400 -39 b 471 -7 453 -39 471 -31 z m 440 1214 b 393 1253 429 1240 426 1253 b 329 1215 369 1253 346 1240 l 232 1076 b 229 1071 231 1075 229 1074 b 289 1028 229 1051 264 1028 b 322 1051 310 1028 315 1039 l 382 1147 l 450 1042 b 481 1028 454 1035 465 1028 b 543 1060 518 1028 543 1044 b 532 1081 543 1067 538 1074 z "},"î":{"ha":240,"x_min":0,"x_max":0,"o":"m 154 469 b 79 531 154 503 125 531 b 43 507 60 531 43 521 b 49 463 43 497 49 489 l 49 92 b 165 -39 49 21 92 -39 b 364 178 285 -39 339 86 b 283 203 375 222 300 288 b 190 53 271 142 246 53 b 154 117 154 53 154 104 z m 156 793 b 108 832 144 819 142 832 b 44 794 85 832 61 819 l -53 656 b -56 650 -54 654 -56 653 b 4 607 -56 631 -21 607 b 38 631 25 607 31 618 l 97 726 l 165 621 b 196 607 169 614 181 607 b 258 639 233 607 258 624 b 247 660 258 646 253 653 z "},"Ï":{"ha":550,"x_min":0,"x_max":0,"o":"m 471 914 b 415 972 471 947 444 972 b 25 581 251 972 25 875 b 142 304 25 440 93 338 b 233 388 182 275 233 329 b 224 408 233 397 231 408 b 208 399 217 408 215 399 b 135 581 190 399 135 469 b 363 864 135 756 238 849 l 363 1 b 432 -39 363 -19 400 -39 b 471 -7 453 -39 471 -31 z m 221 1121 b 286 1056 221 1085 250 1056 b 351 1121 322 1056 351 1085 b 286 1186 351 1157 322 1186 b 221 1121 250 1186 221 1157 z m 421 1121 b 486 1056 421 1085 450 1056 b 551 1121 522 1056 551 1085 b 486 1186 551 1157 522 1186 b 421 1121 450 1186 421 1157 z "},"ï":{"ha":240,"x_min":0,"x_max":0,"o":"m 154 469 b 79 531 154 503 125 531 b 43 507 60 531 43 521 b 49 463 43 497 49 489 l 49 92 b 165 -39 49 21 92 -39 b 364 178 285 -39 339 86 b 283 203 375 222 300 288 b 190 53 271 142 246 53 b 154 117 154 53 154 104 z m -64 700 b 1 635 -64 664 -35 635 b 67 700 38 635 67 664 b 1 765 67 736 38 765 b -64 700 -35 765 -64 736 z m 136 700 b 201 635 136 664 165 635 b 267 700 238 635 267 664 b 201 765 267 736 238 765 b 136 700 165 765 136 736 z "},"Ĩ":{"ha":550,"x_min":0,"x_max":0,"o":"m 471 914 b 415 972 471 947 444 972 b 25 581 251 972 25 875 b 142 304 25 440 93 338 b 233 388 182 275 233 329 b 224 408 233 397 231 408 b 208 399 217 408 215 399 b 135 581 190 399 135 469 b 363 864 135 756 238 849 l 363 1 b 432 -39 363 -19 400 -39 b 471 -7 453 -39 471 -31 z m 294 1074 b 331 1125 299 1097 304 1125 b 460 1049 351 1125 386 1049 b 569 1182 507 1049 569 1093 b 522 1207 569 1194 544 1207 b 485 1179 507 1207 485 1200 b 457 1136 485 1153 475 1136 b 318 1210 414 1136 393 1210 b 213 1083 256 1210 213 1138 b 263 1056 213 1068 239 1056 b 294 1074 276 1056 294 1061 z "},"ĩ":{"ha":240,"x_min":0,"x_max":0,"o":"m 154 469 b 79 531 154 503 125 531 b 43 507 60 531 43 521 b 49 463 43 497 49 489 l 49 92 b 165 -39 49 21 92 -39 b 364 178 285 -39 339 86 b 283 203 375 222 300 288 b 190 53 271 142 246 53 b 154 117 154 53 154 104 z m 10 653 b 46 704 14 676 19 704 b 175 628 67 704 101 628 b 285 761 222 628 285 672 b 238 786 285 774 260 786 b 200 758 222 786 200 779 b 172 715 200 732 190 715 b 33 789 129 715 108 789 b -72 663 -29 789 -72 717 b -22 635 -72 647 -46 635 b 10 653 -8 635 10 640 z "},"Ī":{"ha":550,"x_min":0,"x_max":0,"o":"m 471 914 b 415 972 471 947 444 972 b 25 581 251 972 25 875 b 142 304 25 440 93 338 b 233 388 182 275 233 329 b 224 408 233 397 231 408 b 208 399 217 408 215 399 b 135 581 190 399 135 469 b 363 864 135 756 238 849 l 363 1 b 432 -39 363 -19 400 -39 b 471 -7 453 -39 471 -31 z m 276 1156 b 226 1096 244 1156 226 1133 b 263 1064 226 1076 238 1064 l 503 1064 b 510 1063 506 1063 508 1063 b 546 1119 532 1063 546 1093 b 515 1156 546 1143 539 1158 z "},"ī":{"ha":240,"x_min":0,"x_max":0,"o":"m 154 469 b 79 531 154 503 125 531 b 43 507 60 531 43 521 b 49 463 43 497 49 489 l 49 92 b 165 -39 49 21 92 -39 b 364 178 285 -39 339 86 b 283 203 375 222 300 288 b 190 53 271 142 246 53 b 154 117 154 53 154 104 z m -8 735 b -58 675 -40 735 -58 713 b -22 643 -58 656 -47 643 l 218 643 b 225 642 221 642 224 642 b 261 699 247 642 261 672 b 231 735 261 722 254 738 z "},"Ĭ":{"ha":550,"x_min":0,"x_max":0,"o":"m 471 914 b 415 972 471 947 444 972 b 25 581 251 972 25 875 b 142 304 25 440 93 338 b 233 388 182 275 233 329 b 224 408 233 397 231 408 b 208 399 217 408 215 399 b 135 581 190 399 135 469 b 363 864 135 756 238 849 l 363 1 b 432 -39 363 -19 400 -39 b 471 -7 453 -39 471 -31 z m 388 1042 b 544 1197 435 1042 544 1061 b 486 1239 544 1217 511 1239 b 451 1214 465 1239 454 1225 b 386 1126 451 1182 453 1126 b 311 1225 318 1126 314 1185 b 281 1239 307 1232 296 1239 b 218 1207 243 1239 218 1222 b 388 1042 218 1076 319 1042 z "},"ĭ":{"ha":240,"x_min":0,"x_max":0,"o":"m 154 469 b 79 531 154 503 125 531 b 43 507 60 531 43 521 b 49 463 43 497 49 489 l 49 92 b 165 -39 49 21 92 -39 b 364 178 285 -39 339 86 b 283 203 375 222 300 288 b 190 53 271 142 246 53 b 154 117 154 53 154 104 z m 103 621 b 260 776 150 621 260 640 b 201 818 260 796 226 818 b 167 793 181 818 169 804 b 101 706 167 761 168 706 b 26 804 33 706 29 764 b -4 818 22 811 11 818 b -67 786 -42 818 -67 801 b 103 621 -67 656 35 621 z "},"Į":{"ha":550,"x_min":0,"x_max":0,"o":"m 471 914 b 415 972 471 947 444 972 b 25 581 251 972 25 875 b 142 304 25 440 93 338 b 233 388 182 275 233 329 b 224 408 233 397 231 408 b 208 399 217 408 215 399 b 135 581 190 399 135 469 b 363 864 135 756 238 849 l 363 1 b 364 -7 363 -1 363 -4 b 256 -179 310 -43 256 -108 b 406 -297 256 -229 294 -297 b 514 -237 485 -297 514 -279 b 494 -204 514 -225 507 -197 b 413 -217 475 -214 433 -217 b 349 -167 364 -217 349 -193 b 449 -39 349 -110 394 -58 b 471 -1 467 -32 471 -18 z "},"į":{"ha":240,"x_min":0,"x_max":0,"o":"m 154 469 b 79 531 154 503 125 531 b 43 507 60 531 43 521 b 49 463 43 497 49 489 l 49 92 b 96 -17 49 50 64 10 b 11 -162 44 -56 11 -104 b 161 -281 11 -212 50 -281 b 269 -221 240 -281 269 -262 b 250 -187 269 -208 263 -181 b 168 -200 231 -197 189 -200 b 104 -150 119 -200 104 -176 b 204 -39 104 -107 153 -58 b 364 178 297 -3 342 94 b 283 203 375 222 300 288 b 190 53 271 142 246 53 b 154 117 154 53 154 104 z m 122 668 b 207 753 171 668 207 707 b 122 838 207 801 171 838 b 39 753 76 838 39 801 b 122 668 39 707 76 668 z "},"İ":{"ha":550,"x_min":0,"x_max":0,"o":"m 471 914 b 415 972 471 947 444 972 b 25 581 251 972 25 875 b 142 304 25 440 93 338 b 233 388 182 275 233 329 b 224 408 233 397 231 408 b 208 399 217 408 215 399 b 135 581 190 399 135 469 b 363 864 135 756 238 849 l 363 1 b 432 -39 363 -19 400 -39 b 471 -7 453 -39 471 -31 z m 317 1111 b 386 1042 317 1072 347 1042 b 456 1111 425 1042 456 1072 b 386 1181 456 1150 425 1181 b 317 1111 347 1181 317 1150 z "},"ı":{"ha":240,"x_min":0,"x_max":0,"o":"m 154 469 b 79 531 154 503 125 531 b 43 507 60 531 43 521 b 49 463 43 497 49 489 l 49 92 b 165 -39 49 21 92 -39 b 364 178 285 -39 339 86 b 283 203 375 222 300 288 b 190 53 271 142 246 53 b 154 117 154 53 154 104 z "},"Ĳ":{"ha":1108,"x_min":0,"x_max":0,"o":"m 471 914 b 415 972 471 947 444 972 b 25 581 251 972 25 875 b 142 304 25 440 93 338 b 233 388 182 275 233 329 b 224 408 233 397 231 408 b 208 399 217 408 215 399 b 135 581 190 399 135 469 b 363 864 135 756 238 849 l 363 1 b 432 -39 363 -19 400 -39 b 471 -7 453 -39 471 -31 z m 914 -58 l 914 -74 b 661 -328 786 -111 661 -187 b 817 -492 661 -421 722 -492 b 1021 -154 978 -492 1013 -314 b 1078 -151 1039 -153 1057 -151 b 1096 -42 1126 -150 1161 -37 b 1022 -49 1074 -43 1049 -44 l 1022 -7 l 1022 914 b 967 972 1022 947 996 972 b 576 581 803 972 576 875 b 693 304 576 418 658 326 b 717 296 700 299 708 296 b 785 388 751 296 785 340 b 775 408 785 397 782 408 b 760 399 768 408 767 399 b 686 581 742 399 686 469 b 914 864 686 756 789 849 z m 819 -385 b 769 -325 792 -385 769 -367 b 911 -176 769 -256 819 -204 b 819 -385 904 -286 882 -385 z "},"ĳ":{"ha":474,"x_min":0,"x_max":0,"o":"m 517 203 b 394 -18 489 107 444 38 l 394 469 b 319 531 394 503 365 531 b 283 507 300 531 283 521 b 289 463 283 497 289 489 l 289 235 b 190 53 289 206 264 53 b 154 117 154 53 154 104 l 154 469 b 79 531 154 503 125 531 b 43 507 60 531 43 521 b 49 463 43 497 49 489 l 49 92 b 165 -39 49 21 92 -39 b 289 21 218 -39 258 -14 l 289 -121 b 117 -412 197 -201 117 -272 b 250 -572 117 -501 172 -572 b 394 -375 321 -572 394 -521 l 394 -135 b 597 174 469 -69 550 13 b 599 188 599 179 599 186 b 550 244 599 214 572 244 b 517 203 536 244 525 232 z m 257 753 b 342 668 257 707 294 668 b 426 753 388 668 426 707 b 342 838 426 801 388 838 b 257 753 294 838 257 801 z m 122 668 b 207 753 171 668 207 707 b 122 838 207 801 171 838 b 39 753 76 838 39 801 b 122 668 39 707 76 668 z m 250 -485 b 214 -408 228 -485 214 -451 b 289 -226 214 -325 244 -272 l 289 -375 b 250 -485 289 -401 294 -485 z "},"Ĵ":{"ha":557,"x_min":0,"x_max":0,"o":"m 363 -58 l 363 -74 b 110 -328 235 -111 110 -187 b 265 -492 110 -421 171 -492 b 469 -154 426 -492 461 -314 b 526 -151 488 -153 506 -151 b 544 -42 575 -150 610 -37 b 471 -49 522 -43 497 -44 l 471 -7 l 471 914 b 415 972 471 947 444 972 b 25 581 251 972 25 875 b 142 304 25 418 107 326 b 165 296 149 299 157 296 b 233 388 200 296 233 340 b 224 408 233 397 231 408 b 208 399 217 408 215 399 b 135 581 190 399 135 469 b 363 864 135 756 238 849 z m 268 -385 b 218 -325 240 -385 218 -367 b 360 -176 218 -256 268 -204 b 268 -385 353 -286 331 -385 z m 442 1214 b 394 1253 431 1240 428 1253 b 331 1215 371 1253 347 1240 l 233 1076 b 231 1071 232 1075 231 1074 b 290 1028 231 1051 265 1028 b 324 1051 311 1028 317 1039 l 383 1147 l 451 1042 b 482 1028 456 1035 467 1028 b 544 1060 519 1028 544 1044 b 533 1081 544 1067 539 1074 z "},"ĵ":{"ha":233,"x_min":0,"x_max":0,"o":"m 276 203 b 154 -18 249 107 204 38 l 154 469 b 79 531 154 503 125 531 b 43 507 60 531 43 521 b 49 463 43 497 49 489 l 49 -121 b -124 -412 -43 -201 -124 -272 b 10 -572 -124 -501 -68 -572 b 154 -375 81 -572 154 -521 l 154 -135 b 357 174 229 -69 310 13 b 358 188 358 179 358 186 b 310 244 358 214 332 244 b 276 203 296 244 285 232 z m 10 -485 b -26 -408 -12 -485 -26 -451 b 49 -226 -26 -325 4 -272 l 49 -375 b 10 -485 49 -401 54 -485 z m 171 800 b 124 839 160 826 157 839 b 60 801 100 839 76 826 l -37 663 b -40 657 -39 661 -40 660 b 19 614 -40 638 -6 614 b 53 638 40 614 46 625 l 113 733 l 181 628 b 211 614 185 621 196 614 b 274 646 249 614 274 631 b 263 667 274 653 268 660 z "},"ȷ":{"ha":233,"x_min":0,"x_max":0,"o":"m 276 203 b 154 -18 249 107 204 38 l 154 469 b 79 531 154 503 125 531 b 43 507 60 531 43 521 b 49 463 43 497 49 489 l 49 -121 b -124 -412 -43 -201 -124 -272 b 10 -572 -124 -501 -68 -572 b 154 -375 81 -572 154 -521 l 154 -135 b 357 174 229 -69 310 13 b 358 188 358 179 358 186 b 310 244 358 214 332 244 b 276 203 296 244 285 232 z m 10 -485 b -26 -408 -12 -485 -26 -451 b 49 -226 -26 -325 4 -272 l 49 -375 b 10 -485 49 -401 54 -485 z "},"Ķ":{"ha":832,"x_min":0,"x_max":0,"o":"m 471 914 b 415 972 471 947 444 972 b 25 581 251 972 25 875 b 142 304 25 440 93 338 b 242 388 182 275 242 329 b 231 404 242 397 238 404 b 208 399 224 404 217 399 b 135 581 190 399 135 469 b 363 864 135 756 238 849 l 363 1 b 432 -39 363 -19 400 -39 b 471 -7 453 -39 471 -31 l 471 307 b 779 -215 689 246 624 -21 b 797 -224 785 -221 790 -224 b 892 -151 819 -224 892 -178 b 865 -132 892 -140 872 -140 b 569 368 739 10 765 264 b 826 985 815 476 711 810 b 838 1000 835 989 838 994 b 756 1042 838 1022 790 1042 b 726 1024 739 1042 729 1029 b 471 425 590 792 740 481 z m 565 -97 b 501 -158 533 -97 501 -119 b 549 -219 501 -192 522 -214 b 506 -264 532 -244 515 -261 b 497 -274 501 -267 497 -267 b 535 -312 497 -289 513 -312 b 629 -172 567 -312 629 -225 b 565 -97 629 -121 599 -97 z "},"ķ":{"ha":486,"x_min":0,"x_max":0,"o":"m 49 22 b 115 -39 49 -29 88 -39 b 154 21 156 -39 154 -6 l 154 260 b 293 451 197 407 260 451 b 338 393 319 451 338 428 b 208 178 338 265 208 221 b 390 -39 208 86 281 -39 b 610 176 517 -39 585 101 b 529 201 621 221 546 286 b 406 53 517 140 469 53 b 307 168 351 53 321 108 b 440 394 363 208 440 288 b 317 544 440 472 403 544 b 154 429 254 544 199 490 l 154 863 b 79 924 154 896 125 924 b 35 908 60 924 35 918 b 49 856 35 899 49 896 z m 246 -86 b 182 -147 214 -86 182 -108 b 229 -208 182 -181 203 -203 b 186 -253 213 -233 196 -250 b 178 -262 182 -256 178 -256 b 215 -301 178 -278 193 -301 b 310 -161 247 -301 310 -214 b 246 -86 310 -110 279 -86 z "},"ĸ":{"ha":486,"x_min":0,"x_max":0,"o":"m 49 22 b 115 -39 49 -29 88 -39 b 154 21 156 -39 154 -6 l 154 260 b 293 451 197 407 260 451 b 338 393 319 451 338 428 b 208 178 338 265 208 221 b 390 -39 208 86 281 -39 b 610 176 517 -39 585 101 b 529 201 621 221 546 286 b 406 53 517 140 469 53 b 307 168 351 53 321 108 b 440 394 363 208 440 288 b 317 544 440 472 403 544 b 154 429 254 544 199 490 l 154 483 b 79 544 154 517 125 544 b 35 529 60 544 35 539 b 49 476 35 519 49 517 z "},"Ĺ":{"ha":701,"x_min":0,"x_max":0,"o":"m 519 -51 b 699 157 626 -51 699 49 b 622 219 699 190 671 219 b 606 210 611 219 606 217 b 608 185 606 204 608 197 b 508 57 608 135 586 57 b 342 181 451 57 401 124 b 228 619 338 351 228 475 b 443 879 228 757 315 879 b 544 779 513 879 544 833 b 342 594 544 696 433 594 b 315 604 326 594 319 604 b 304 586 308 604 304 597 b 375 507 304 532 338 507 b 654 799 496 507 654 636 b 447 986 654 907 571 986 b 117 624 249 986 117 803 b 229 250 117 469 197 369 b 185 257 215 254 200 257 b 26 104 101 257 26 194 b 171 -39 26 29 79 -39 b 317 65 242 -39 290 8 b 519 -51 374 8 438 -51 z m 175 161 b 239 136 197 161 218 151 b 174 58 233 96 211 58 b 125 110 142 58 125 83 b 175 161 125 140 147 161 z m 568 1199 b 585 1226 575 1207 585 1214 b 528 1267 585 1250 554 1267 b 482 1240 508 1267 485 1256 l 356 1094 b 344 1074 350 1088 344 1081 b 399 1042 344 1058 361 1042 b 444 1067 414 1042 433 1049 z "},"ĺ":{"ha":306,"x_min":0,"x_max":0,"o":"m 154 807 b 175 863 154 829 160 863 b 213 729 197 863 213 821 b 154 411 213 653 183 469 z m 351 201 b 228 53 339 140 292 53 b 154 149 176 53 154 93 l 154 229 b 299 731 172 246 299 526 b 175 954 299 808 297 954 b 49 776 106 954 49 881 l 49 144 b 213 -39 49 35 106 -39 b 432 176 339 -39 407 101 b 351 201 443 221 368 283 z m 299 1160 b 315 1188 306 1168 315 1175 b 258 1228 315 1211 285 1228 b 213 1201 239 1228 215 1217 l 86 1056 b 75 1035 81 1049 75 1042 b 129 1003 75 1019 92 1003 b 175 1028 144 1003 164 1010 z "},"Ļ":{"ha":701,"x_min":0,"x_max":0,"o":"m 519 -51 b 699 157 626 -51 699 49 b 622 219 699 190 671 219 b 606 210 611 219 606 217 b 608 185 606 204 608 197 b 508 57 608 135 586 57 b 342 181 451 57 401 124 b 228 619 338 351 228 475 b 443 879 228 757 315 879 b 544 779 513 879 544 833 b 342 594 544 696 433 594 b 315 604 326 594 319 604 b 304 586 308 604 304 597 b 375 507 304 532 338 507 b 654 799 496 507 654 636 b 447 986 654 907 571 986 b 117 624 249 986 117 803 b 229 250 117 469 197 369 b 185 257 215 254 200 257 b 26 104 101 257 26 194 b 171 -39 26 29 79 -39 b 317 65 242 -39 290 8 b 519 -51 374 8 438 -51 z m 175 161 b 239 136 197 161 218 151 b 174 58 233 96 211 58 b 125 110 142 58 125 83 b 175 161 125 140 147 161 z m 353 -86 b 289 -147 321 -86 289 -108 b 336 -208 289 -181 310 -203 b 293 -253 319 -233 303 -250 b 285 -262 289 -256 285 -256 b 322 -301 285 -278 300 -301 b 417 -161 354 -301 417 -214 b 353 -86 417 -110 386 -86 z "},"ļ":{"ha":306,"x_min":0,"x_max":0,"o":"m 154 807 b 175 863 154 829 160 863 b 213 729 197 863 213 821 b 154 411 213 653 183 469 z m 351 201 b 228 53 339 140 292 53 b 154 149 176 53 154 93 l 154 229 b 299 731 172 246 299 526 b 175 954 299 808 297 954 b 49 776 106 954 49 881 l 49 144 b 213 -39 49 35 106 -39 b 432 176 339 -39 407 101 b 351 201 443 221 368 283 z m 183 -86 b 119 -147 151 -86 119 -108 b 167 -208 119 -181 140 -203 b 124 -253 150 -233 133 -250 b 115 -262 119 -256 115 -256 b 153 -301 115 -278 131 -301 b 247 -161 185 -301 247 -214 b 183 -86 247 -110 217 -86 z "},"Ľ":{"ha":860,"x_min":0,"x_max":0,"o":"m 519 -51 b 699 157 626 -51 699 49 b 622 219 699 190 671 219 b 606 210 611 219 606 217 b 608 185 606 204 608 197 b 508 57 608 135 586 57 b 342 181 451 57 401 124 b 228 619 338 351 228 475 b 443 879 228 757 315 879 b 544 779 513 879 544 833 b 342 594 544 696 433 594 b 315 604 326 594 319 604 b 304 586 308 604 304 597 b 375 507 304 532 338 507 b 654 799 496 507 654 636 b 447 986 654 907 571 986 b 117 624 249 986 117 803 b 229 250 117 469 197 369 b 185 257 215 254 200 257 b 26 104 101 257 26 194 b 171 -39 26 29 79 -39 b 317 65 242 -39 290 8 b 519 -51 374 8 438 -51 z m 175 161 b 239 136 197 161 218 151 b 174 58 233 96 211 58 b 125 110 142 58 125 83 b 175 161 125 140 147 161 z m 779 910 b 715 849 747 910 715 888 b 763 788 715 815 736 793 b 719 743 746 763 729 746 b 711 733 715 740 711 740 b 749 694 711 718 726 694 b 843 835 781 694 843 782 b 779 910 843 886 813 910 z "},"ľ":{"ha":463,"x_min":0,"x_max":0,"o":"m 154 807 b 175 863 154 829 160 863 b 213 729 197 863 213 821 b 154 411 213 653 183 469 z m 351 201 b 228 53 339 140 292 53 b 154 149 176 53 154 93 l 154 229 b 299 731 172 246 299 526 b 175 954 299 808 297 954 b 49 776 106 954 49 881 l 49 144 b 213 -39 49 35 106 -39 b 432 176 339 -39 407 101 b 351 201 443 221 368 283 z m 413 900 b 349 839 381 900 349 878 b 396 778 349 806 369 783 b 353 733 379 753 363 736 b 344 724 349 731 344 731 b 382 685 344 708 360 685 b 476 825 414 685 476 772 b 413 900 476 876 446 900 z "},"Ŀ":{"ha":701,"x_min":0,"x_max":0,"o":"m 519 -51 b 699 157 626 -51 699 49 b 622 219 699 190 671 219 b 606 210 611 219 606 217 b 608 185 606 204 608 197 b 508 57 608 135 586 57 b 342 181 451 57 401 124 b 228 619 338 351 228 475 b 443 879 228 757 315 879 b 544 779 513 879 544 833 b 342 594 544 696 433 594 b 315 604 326 594 319 604 b 304 586 308 604 304 597 b 375 507 304 532 338 507 b 654 799 496 507 654 636 b 447 986 654 907 571 986 b 117 624 249 986 117 803 b 229 250 117 469 197 369 b 185 257 215 254 200 257 b 26 104 101 257 26 194 b 171 -39 26 29 79 -39 b 317 65 242 -39 290 8 b 519 -51 374 8 438 -51 z m 175 161 b 239 136 197 161 218 151 b 174 58 233 96 211 58 b 125 110 142 58 125 83 b 175 161 125 140 147 161 z m 610 447 b 543 381 574 447 543 418 b 610 315 543 346 574 315 b 678 381 647 315 678 346 b 610 447 678 418 647 447 z "},"ŀ":{"ha":392,"x_min":0,"x_max":0,"o":"m 154 807 b 175 863 154 829 160 863 b 213 729 197 863 213 821 b 154 411 213 653 183 469 z m 351 201 b 228 53 339 140 292 53 b 154 149 176 53 154 93 l 154 229 b 299 731 172 246 299 526 b 175 954 299 808 297 954 b 49 776 106 954 49 881 l 49 144 b 213 -39 49 35 106 -39 b 432 176 339 -39 407 101 b 351 201 443 221 368 283 z m 329 431 b 263 364 293 431 263 401 b 329 299 263 329 293 299 b 397 364 367 299 397 329 b 329 431 397 401 367 431 z "},"Ł":{"ha":701,"x_min":0,"x_max":0,"o":"m 519 -51 b 699 157 626 -51 699 49 b 622 219 699 190 671 219 b 606 210 611 219 606 217 b 608 185 606 204 608 197 b 508 57 608 135 586 57 b 342 181 451 57 401 124 b 306 349 340 242 325 297 l 417 381 b 447 422 436 381 447 401 b 419 468 447 450 435 468 b 404 464 415 468 410 467 l 276 428 b 228 619 250 492 228 553 b 443 879 228 757 315 879 b 544 779 513 879 544 833 b 342 594 544 696 433 594 b 315 604 326 594 319 604 b 304 586 308 604 304 597 b 375 507 304 532 338 507 b 654 799 496 507 654 636 b 447 986 654 907 571 986 b 117 624 249 986 117 803 b 171 397 117 535 143 464 l 85 374 b 49 332 61 367 49 354 b 81 288 49 311 57 288 b 96 290 85 288 90 289 l 204 321 b 229 250 214 297 222 274 b 185 257 215 254 200 257 b 26 104 101 257 26 194 b 171 -39 26 29 79 -39 b 317 65 242 -39 290 8 b 519 -51 374 8 438 -51 z m 174 58 b 125 110 142 58 125 83 b 175 161 125 140 147 161 b 239 136 197 161 218 151 b 174 58 233 96 211 58 z "},"ł":{"ha":306,"x_min":0,"x_max":0,"o":"m 351 201 b 228 53 339 140 292 53 b 154 149 176 53 154 93 l 154 179 l 282 226 b 308 269 301 228 310 249 b 278 314 307 297 293 315 b 263 308 274 314 268 311 l 182 279 b 299 731 225 372 299 574 b 175 954 299 808 297 954 b 49 776 106 954 49 881 l 49 231 l 6 215 b -28 171 -18 206 -29 193 b 7 129 -26 150 -17 126 b 22 132 11 129 17 131 l 49 142 b 213 -39 49 33 106 -39 b 432 176 339 -39 407 101 b 351 201 443 221 368 283 z m 154 807 b 175 863 154 829 160 863 b 213 729 197 863 213 821 b 154 411 213 653 183 469 z "},"Ñ":{"ha":856,"x_min":0,"x_max":0,"o":"m 471 914 b 415 972 471 947 444 972 b 25 581 251 972 25 875 b 167 296 25 418 119 296 b 242 388 203 296 242 340 b 231 404 242 397 238 404 b 208 399 224 404 217 399 b 135 581 190 399 135 469 b 363 864 135 756 238 849 l 363 1 b 432 -39 363 -19 400 -39 b 471 -7 453 -39 471 -31 l 471 529 b 656 863 471 647 614 863 b 668 843 661 863 668 861 l 668 18 b 772 -131 669 -99 732 -131 b 843 -83 815 -131 843 -104 b 776 42 843 -54 776 -62 l 776 851 b 682 972 776 943 721 972 b 471 800 601 972 526 896 z m 451 1074 b 488 1125 456 1097 461 1125 b 617 1049 508 1125 543 1049 b 726 1182 664 1049 726 1093 b 679 1207 726 1194 701 1207 b 642 1179 664 1207 642 1200 b 614 1136 642 1153 632 1136 b 475 1210 571 1136 550 1210 b 369 1083 413 1210 369 1138 b 419 1056 369 1068 396 1056 b 451 1074 433 1056 451 1061 z "},"ñ":{"ha":511,"x_min":0,"x_max":0,"o":"m 49 22 b 115 -39 49 -29 88 -39 b 154 21 156 -39 154 -6 l 154 224 b 290 453 164 333 250 453 b 319 374 317 453 319 417 l 319 92 b 436 -39 319 21 363 -39 b 635 178 556 -39 611 86 b 636 188 636 183 636 186 b 588 244 636 214 610 244 b 554 203 574 244 560 232 b 461 53 542 142 517 53 b 425 117 425 53 425 104 l 425 404 b 310 544 425 468 403 544 b 154 407 242 544 192 485 l 154 469 b 79 531 154 503 125 531 b 43 507 60 531 43 521 b 49 463 43 497 49 489 z m 146 660 b 182 711 150 683 156 711 b 311 635 203 711 238 635 b 421 768 358 635 421 679 b 374 793 421 781 396 793 b 336 765 358 793 336 786 b 308 722 336 739 326 722 b 169 796 265 722 244 796 b 64 669 107 796 64 724 b 114 642 64 654 90 642 b 146 660 128 642 146 647 z "},"Ń":{"ha":856,"x_min":0,"x_max":0,"o":"m 471 914 b 415 972 471 947 444 972 b 25 581 251 972 25 875 b 167 296 25 418 119 296 b 242 388 203 296 242 340 b 231 404 242 397 238 404 b 208 399 224 404 217 399 b 135 581 190 399 135 469 b 363 864 135 756 238 849 l 363 1 b 432 -39 363 -19 400 -39 b 471 -7 453 -39 471 -31 l 471 529 b 656 863 471 647 614 863 b 668 843 661 863 668 861 l 668 18 b 772 -131 669 -99 732 -131 b 843 -83 815 -131 843 -104 b 776 42 843 -54 776 -62 l 776 851 b 682 972 776 943 721 972 b 471 800 601 972 526 896 z m 668 1185 b 685 1213 675 1193 685 1200 b 628 1253 685 1236 654 1253 b 582 1226 608 1253 585 1242 l 456 1081 b 444 1060 450 1074 444 1067 b 499 1028 444 1044 461 1028 b 544 1053 514 1028 533 1035 z "},"ń":{"ha":511,"x_min":0,"x_max":0,"o":"m 49 22 b 115 -39 49 -29 88 -39 b 154 21 156 -39 154 -6 l 154 224 b 290 453 164 333 250 453 b 319 374 317 453 319 417 l 319 92 b 436 -39 319 21 363 -39 b 635 178 556 -39 611 86 b 636 188 636 183 636 186 b 588 244 636 214 610 244 b 554 203 574 244 560 232 b 461 53 542 142 517 53 b 425 117 425 53 425 104 l 425 404 b 310 544 425 468 403 544 b 154 407 242 544 192 485 l 154 469 b 79 531 154 503 125 531 b 43 507 60 531 43 521 b 49 463 43 497 49 489 z m 363 771 b 379 799 369 779 379 786 b 322 839 379 822 349 839 b 276 813 303 839 279 828 l 150 667 b 139 646 144 660 139 653 b 193 614 139 631 156 614 b 239 639 208 614 228 621 z "},"Ņ":{"ha":856,"x_min":0,"x_max":0,"o":"m 471 914 b 415 972 471 947 444 972 b 25 581 251 972 25 875 b 167 296 25 418 119 296 b 242 388 203 296 242 340 b 231 404 242 397 238 404 b 208 399 224 404 217 399 b 135 581 190 399 135 469 b 363 864 135 756 238 849 l 363 1 b 432 -39 363 -19 400 -39 b 471 -7 453 -39 471 -31 l 471 529 b 656 863 471 647 614 863 b 668 843 661 863 668 861 l 668 18 b 772 -131 669 -99 732 -131 b 843 -83 815 -131 843 -104 b 776 42 843 -54 776 -62 l 776 851 b 682 972 776 943 721 972 b 471 800 601 972 526 896 z m 572 -86 b 508 -147 540 -86 508 -108 b 556 -208 508 -181 529 -203 b 513 -253 539 -233 522 -250 b 504 -262 508 -256 504 -256 b 542 -301 504 -278 519 -301 b 636 -161 574 -301 636 -214 b 572 -86 636 -110 606 -86 z "},"ņ":{"ha":511,"x_min":0,"x_max":0,"o":"m 49 22 b 115 -39 49 -29 88 -39 b 154 21 156 -39 154 -6 l 154 224 b 290 453 164 333 250 453 b 319 374 317 453 319 417 l 319 92 b 436 -39 319 21 363 -39 b 635 178 556 -39 611 86 b 636 188 636 183 636 186 b 588 244 636 214 610 244 b 554 203 574 244 560 232 b 461 53 542 142 517 53 b 425 117 425 53 425 104 l 425 404 b 310 544 425 468 403 544 b 154 407 242 544 192 485 l 154 469 b 79 531 154 503 125 531 b 43 507 60 531 43 521 b 49 463 43 497 49 489 z m 258 -86 b 194 -147 226 -86 194 -108 b 242 -208 194 -181 215 -203 b 199 -253 225 -233 208 -250 b 190 -262 194 -256 190 -256 b 228 -301 190 -278 206 -301 b 322 -161 260 -301 322 -214 b 258 -86 322 -110 292 -86 z "},"Ň":{"ha":856,"x_min":0,"x_max":0,"o":"m 471 914 b 415 972 471 947 444 972 b 25 581 251 972 25 875 b 167 296 25 418 119 296 b 242 388 203 296 242 340 b 231 404 242 397 238 404 b 208 399 224 404 217 399 b 135 581 190 399 135 469 b 363 864 135 756 238 849 l 363 1 b 432 -39 363 -19 400 -39 b 471 -7 453 -39 471 -31 l 471 529 b 656 863 471 647 614 863 b 668 843 661 863 668 861 l 668 18 b 772 -131 669 -99 732 -131 b 843 -83 815 -131 843 -104 b 776 42 843 -54 776 -62 l 776 851 b 682 972 776 943 721 972 b 471 800 601 972 526 896 z m 485 1067 b 551 1028 507 1038 514 1028 b 596 1065 575 1028 588 1040 l 685 1193 b 694 1211 686 1194 694 1206 b 636 1253 694 1231 661 1253 b 603 1229 615 1253 606 1240 l 543 1133 l 475 1239 b 444 1253 471 1246 460 1253 b 382 1221 407 1253 382 1236 b 393 1200 382 1214 388 1207 z "},"ň":{"ha":511,"x_min":0,"x_max":0,"o":"m 49 22 b 115 -39 49 -29 88 -39 b 154 21 156 -39 154 -6 l 154 224 b 290 453 164 333 250 453 b 319 374 317 453 319 417 l 319 92 b 436 -39 319 21 363 -39 b 635 178 556 -39 611 86 b 636 188 636 183 636 186 b 588 244 636 214 610 244 b 554 203 574 244 560 232 b 461 53 542 142 517 53 b 425 117 425 53 425 104 l 425 404 b 310 544 425 468 403 544 b 154 407 242 544 192 485 l 154 469 b 79 531 154 503 125 531 b 43 507 60 531 43 521 b 49 463 43 497 49 489 z m 179 653 b 246 614 201 624 208 614 b 290 651 269 614 282 626 l 379 779 b 389 797 381 781 389 792 b 331 839 389 817 356 839 b 297 815 310 839 300 826 l 238 719 l 169 825 b 139 839 165 832 154 839 b 76 807 101 839 76 822 b 88 786 76 800 82 793 z "},"ŉ":{"ha":511,"x_min":0,"x_max":0,"o":"m 49 22 b 115 -39 49 -29 88 -39 b 154 21 156 -39 154 -6 l 154 224 b 290 453 164 333 250 453 b 319 374 317 453 319 417 l 319 92 b 436 -39 319 21 363 -39 b 635 178 556 -39 611 86 b 636 188 636 183 636 186 b 588 244 636 214 610 244 b 554 203 574 244 560 232 b 461 53 542 142 517 53 b 425 117 425 53 425 104 l 425 404 b 310 544 425 468 403 544 b 154 407 242 544 192 485 l 154 469 b 79 531 154 503 125 531 b 43 507 60 531 43 521 b 49 463 43 497 49 489 z m 68 889 b 4 828 36 889 4 867 b 51 767 4 794 25 772 b 8 722 35 742 18 725 b 0 713 4 719 0 719 b 38 674 0 697 15 674 b 132 814 69 674 132 761 b 68 889 132 865 101 889 z "},"Ŋ":{"ha":863,"x_min":0,"x_max":0,"o":"m 471 914 b 415 972 471 947 444 972 b 25 581 251 972 25 875 b 167 296 25 418 119 296 b 242 388 203 296 242 340 b 231 404 242 397 238 404 b 208 399 224 404 217 399 b 135 581 190 399 135 469 b 363 864 135 756 238 849 l 363 1 b 432 -39 363 -19 400 -39 b 471 -7 453 -39 471 -31 l 471 538 b 656 863 478 657 614 863 b 668 843 661 863 668 861 l 668 -58 l 668 -74 b 415 -328 540 -111 415 -187 b 571 -492 415 -421 476 -492 b 775 -154 732 -492 767 -314 b 832 -151 793 -153 811 -151 b 850 -42 881 -150 915 -37 b 776 -49 828 -43 803 -44 l 776 -7 l 776 851 b 682 972 776 943 721 972 b 471 800 601 972 526 896 z m 574 -385 b 524 -325 546 -385 524 -367 b 665 -176 524 -256 574 -204 b 574 -385 658 -286 636 -385 z "},"ŋ":{"ha":504,"x_min":0,"x_max":0,"o":"m 49 22 b 115 -39 49 -29 88 -39 b 154 21 156 -39 154 -6 l 154 224 b 290 453 164 333 250 453 b 319 374 317 453 319 417 l 319 -121 b 147 -412 228 -201 147 -272 b 281 -572 147 -501 203 -572 b 425 -375 351 -572 425 -521 l 425 -135 b 628 174 500 -69 581 13 b 629 188 629 179 629 186 b 581 244 629 214 603 244 b 547 203 567 244 556 232 b 425 -18 519 107 475 38 l 425 404 b 310 544 425 468 403 544 b 154 407 242 544 192 485 l 154 469 b 79 531 154 503 125 531 b 43 507 60 531 43 521 b 49 463 43 497 49 489 z m 319 -375 b 281 -485 319 -401 325 -485 b 244 -408 258 -485 244 -451 b 319 -226 244 -325 275 -272 z "},"Ò":{"ha":707,"x_min":0,"x_max":0,"o":"m 543 472 b 340 65 542 213 456 65 b 139 428 242 65 139 176 b 358 899 139 783 310 871 b 365 897 361 897 363 897 b 383 929 378 897 383 911 b 335 1001 383 960 365 1001 b 319 999 329 1001 324 1000 b 28 414 308 994 28 886 b 336 -39 28 165 133 -39 b 651 472 499 -39 651 121 b 643 582 651 506 649 543 b 721 664 689 601 721 629 b 676 739 721 701 696 739 b 660 721 669 739 664 733 b 621 686 647 707 635 694 b 431 864 590 783 532 864 b 304 732 356 864 304 804 b 513 557 304 625 397 557 l 539 557 b 543 472 542 528 543 499 z m 508 653 b 406 729 436 653 406 696 b 440 764 406 744 413 764 b 525 653 483 764 511 717 z m 393 1056 b 424 1042 397 1049 408 1042 b 486 1074 461 1042 486 1058 b 475 1094 486 1081 481 1088 l 349 1240 b 308 1267 339 1254 328 1267 b 251 1222 290 1267 251 1249 b 263 1199 251 1215 256 1207 z "},"ò":{"ha":508,"x_min":0,"x_max":0,"o":"m 557 229 b 457 129 549 175 517 129 b 429 132 447 129 439 129 b 449 282 443 179 449 231 b 331 515 449 417 396 515 b 218 353 256 515 218 440 b 318 106 218 253 253 161 b 236 53 300 74 275 53 b 136 228 182 53 136 111 b 200 450 136 365 178 417 b 172 547 236 474 208 547 b 31 219 142 547 31 424 b 233 -39 31 81 93 -39 b 400 61 313 -39 365 1 b 468 51 421 54 443 51 b 636 189 563 51 619 114 b 557 229 654 267 563 261 z m 292 358 b 315 424 292 401 300 424 b 349 260 344 424 349 354 b 344 196 349 239 347 218 b 292 358 313 238 292 296 z m 249 626 b 279 613 253 619 264 613 b 342 644 317 613 342 629 b 331 665 342 651 336 658 l 204 811 b 164 838 194 825 183 838 b 107 793 146 838 107 819 b 118 769 107 786 111 778 z "},"Ó":{"ha":707,"x_min":0,"x_max":0,"o":"m 543 472 b 340 65 542 213 456 65 b 139 428 242 65 139 176 b 358 899 139 783 310 871 b 365 897 361 897 363 897 b 383 929 378 897 383 911 b 335 1001 383 960 365 1001 b 319 999 329 1001 324 1000 b 28 414 308 994 28 886 b 336 -39 28 165 133 -39 b 651 472 499 -39 651 121 b 643 582 651 506 649 543 b 721 664 689 601 721 629 b 676 739 721 701 696 739 b 660 721 669 739 664 733 b 621 686 647 707 635 694 b 431 864 590 783 532 864 b 304 732 356 864 304 804 b 513 557 304 625 397 557 l 539 557 b 543 472 542 528 543 499 z m 508 653 b 406 729 436 653 406 696 b 440 764 406 744 413 764 b 525 653 483 764 511 717 z m 518 1199 b 535 1226 525 1207 535 1214 b 478 1267 535 1250 504 1267 b 432 1240 458 1267 435 1256 l 306 1094 b 294 1074 300 1088 294 1081 b 349 1042 294 1058 311 1042 b 394 1067 364 1042 383 1049 z "},"ó":{"ha":508,"x_min":0,"x_max":0,"o":"m 557 229 b 457 129 549 175 517 129 b 429 132 447 129 439 129 b 449 282 443 179 449 231 b 331 515 449 417 396 515 b 218 353 256 515 218 440 b 318 106 218 253 253 161 b 236 53 300 74 275 53 b 136 228 182 53 136 111 b 200 450 136 365 178 417 b 172 547 236 474 208 547 b 31 219 142 547 31 424 b 233 -39 31 81 93 -39 b 400 61 313 -39 365 1 b 468 51 421 54 443 51 b 636 189 563 51 619 114 b 557 229 654 267 563 261 z m 292 358 b 315 424 292 401 300 424 b 349 260 344 424 349 354 b 344 196 349 239 347 218 b 292 358 313 238 292 296 z m 374 769 b 390 797 381 778 390 785 b 333 838 390 821 360 838 b 288 811 314 838 290 826 l 161 665 b 150 644 156 658 150 651 b 204 613 150 629 167 613 b 250 638 219 613 239 619 z "},"Ô":{"ha":707,"x_min":0,"x_max":0,"o":"m 543 472 b 340 65 542 213 456 65 b 139 428 242 65 139 176 b 358 899 139 783 310 871 b 365 897 361 897 363 897 b 383 929 378 897 383 911 b 335 1001 383 960 365 1001 b 319 999 329 1001 324 1000 b 28 414 308 994 28 886 b 336 -39 28 165 133 -39 b 651 472 499 -39 651 121 b 643 582 651 506 649 543 b 721 664 689 601 721 629 b 676 739 721 701 696 739 b 660 721 669 739 664 733 b 621 686 647 707 635 694 b 431 864 590 783 532 864 b 304 732 356 864 304 804 b 513 557 304 625 397 557 l 539 557 b 543 472 542 528 543 499 z m 508 653 b 406 729 436 653 406 696 b 440 764 406 744 413 764 b 525 653 483 764 511 717 z m 447 1228 b 400 1267 436 1254 433 1267 b 336 1229 376 1267 353 1254 l 239 1090 b 236 1085 238 1089 236 1088 b 296 1042 236 1065 271 1042 b 329 1065 317 1042 322 1053 l 389 1161 l 457 1056 b 488 1042 461 1049 472 1042 b 550 1074 525 1042 550 1058 b 539 1094 550 1081 544 1088 z "},"ô":{"ha":508,"x_min":0,"x_max":0,"o":"m 557 229 b 457 129 549 175 517 129 b 429 132 447 129 439 129 b 449 282 443 179 449 231 b 331 515 449 417 396 515 b 218 353 256 515 218 440 b 318 106 218 253 253 161 b 236 53 300 74 275 53 b 136 228 182 53 136 111 b 200 450 136 365 178 417 b 172 547 236 474 208 547 b 31 219 142 547 31 424 b 233 -39 31 81 93 -39 b 400 61 313 -39 365 1 b 468 51 421 54 443 51 b 636 189 563 51 619 114 b 557 229 654 267 563 261 z m 292 358 b 315 424 292 401 300 424 b 349 260 344 424 349 354 b 344 196 349 239 347 218 b 292 358 313 238 292 296 z m 303 799 b 256 838 292 825 289 838 b 192 800 232 838 208 825 l 94 661 b 92 656 93 660 92 658 b 151 613 92 636 126 613 b 185 636 172 613 178 624 l 244 732 l 313 626 b 343 613 317 619 328 613 b 406 644 381 613 406 629 b 394 665 406 651 400 658 z "},"Õ":{"ha":707,"x_min":0,"x_max":0,"o":"m 543 472 b 340 65 542 213 456 65 b 139 428 242 65 139 176 b 358 899 139 783 310 871 b 365 897 361 897 363 897 b 383 929 378 897 383 911 b 335 1001 383 960 365 1001 b 319 999 329 1001 324 1000 b 28 414 308 994 28 886 b 336 -39 28 165 133 -39 b 651 472 499 -39 651 121 b 643 582 651 506 649 543 b 721 664 689 601 721 629 b 676 739 721 701 696 739 b 660 721 669 739 664 733 b 621 686 647 707 635 694 b 431 864 590 783 532 864 b 304 732 356 864 304 804 b 513 557 304 625 397 557 l 539 557 b 543 472 542 528 543 499 z m 508 653 b 406 729 436 653 406 696 b 440 764 406 744 413 764 b 525 653 483 764 511 717 z m 301 1088 b 338 1139 306 1111 311 1139 b 467 1063 358 1139 393 1063 b 576 1196 514 1063 576 1107 b 529 1221 576 1208 551 1221 b 492 1193 514 1221 492 1214 b 464 1150 492 1167 482 1150 b 325 1224 421 1150 400 1224 b 219 1097 263 1224 219 1151 b 269 1069 219 1082 246 1069 b 301 1088 283 1069 301 1075 z "},"õ":{"ha":508,"x_min":0,"x_max":0,"o":"m 557 229 b 457 129 549 175 517 129 b 429 132 447 129 439 129 b 449 282 443 179 449 231 b 331 515 449 417 396 515 b 218 353 256 515 218 440 b 318 106 218 253 253 161 b 236 53 300 74 275 53 b 136 228 182 53 136 111 b 200 450 136 365 178 417 b 172 547 236 474 208 547 b 31 219 142 547 31 424 b 233 -39 31 81 93 -39 b 400 61 313 -39 365 1 b 468 51 421 54 443 51 b 636 189 563 51 619 114 b 557 229 654 267 563 261 z m 292 358 b 315 424 292 401 300 424 b 349 260 344 424 349 354 b 344 196 349 239 347 218 b 292 358 313 238 292 296 z m 157 658 b 193 710 161 682 167 710 b 322 633 214 710 249 633 b 432 767 369 633 432 678 b 385 792 432 779 407 792 b 347 764 369 792 347 785 b 319 721 347 738 338 721 b 181 794 276 721 256 794 b 75 668 118 794 75 722 b 125 640 75 653 101 640 b 157 658 139 640 157 646 z "},"Ö":{"ha":707,"x_min":0,"x_max":0,"o":"m 543 472 b 340 65 542 213 456 65 b 139 428 242 65 139 176 b 358 899 139 783 310 871 b 365 897 361 897 363 897 b 383 929 378 897 383 911 b 335 1001 383 960 365 1001 b 319 999 329 1001 324 1000 b 28 414 308 994 28 886 b 336 -39 28 165 133 -39 b 651 472 499 -39 651 121 b 643 582 651 506 649 543 b 721 664 689 601 721 629 b 676 739 721 701 696 739 b 660 721 669 739 664 733 b 621 686 647 707 635 694 b 431 864 590 783 532 864 b 304 732 356 864 304 804 b 513 557 304 625 397 557 l 539 557 b 543 472 542 528 543 499 z m 508 653 b 406 729 436 653 406 696 b 440 764 406 744 413 764 b 525 653 483 764 511 717 z m 228 1135 b 293 1069 228 1099 257 1069 b 358 1135 329 1069 358 1099 b 293 1200 358 1171 329 1200 b 228 1135 257 1200 228 1171 z m 428 1135 b 493 1069 428 1099 457 1069 b 558 1135 529 1069 558 1099 b 493 1200 558 1171 529 1200 b 428 1135 457 1200 428 1171 z "},"ö":{"ha":508,"x_min":0,"x_max":0,"o":"m 557 229 b 457 129 549 175 517 129 b 429 132 447 129 439 129 b 449 282 443 179 449 231 b 331 515 449 417 396 515 b 218 353 256 515 218 440 b 318 106 218 253 253 161 b 236 53 300 74 275 53 b 136 228 182 53 136 111 b 200 450 136 365 178 417 b 172 547 236 474 208 547 b 31 219 142 547 31 424 b 233 -39 31 81 93 -39 b 400 61 313 -39 365 1 b 468 51 421 54 443 51 b 636 189 563 51 619 114 b 557 229 654 267 563 261 z m 292 358 b 315 424 292 401 300 424 b 349 260 344 424 349 354 b 344 196 349 239 347 218 b 292 358 313 238 292 296 z m 83 706 b 149 640 83 669 113 640 b 214 706 185 640 214 669 b 149 771 214 742 185 771 b 83 706 113 771 83 742 z m 283 706 b 349 640 283 669 313 640 b 414 706 385 640 414 669 b 349 771 414 742 385 771 b 283 706 313 771 283 742 z "},"Ō":{"ha":707,"x_min":0,"x_max":0,"o":"m 543 472 b 340 65 542 213 456 65 b 139 428 242 65 139 176 b 358 899 139 783 310 871 b 365 897 361 897 363 897 b 383 929 378 897 383 911 b 335 1001 383 960 365 1001 b 319 999 329 1001 324 1000 b 28 414 308 994 28 886 b 336 -39 28 165 133 -39 b 651 472 499 -39 651 121 b 643 582 651 506 649 543 b 721 664 689 601 721 629 b 676 739 721 701 696 739 b 660 721 669 739 664 733 b 621 686 647 707 635 694 b 431 864 590 783 532 864 b 304 732 356 864 304 804 b 513 557 304 625 397 557 l 539 557 b 543 472 542 528 543 499 z m 508 653 b 406 729 436 653 406 696 b 440 764 406 744 413 764 b 525 653 483 764 511 717 z m 283 1169 b 233 1110 251 1169 233 1147 b 269 1078 233 1090 244 1078 l 510 1078 b 517 1076 513 1076 515 1076 b 553 1133 539 1076 553 1107 b 522 1169 553 1157 546 1172 z "},"ō":{"ha":508,"x_min":0,"x_max":0,"o":"m 557 229 b 457 129 549 175 517 129 b 429 132 447 129 439 129 b 449 282 443 179 449 231 b 331 515 449 417 396 515 b 218 353 256 515 218 440 b 318 106 218 253 253 161 b 236 53 300 74 275 53 b 136 228 182 53 136 111 b 200 450 136 365 178 417 b 172 547 236 474 208 547 b 31 219 142 547 31 424 b 233 -39 31 81 93 -39 b 400 61 313 -39 365 1 b 468 51 421 54 443 51 b 636 189 563 51 619 114 b 557 229 654 267 563 261 z m 292 358 b 315 424 292 401 300 424 b 349 260 344 424 349 354 b 344 196 349 239 347 218 b 292 358 313 238 292 296 z m 139 740 b 89 681 107 740 89 718 b 125 649 89 661 100 649 l 365 649 b 372 647 368 647 371 647 b 408 704 394 647 408 678 b 378 740 408 728 401 743 z "},"Ŏ":{"ha":707,"x_min":0,"x_max":0,"o":"m 543 472 b 340 65 542 213 456 65 b 139 428 242 65 139 176 b 358 899 139 783 310 871 b 365 897 361 897 363 897 b 383 929 378 897 383 911 b 335 1001 383 960 365 1001 b 319 999 329 1001 324 1000 b 28 414 308 994 28 886 b 336 -39 28 165 133 -39 b 651 472 499 -39 651 121 b 643 582 651 506 649 543 b 721 664 689 601 721 629 b 676 739 721 701 696 739 b 660 721 669 739 664 733 b 621 686 647 707 635 694 b 431 864 590 783 532 864 b 304 732 356 864 304 804 b 513 557 304 625 397 557 l 539 557 b 543 472 542 528 543 499 z m 508 653 b 406 729 436 653 406 696 b 440 764 406 744 413 764 b 525 653 483 764 511 717 z m 394 1056 b 551 1211 442 1056 551 1075 b 493 1253 551 1231 518 1253 b 458 1228 472 1253 461 1239 b 393 1140 458 1196 460 1140 b 318 1239 325 1140 321 1199 b 288 1253 314 1246 303 1253 b 225 1221 250 1253 225 1236 b 394 1056 225 1090 326 1056 z "},"ŏ":{"ha":508,"x_min":0,"x_max":0,"o":"m 557 229 b 457 129 549 175 517 129 b 429 132 447 129 439 129 b 449 282 443 179 449 231 b 331 515 449 417 396 515 b 218 353 256 515 218 440 b 318 106 218 253 253 161 b 236 53 300 74 275 53 b 136 228 182 53 136 111 b 200 450 136 365 178 417 b 172 547 236 474 208 547 b 31 219 142 547 31 424 b 233 -39 31 81 93 -39 b 400 61 313 -39 365 1 b 468 51 421 54 443 51 b 636 189 563 51 619 114 b 557 229 654 267 563 261 z m 292 358 b 315 424 292 401 300 424 b 349 260 344 424 349 354 b 344 196 349 239 347 218 b 292 358 313 238 292 296 z m 250 626 b 407 782 297 626 407 646 b 349 824 407 801 374 824 b 314 799 328 824 317 810 b 249 711 314 767 315 711 b 174 810 181 711 176 769 b 143 824 169 817 158 824 b 81 792 106 824 81 807 b 250 626 81 661 182 626 z "},"Ő":{"ha":707,"x_min":0,"x_max":0,"o":"m 543 472 b 340 65 542 213 456 65 b 139 428 242 65 139 176 b 358 899 139 783 310 871 b 365 897 361 897 363 897 b 383 929 378 897 383 911 b 335 1001 383 960 365 1001 b 319 999 329 1001 324 1000 b 28 414 308 994 28 886 b 336 -39 28 165 133 -39 b 651 472 499 -39 651 121 b 643 582 651 506 649 543 b 721 664 689 601 721 629 b 676 739 721 701 696 739 b 660 721 669 739 664 733 b 621 686 647 707 635 694 b 431 864 590 783 532 864 b 304 732 356 864 304 804 b 513 557 304 625 397 557 l 539 557 b 543 472 542 528 543 499 z m 508 653 b 406 729 436 653 406 696 b 440 764 406 744 413 764 b 525 653 483 764 511 717 z m 428 1199 b 438 1226 433 1207 440 1214 b 383 1267 432 1250 410 1267 b 344 1240 364 1267 343 1256 l 256 1094 b 249 1074 251 1088 247 1081 b 299 1042 253 1058 261 1042 b 339 1067 314 1042 332 1049 z m 617 1199 b 629 1226 622 1207 631 1214 b 575 1267 625 1250 601 1267 b 533 1240 556 1267 535 1256 l 431 1094 b 422 1074 425 1088 421 1081 b 472 1042 425 1058 435 1042 b 514 1067 488 1042 506 1049 z "},"ő":{"ha":508,"x_min":0,"x_max":0,"o":"m 557 229 b 457 129 549 175 517 129 b 429 132 447 129 439 129 b 449 282 443 179 449 231 b 331 515 449 417 396 515 b 218 353 256 515 218 440 b 318 106 218 253 253 161 b 236 53 300 74 275 53 b 136 228 182 53 136 111 b 200 450 136 365 178 417 b 172 547 236 474 208 547 b 31 219 142 547 31 424 b 233 -39 31 81 93 -39 b 400 61 313 -39 365 1 b 468 51 421 54 443 51 b 636 189 563 51 619 114 b 557 229 654 267 563 261 z m 292 358 b 315 424 292 401 300 424 b 349 260 344 424 349 354 b 344 196 349 239 347 218 b 292 358 313 238 292 296 z m 283 769 b 293 797 289 778 296 785 b 239 838 288 821 265 838 b 200 811 219 838 199 826 l 111 665 b 104 644 107 658 103 651 b 154 613 108 629 117 613 b 194 638 169 613 188 619 z m 472 769 b 485 797 478 778 486 785 b 431 838 481 821 457 838 b 389 811 411 838 390 826 l 286 665 b 278 644 281 658 276 651 b 328 613 281 629 290 613 b 369 638 343 613 361 619 z "},"Ø":{"ha":707,"x_min":0,"x_max":0,"o":"m 53 -7 b 47 -18 50 -11 49 -14 b 103 -75 43 -44 79 -72 b 129 -67 114 -78 124 -76 l 175 15 b 336 -39 218 -18 272 -39 b 651 472 499 -39 651 121 b 589 763 651 561 636 679 l 651 876 b 654 885 654 878 654 883 b 583 947 660 918 604 944 b 568 940 574 949 569 946 b 567 924 567 935 569 928 l 519 839 b 431 864 494 854 464 864 b 304 732 356 864 304 804 b 346 646 304 704 318 646 b 418 696 378 646 418 685 b 403 729 418 706 403 700 b 440 768 403 744 413 768 b 474 756 453 768 464 764 l 172 211 b 139 428 151 267 139 338 b 358 899 139 783 310 871 b 365 897 361 897 363 897 b 383 929 378 897 383 911 b 335 1001 383 960 365 1001 b 319 999 329 1001 324 1000 b 28 414 308 994 28 886 b 107 92 28 288 54 174 z m 543 472 b 340 65 543 213 454 65 b 231 117 301 65 264 82 l 526 650 b 543 472 539 594 543 528 z "},"ø":{"ha":508,"x_min":0,"x_max":0,"o":"m 557 229 b 457 129 549 175 517 129 b 429 132 447 129 439 129 b 449 282 443 179 449 231 b 400 471 449 363 429 429 l 454 579 b 457 593 457 585 457 590 b 390 642 457 625 407 642 b 379 629 381 642 379 636 b 381 618 379 625 381 621 l 329 515 b 218 353 256 514 218 440 b 222 294 218 333 219 314 l 146 140 b 136 228 139 165 136 193 b 200 450 136 365 178 417 b 172 547 236 474 208 547 b 31 219 142 547 31 424 b 89 24 31 143 49 72 l 36 -86 b 31 -103 32 -92 31 -97 b 83 -147 31 -129 58 -147 b 101 -137 92 -147 97 -146 l 156 -25 b 233 -39 178 -33 204 -39 b 400 61 313 -39 365 1 b 468 51 421 54 443 51 b 636 189 563 51 619 114 b 557 229 654 267 563 261 z m 236 53 b 199 63 224 53 210 56 l 258 182 b 318 106 274 153 293 126 b 236 53 300 74 275 53 z m 304 275 l 344 358 b 349 260 347 332 349 297 b 344 196 349 239 347 218 b 304 275 328 218 313 246 z "},"Ǿ":{"ha":707,"x_min":0,"x_max":0,"o":"m 53 -7 b 47 -18 50 -11 49 -14 b 103 -75 43 -44 79 -72 b 129 -67 114 -78 124 -76 l 175 15 b 336 -39 218 -18 272 -39 b 651 472 499 -39 651 121 b 589 763 651 561 636 679 l 651 876 b 654 885 654 878 654 883 b 583 947 660 918 604 944 b 568 940 574 949 569 946 b 567 924 567 935 569 928 l 519 839 b 431 864 494 854 464 864 b 304 732 356 864 304 804 b 346 646 304 704 318 646 b 418 696 378 646 418 685 b 403 729 418 706 403 700 b 440 768 403 744 413 768 b 474 756 453 768 464 764 l 172 211 b 139 428 151 267 139 338 b 358 899 139 783 310 871 b 365 897 361 897 363 897 b 383 929 378 897 383 911 b 335 1001 383 960 365 1001 b 319 999 329 1001 324 1000 b 28 414 308 994 28 886 b 107 92 28 288 54 174 z m 543 472 b 340 65 543 213 454 65 b 231 117 301 65 264 82 l 526 650 b 543 472 539 594 543 528 z m 558 1199 b 575 1226 565 1207 575 1214 b 518 1267 575 1250 544 1267 b 472 1240 499 1267 475 1256 l 346 1094 b 335 1074 340 1088 335 1081 b 389 1042 335 1058 351 1042 b 435 1067 404 1042 424 1049 z "},"ǿ":{"ha":508,"x_min":0,"x_max":0,"o":"m 557 229 b 457 129 549 175 517 129 b 429 132 447 129 439 129 b 449 282 443 179 449 231 b 400 471 449 363 429 429 l 454 579 b 457 593 457 585 457 590 b 390 642 457 625 407 642 b 379 629 381 642 379 636 b 381 618 379 625 381 621 l 329 515 b 218 353 256 514 218 440 b 222 294 218 333 219 314 l 146 140 b 136 228 139 165 136 193 b 200 450 136 365 178 417 b 172 547 236 474 208 547 b 31 219 142 547 31 424 b 89 24 31 143 49 72 l 36 -86 b 31 -103 32 -92 31 -97 b 83 -147 31 -129 58 -147 b 101 -137 92 -147 97 -146 l 156 -25 b 233 -39 178 -33 204 -39 b 400 61 313 -39 365 1 b 468 51 421 54 443 51 b 636 189 563 51 619 114 b 557 229 654 267 563 261 z m 236 53 b 199 63 224 53 210 56 l 258 182 b 318 106 274 153 293 126 b 236 53 300 74 275 53 z m 304 275 l 344 358 b 349 260 347 332 349 297 b 344 196 349 239 347 218 b 304 275 328 218 313 246 z m 390 771 b 407 799 397 779 407 786 b 350 839 407 822 376 839 b 304 813 331 839 307 828 l 178 667 b 167 646 172 660 167 653 b 221 614 167 631 183 614 b 267 639 236 614 256 621 z "},"Œ":{"ha":1150,"x_min":0,"x_max":0,"o":"m 1118 100 b 1122 119 1121 106 1122 113 b 1065 188 1122 151 1093 188 b 1036 164 1054 188 1043 181 b 832 50 1018 125 949 50 b 696 171 754 50 696 100 b 844 321 696 281 786 314 b 878 393 861 322 878 363 b 854 426 878 411 871 426 b 842 425 850 426 846 426 b 701 611 781 431 701 507 b 960 889 701 744 821 889 b 1047 814 1011 889 1047 864 b 892 628 1047 725 983 628 b 839 642 851 628 849 642 b 824 592 829 642 824 611 b 900 525 824 542 865 525 b 1157 813 1038 525 1157 668 b 960 996 1157 914 1088 996 b 621 688 786 996 656 846 b 431 864 590 782 532 864 b 304 732 356 864 304 804 b 513 557 304 625 397 557 l 539 557 b 543 472 542 528 543 499 b 340 65 542 213 456 65 b 139 428 242 65 139 176 b 358 899 139 783 310 871 b 365 897 361 897 363 897 b 383 929 378 897 383 911 b 335 1001 383 960 365 1001 b 319 999 329 1001 324 1000 b 28 414 308 994 28 886 b 336 -39 28 165 133 -39 b 586 138 433 -39 526 17 b 829 -60 600 11 706 -60 b 1118 100 1007 -60 1094 60 z m 508 653 b 406 729 436 653 406 696 b 440 764 406 744 413 764 b 525 653 485 764 511 715 b 508 653 519 651 514 653 z m 650 436 b 711 378 667 411 688 392 b 640 322 686 364 661 346 b 650 436 646 357 649 396 z "},"œ":{"ha":718,"x_min":0,"x_max":0,"o":"m 236 53 b 136 228 182 53 136 111 b 200 450 136 365 178 417 b 172 547 236 474 208 547 b 31 219 142 547 31 424 b 233 -39 31 81 93 -39 b 399 58 311 -39 365 0 b 582 -39 442 -4 508 -39 b 851 214 786 -39 842 129 b 767 228 857 263 779 290 b 597 53 750 143 706 53 b 468 139 525 53 488 92 b 674 404 603 179 674 301 b 549 544 674 488 626 544 b 410 457 496 544 446 511 b 331 515 389 493 361 515 b 218 353 256 515 218 440 b 318 106 218 253 254 161 b 236 53 300 74 275 53 z m 450 240 b 536 451 447 299 468 451 b 565 403 554 451 565 433 b 451 215 565 319 521 247 b 450 240 451 224 450 232 z m 292 358 b 315 424 292 401 300 424 b 349 260 344 424 349 354 b 344 196 349 239 347 218 b 292 358 313 238 292 296 z "},"Þ":{"ha":801,"x_min":0,"x_max":0,"o":"m 278 1 b 347 -39 278 -19 315 -39 b 386 -7 368 -39 386 -31 l 386 165 b 778 540 590 197 778 342 b 443 819 778 703 646 819 b 386 817 424 819 404 818 l 386 911 b 308 972 386 944 354 972 b 272 949 289 972 272 963 b 278 904 272 939 278 931 l 278 796 b 25 478 122 750 25 635 b 126 265 25 349 104 282 b 204 351 167 235 204 326 b 183 371 204 365 199 375 b 131 490 181 374 131 404 b 278 689 131 575 174 651 z m 444 715 b 671 535 607 715 671 615 b 386 268 671 357 481 276 l 386 713 b 444 715 404 714 424 715 z "},"þ":{"ha":501,"x_min":0,"x_max":0,"o":"m 154 893 b 79 954 154 926 125 954 b 35 939 60 954 35 949 b 49 886 35 929 49 926 l 49 -507 b 81 -544 49 -528 53 -544 b 154 -483 108 -544 154 -535 l 154 -32 b 221 -53 165 -44 188 -53 b 361 11 269 -53 324 -29 b 632 188 546 11 632 124 b 582 240 632 207 606 240 b 550 203 569 240 563 229 b 406 97 518 138 497 101 b 442 300 426 147 442 222 b 281 544 442 438 389 544 b 154 471 222 544 183 513 z m 246 451 b 333 278 293 451 333 406 b 285 83 333 226 318 132 b 154 35 221 78 174 64 l 154 335 b 246 451 169 403 206 451 z "},"Ŕ":{"ha":788,"x_min":0,"x_max":0,"o":"m 278 1 b 347 -39 278 -19 315 -39 b 386 -7 368 -39 386 -31 l 386 186 b 643 -222 575 135 507 -68 b 661 -231 649 -228 654 -231 b 756 -158 683 -231 756 -185 b 729 -139 756 -147 736 -147 b 514 229 635 -37 651 150 b 778 633 660 297 778 444 b 439 972 778 831 642 972 b 25 543 192 972 25 800 b 126 276 25 381 104 297 b 204 363 167 246 204 338 b 183 382 204 376 199 386 b 131 551 181 386 131 429 b 440 868 131 714 226 868 b 671 631 603 868 671 736 b 386 281 671 396 492 300 l 386 735 b 308 796 386 768 354 796 b 272 772 289 796 272 786 b 278 728 272 763 278 754 z m 569 1185 b 586 1213 576 1193 586 1200 b 529 1253 586 1236 556 1253 b 483 1226 510 1253 486 1242 l 357 1081 b 346 1060 351 1074 346 1067 b 400 1028 346 1044 363 1028 b 446 1053 415 1028 435 1035 z "},"ŕ":{"ha":426,"x_min":0,"x_max":0,"o":"m 351 -39 b 550 178 471 -39 525 86 b 551 188 550 181 551 183 b 503 244 551 214 525 244 b 469 203 489 244 475 232 b 369 53 457 142 433 53 b 314 128 332 53 314 89 b 376 447 314 267 376 431 b 310 525 382 479 326 525 l 238 525 b 164 531 224 525 210 525 b 76 604 149 588 110 604 b 7 540 40 604 7 579 b 67 451 7 500 32 471 b 44 210 65 381 60 265 b 122 171 32 163 104 113 b 157 426 147 251 156 372 l 172 426 l 278 426 b 208 119 233 307 208 208 b 351 -39 208 -3 286 -39 z m 344 788 b 361 815 351 796 361 803 b 304 856 361 839 331 856 b 258 829 285 856 261 844 l 132 683 b 121 663 126 676 121 669 b 175 631 121 647 138 631 b 221 656 190 631 210 638 z "},"Ŗ":{"ha":788,"x_min":0,"x_max":0,"o":"m 278 1 b 347 -39 278 -19 315 -39 b 386 -7 368 -39 386 -31 l 386 186 b 643 -222 575 135 507 -68 b 661 -231 649 -228 654 -231 b 756 -158 683 -231 756 -185 b 729 -139 756 -147 736 -147 b 514 229 635 -37 651 150 b 778 633 660 297 778 444 b 439 972 778 831 642 972 b 25 543 192 972 25 800 b 126 276 25 381 104 297 b 204 363 167 246 204 338 b 183 382 204 376 199 386 b 131 551 181 386 131 429 b 440 868 131 714 226 868 b 671 631 603 868 671 736 b 386 281 671 396 492 300 l 386 735 b 308 796 386 768 354 796 b 272 772 289 796 272 786 b 278 728 272 763 278 754 z m 438 -86 b 374 -147 406 -86 374 -108 b 421 -208 374 -181 394 -203 b 378 -253 404 -233 388 -250 b 369 -262 374 -256 369 -256 b 407 -301 369 -278 385 -301 b 501 -161 439 -301 501 -214 b 438 -86 501 -110 471 -86 z "},"ŗ":{"ha":426,"x_min":0,"x_max":0,"o":"m 351 -39 b 550 178 471 -39 525 86 b 551 188 550 181 551 183 b 503 244 551 214 525 244 b 469 203 489 244 475 232 b 369 53 457 142 433 53 b 314 128 332 53 314 89 b 376 447 314 267 376 431 b 310 525 382 479 326 525 l 238 525 b 164 531 224 525 210 525 b 76 604 149 588 110 604 b 7 540 40 604 7 579 b 67 451 7 500 32 471 b 44 210 65 381 60 265 b 122 171 32 163 104 113 b 157 426 147 251 156 372 l 172 426 l 278 426 b 208 119 233 307 208 208 b 351 -39 208 -3 286 -39 z m 188 -72 b 124 -133 156 -72 124 -94 b 171 -194 124 -167 144 -189 b 128 -239 154 -219 138 -236 b 119 -249 124 -242 119 -242 b 157 -287 119 -264 135 -287 b 251 -147 189 -287 251 -200 b 188 -72 251 -96 221 -72 z "},"Ř":{"ha":788,"x_min":0,"x_max":0,"o":"m 278 1 b 347 -39 278 -19 315 -39 b 386 -7 368 -39 386 -31 l 386 186 b 643 -222 575 135 507 -68 b 661 -231 649 -228 654 -231 b 756 -158 683 -231 756 -185 b 729 -139 756 -147 736 -147 b 514 229 635 -37 651 150 b 778 633 660 297 778 444 b 439 972 778 831 642 972 b 25 543 192 972 25 800 b 126 276 25 381 104 297 b 204 363 167 246 204 338 b 183 382 204 376 199 386 b 131 551 181 386 131 429 b 440 868 131 714 226 868 b 671 631 603 868 671 736 b 386 281 671 396 492 300 l 386 735 b 308 796 386 768 354 796 b 272 772 289 796 272 786 b 278 728 272 763 278 754 z m 386 1067 b 453 1028 408 1038 415 1028 b 497 1065 476 1028 489 1040 l 586 1193 b 596 1211 588 1194 596 1206 b 538 1253 596 1231 563 1253 b 504 1229 517 1253 507 1240 l 444 1133 l 376 1239 b 346 1253 372 1246 361 1253 b 283 1221 308 1253 283 1236 b 294 1200 283 1214 289 1207 z "},"ř":{"ha":426,"x_min":0,"x_max":0,"o":"m 351 -39 b 550 178 471 -39 525 86 b 551 188 550 181 551 183 b 503 244 551 214 525 244 b 469 203 489 244 475 232 b 369 53 457 142 433 53 b 314 128 332 53 314 89 b 376 447 314 267 376 431 b 310 525 382 479 326 525 l 238 525 b 164 531 224 525 210 525 b 76 604 149 588 110 604 b 7 540 40 604 7 579 b 67 451 7 500 32 471 b 44 210 65 381 60 265 b 122 171 32 163 104 113 b 157 426 147 251 156 372 l 172 426 l 278 426 b 208 119 233 307 208 208 b 351 -39 208 -3 286 -39 z m 161 669 b 228 631 183 640 190 631 b 272 668 251 631 264 643 l 361 796 b 371 814 363 797 371 808 b 313 856 371 833 338 856 b 279 832 292 856 282 843 l 219 736 l 151 842 b 121 856 147 849 136 856 b 58 824 83 856 58 839 b 69 803 58 817 64 810 z "},"Ś":{"ha":575,"x_min":0,"x_max":0,"o":"m 281 -50 b 488 156 397 -50 488 43 b 147 607 488 388 147 392 b 421 881 147 758 318 881 b 497 804 476 881 497 851 b 297 596 497 713 372 596 b 261 586 274 596 261 610 b 339 506 261 557 290 506 b 603 806 424 506 603 651 b 428 985 603 914 536 985 b 39 607 239 985 39 790 b 378 151 39 324 378 317 b 281 54 378 92 338 54 b 200 88 228 54 204 83 b 185 100 196 96 192 100 b 131 19 164 100 131 51 b 281 -50 131 11 163 -50 z m 524 1199 b 540 1226 531 1207 540 1214 b 483 1267 540 1250 510 1267 b 438 1240 464 1267 440 1256 l 311 1094 b 300 1074 306 1088 300 1081 b 354 1042 300 1058 317 1042 b 400 1067 369 1042 389 1049 z "},"ś":{"ha":443,"x_min":0,"x_max":0,"o":"m 128 190 b 182 358 146 257 160 304 b 282 163 231 308 282 250 b 251 78 282 128 267 96 b 28 158 182 78 56 158 b 28 19 -3 158 -40 85 b 181 -39 56 -7 122 -39 b 317 11 238 -39 283 -18 b 503 78 403 17 460 43 b 567 185 535 104 567 157 b 517 240 567 204 540 240 b 485 203 504 240 494 229 b 371 103 469 158 436 117 b 378 153 375 118 378 136 b 228 450 378 285 293 335 b 261 544 229 458 261 504 b 211 607 261 582 244 607 b 93 497 174 607 93 544 b 115 432 93 474 101 453 b 47 218 90 358 61 279 b 128 190 36 171 113 132 z m 335 833 b 351 861 342 842 351 849 b 294 901 351 885 321 901 b 249 875 275 901 251 890 l 122 729 b 111 708 117 722 111 715 b 165 676 111 693 128 676 b 211 701 181 676 200 683 z "},"Ŝ":{"ha":575,"x_min":0,"x_max":0,"o":"m 281 -50 b 488 156 397 -50 488 43 b 147 607 488 388 147 392 b 421 881 147 758 318 881 b 497 804 476 881 497 851 b 297 596 497 713 372 596 b 261 586 274 596 261 610 b 339 506 261 557 290 506 b 603 806 424 506 603 651 b 428 985 603 914 536 985 b 39 607 239 985 39 790 b 378 151 39 324 378 317 b 281 54 378 92 338 54 b 200 88 228 54 204 83 b 185 100 196 96 192 100 b 131 19 164 100 131 51 b 281 -50 131 11 163 -50 z m 453 1228 b 406 1267 442 1254 439 1267 b 342 1229 382 1267 358 1254 l 244 1090 b 242 1085 243 1089 242 1088 b 301 1042 242 1065 276 1042 b 335 1065 322 1042 328 1053 l 394 1161 l 463 1056 b 493 1042 467 1049 478 1042 b 556 1074 531 1042 556 1058 b 544 1094 556 1081 550 1088 z "},"ŝ":{"ha":443,"x_min":0,"x_max":0,"o":"m 128 190 b 182 358 146 257 160 304 b 282 163 231 308 282 250 b 251 78 282 128 267 96 b 28 158 182 78 56 158 b 28 19 -3 158 -40 85 b 181 -39 56 -7 122 -39 b 317 11 238 -39 283 -18 b 503 78 403 17 460 43 b 567 185 535 104 567 157 b 517 240 567 204 540 240 b 485 203 504 240 494 229 b 371 103 469 158 436 117 b 378 153 375 118 378 136 b 228 450 378 285 293 335 b 261 544 229 458 261 504 b 211 607 261 582 244 607 b 93 497 174 607 93 544 b 115 432 93 474 101 453 b 47 218 90 358 61 279 b 128 190 36 171 113 132 z m 264 863 b 217 901 253 889 250 901 b 153 864 193 901 169 889 l 56 725 b 53 719 54 724 53 722 b 113 676 53 700 88 676 b 146 700 133 676 139 688 l 206 796 l 274 690 b 304 676 278 683 289 676 b 367 708 342 676 367 693 b 356 729 367 715 361 722 z "},"Ş":{"ha":575,"x_min":0,"x_max":0,"o":"m 488 156 b 147 607 488 388 147 392 b 421 881 147 758 318 881 b 497 804 476 881 497 851 b 297 596 497 713 372 596 b 261 586 274 596 261 610 b 339 506 261 557 290 506 b 603 806 424 506 603 651 b 428 985 603 914 536 985 b 39 607 239 985 39 790 b 378 151 39 324 378 317 b 281 54 378 92 338 54 b 200 88 228 54 204 83 b 185 100 196 96 192 100 b 131 19 164 100 131 51 b 240 -47 131 11 156 -36 b 221 -122 233 -71 221 -111 b 333 -199 221 -187 333 -131 b 253 -258 333 -236 301 -258 b 179 -246 232 -258 199 -256 b 160 -279 167 -239 160 -267 b 268 -339 160 -321 189 -339 b 418 -207 379 -339 418 -257 b 306 -86 418 -169 403 -103 l 319 -46 b 488 156 417 -28 488 56 z "},"ş":{"ha":443,"x_min":0,"x_max":0,"o":"m 128 190 b 182 358 146 257 160 304 b 282 163 231 308 282 250 b 251 78 282 128 267 96 b 28 158 182 78 56 158 b 28 19 -3 158 -40 85 b 149 -36 50 -1 99 -28 b 129 -108 140 -60 129 -97 b 242 -185 129 -174 242 -117 b 161 -244 242 -222 210 -244 b 88 -232 140 -244 107 -242 b 68 -265 75 -225 68 -253 b 176 -325 68 -307 97 -325 b 326 -193 288 -325 326 -243 b 214 -72 326 -156 311 -89 l 226 -33 b 317 11 263 -26 293 -10 b 503 78 403 17 460 43 b 567 185 535 104 567 157 b 517 240 567 204 540 240 b 485 203 504 240 494 229 b 371 103 469 158 436 117 b 378 153 375 118 378 136 b 228 450 378 285 293 335 b 261 544 229 458 261 504 b 211 607 261 582 244 607 b 93 497 174 607 93 544 b 115 432 93 474 101 453 b 47 218 90 358 61 279 b 128 190 36 171 113 132 z "},"Š":{"ha":575,"x_min":0,"x_max":0,"o":"m 281 -50 b 488 156 397 -50 488 43 b 147 607 488 388 147 392 b 421 881 147 758 318 881 b 497 804 476 881 497 851 b 297 596 497 713 372 596 b 261 586 274 596 261 610 b 339 506 261 557 290 506 b 603 806 424 506 603 651 b 428 985 603 914 536 985 b 39 607 239 985 39 790 b 378 151 39 324 378 317 b 281 54 378 92 338 54 b 200 88 228 54 204 83 b 185 100 196 96 192 100 b 131 19 164 100 131 51 b 281 -50 131 11 163 -50 z m 340 1081 b 407 1042 363 1051 369 1042 b 451 1079 431 1042 443 1054 l 540 1207 b 550 1225 542 1208 550 1219 b 492 1267 550 1244 517 1267 b 458 1243 471 1267 461 1254 l 399 1147 l 331 1253 b 300 1267 326 1260 315 1267 b 238 1235 263 1267 238 1250 b 249 1214 238 1228 243 1221 z "},"š":{"ha":443,"x_min":0,"x_max":0,"o":"m 128 190 b 182 358 146 257 160 304 b 282 163 231 308 282 250 b 251 78 282 128 267 96 b 28 158 182 78 56 158 b 28 19 -3 158 -40 85 b 181 -39 56 -7 122 -39 b 317 11 238 -39 283 -18 b 503 78 403 17 460 43 b 567 185 535 104 567 157 b 517 240 567 204 540 240 b 485 203 504 240 494 229 b 371 103 469 158 436 117 b 378 153 375 118 378 136 b 228 450 378 285 293 335 b 261 544 229 458 261 504 b 211 607 261 582 244 607 b 93 497 174 607 93 544 b 115 432 93 474 101 453 b 47 218 90 358 61 279 b 128 190 36 171 113 132 z m 151 715 b 218 676 174 686 181 676 b 263 714 242 676 254 689 l 351 842 b 361 860 353 843 361 854 b 303 901 361 879 328 901 b 269 878 282 901 272 889 l 210 782 l 142 888 b 111 901 138 894 126 901 b 49 869 74 901 49 885 b 60 849 49 863 54 856 z "},"Ţ":{"ha":713,"x_min":0,"x_max":0,"o":"m 572 78 l 572 865 b 753 861 638 864 733 861 b 807 935 789 861 807 901 b 790 981 807 956 799 981 b 757 969 786 981 781 969 b 524 972 731 969 590 972 b 25 563 235 972 25 829 b 147 279 25 415 107 308 b 168 272 154 274 161 272 b 235 354 200 272 235 318 b 214 374 235 368 229 378 b 135 563 178 410 135 467 b 464 863 135 778 292 849 l 464 96 b 428 -6 464 25 453 -6 b 404 -12 414 -6 404 6 b 494 -93 404 -39 460 -93 b 572 78 540 -93 572 -44 z m 499 -157 b 435 -218 467 -157 435 -179 b 482 -279 435 -251 456 -274 b 439 -324 465 -304 449 -321 b 431 -333 435 -326 431 -326 b 468 -372 431 -349 446 -372 b 563 -232 500 -372 563 -285 b 499 -157 563 -181 532 -157 z "},"ţ":{"ha":251,"x_min":0,"x_max":0,"o":"m -76 653 b -47 560 -117 653 -92 560 b 49 557 -47 560 -12 557 l 49 115 b 176 -39 49 6 101 -39 b 375 178 296 -39 351 86 b 376 188 376 183 376 186 b 328 244 376 214 350 244 b 294 203 314 244 300 232 b 201 53 282 142 257 53 b 154 117 172 53 154 72 l 154 557 b 421 560 228 557 310 557 b 431 653 457 561 469 694 b 154 647 336 649 239 647 l 154 890 b 79 951 154 924 125 951 b 35 936 60 951 35 946 b 49 883 35 926 49 924 l 49 649 b -76 653 -26 650 -76 653 z m 169 -86 b 106 -147 138 -86 106 -108 b 153 -208 106 -181 126 -203 b 110 -253 136 -233 119 -250 b 101 -262 106 -256 101 -256 b 139 -301 101 -278 117 -301 b 233 -161 171 -301 233 -214 b 169 -86 233 -110 203 -86 z "},"Ť":{"ha":713,"x_min":0,"x_max":0,"o":"m 572 78 l 572 865 b 753 861 638 864 733 861 b 807 935 789 861 807 901 b 790 981 807 956 799 981 b 757 969 786 981 781 969 b 524 972 731 969 590 972 b 25 563 235 972 25 829 b 147 279 25 415 107 308 b 168 272 154 274 161 272 b 235 354 200 272 235 318 b 214 374 235 368 229 378 b 135 563 178 410 135 467 b 464 863 135 778 292 849 l 464 96 b 428 -6 464 25 453 -6 b 404 -12 414 -6 404 6 b 494 -93 404 -39 460 -93 b 572 78 540 -93 572 -44 z m 463 1069 b 529 1031 485 1040 492 1031 b 574 1068 553 1031 565 1043 l 663 1196 b 672 1214 664 1197 672 1208 b 614 1256 672 1233 639 1256 b 581 1232 593 1256 583 1243 l 521 1136 l 453 1242 b 422 1256 449 1249 438 1256 b 360 1224 385 1256 360 1239 b 371 1203 360 1217 365 1210 z "},"ť":{"ha":331,"x_min":0,"x_max":0,"o":"m -76 653 b -47 560 -117 653 -92 560 b 49 557 -47 560 -12 557 l 49 115 b 176 -39 49 6 101 -39 b 375 178 296 -39 351 86 b 376 188 376 183 376 186 b 328 244 376 214 350 244 b 294 203 314 244 300 232 b 201 53 282 142 257 53 b 154 117 172 53 154 72 l 154 557 b 421 560 228 557 310 557 b 431 653 457 561 469 694 b 154 647 336 649 239 647 l 154 890 b 79 951 154 924 125 951 b 35 936 60 951 35 946 b 49 883 35 926 49 924 l 49 649 b -76 653 -26 650 -76 653 z m 269 926 b 206 865 238 926 206 904 b 253 804 206 832 226 810 b 210 760 236 779 219 763 b 201 750 206 757 201 757 b 239 711 201 735 217 711 b 333 851 271 711 333 799 b 269 926 333 903 303 926 z "},"Ŧ":{"ha":713,"x_min":0,"x_max":0,"o":"m 572 78 l 572 567 l 711 567 b 718 565 714 565 717 565 b 754 622 740 565 754 596 b 724 658 754 646 747 661 l 572 658 l 572 865 b 753 861 638 864 733 861 b 807 935 789 861 807 901 b 790 981 807 956 799 981 b 757 969 786 981 781 969 b 524 972 731 969 590 972 b 25 563 235 972 25 829 b 147 279 25 415 107 308 b 168 272 154 274 161 272 b 235 354 200 272 235 318 b 214 374 235 368 229 378 b 135 563 178 410 135 467 b 464 863 135 778 292 849 l 464 658 l 318 658 b 268 599 286 658 268 636 b 304 567 268 579 279 567 l 464 567 l 464 96 b 428 -6 464 25 453 -6 b 404 -12 414 -6 404 6 b 494 -93 404 -39 460 -93 b 572 78 540 -93 572 -44 z "},"ŧ":{"ha":251,"x_min":0,"x_max":0,"o":"m 201 53 b 154 117 172 53 154 72 l 154 357 l 253 357 b 260 356 256 356 258 356 b 296 413 282 356 296 386 b 265 447 296 436 289 450 l 154 447 l 154 557 b 421 560 228 557 310 557 b 431 653 457 561 469 694 b 154 647 336 649 239 647 l 154 890 b 79 951 154 924 125 951 b 35 936 60 951 35 946 b 49 883 35 926 49 924 l 49 649 b -76 653 -26 650 -76 653 b -47 560 -117 653 -92 560 b 49 557 -47 560 -12 557 l 49 447 l -15 447 b -65 389 -47 447 -65 426 b -29 357 -65 369 -54 357 l 49 357 l 49 115 b 176 -39 49 6 101 -39 b 375 178 296 -39 351 86 b 376 188 376 183 376 186 b 328 244 376 214 350 244 b 294 203 314 244 300 232 b 201 53 282 142 257 53 z "},"Ù":{"ha":856,"x_min":0,"x_max":0,"o":"m 668 131 b 722 -39 672 18 674 -39 b 793 -6 753 -39 793 -24 b 789 4 793 -3 792 0 b 776 308 783 49 776 126 l 776 911 b 699 972 776 944 744 972 b 663 949 679 972 663 963 b 668 904 663 939 668 931 l 668 376 b 483 71 668 258 525 71 b 471 90 478 71 471 72 l 471 914 b 415 972 471 947 444 972 b 25 581 251 972 25 875 b 142 304 25 440 93 338 b 242 388 182 275 242 329 b 231 404 242 397 238 404 b 208 399 224 404 217 399 b 135 581 190 399 135 469 b 363 864 135 756 238 849 l 363 82 b 457 -39 363 -10 418 -39 b 668 133 536 -39 611 38 z m 560 1040 b 590 1026 564 1033 575 1026 b 653 1058 628 1026 653 1043 b 642 1079 653 1065 647 1072 l 515 1225 b 475 1251 506 1239 494 1251 b 418 1207 457 1251 418 1233 b 429 1183 418 1200 422 1192 z "},"ù":{"ha":506,"x_min":0,"x_max":0,"o":"m 431 -39 b 629 178 550 -39 604 86 b 631 188 631 183 631 186 b 582 244 631 214 604 244 b 549 203 568 244 554 232 b 456 53 536 142 511 53 b 419 117 419 53 419 104 l 419 469 b 344 531 419 503 390 531 b 300 515 325 531 300 525 b 314 463 300 506 314 503 l 314 239 b 200 51 297 142 256 51 b 136 167 160 51 136 92 b 176 447 136 283 151 344 b 154 524 182 468 222 524 b 81 472 81 524 90 496 b 31 160 81 472 31 307 b 178 -40 31 39 85 -40 b 317 60 239 -40 283 1 b 431 -39 326 4 368 -39 z m 250 621 b 281 607 254 614 265 607 b 343 639 318 607 343 624 b 332 660 343 646 338 653 l 206 806 b 165 832 196 819 185 832 b 108 788 147 832 108 814 b 119 764 108 781 113 772 z "},"Ú":{"ha":856,"x_min":0,"x_max":0,"o":"m 668 131 b 722 -39 672 18 674 -39 b 793 -6 753 -39 793 -24 b 789 4 793 -3 792 0 b 776 308 783 49 776 126 l 776 911 b 699 972 776 944 744 972 b 663 949 679 972 663 963 b 668 904 663 939 668 931 l 668 376 b 483 71 668 258 525 71 b 471 90 478 71 471 72 l 471 914 b 415 972 471 947 444 972 b 25 581 251 972 25 875 b 142 304 25 440 93 338 b 242 388 182 275 242 329 b 231 404 242 397 238 404 b 208 399 224 404 217 399 b 135 581 190 399 135 469 b 363 864 135 756 238 849 l 363 82 b 457 -39 363 -10 418 -39 b 668 133 536 -39 611 38 z m 685 1183 b 701 1211 692 1192 701 1199 b 644 1251 701 1235 671 1251 b 599 1225 625 1251 601 1240 l 472 1079 b 461 1058 467 1072 461 1065 b 515 1026 461 1043 478 1026 b 561 1051 531 1026 550 1033 z "},"ú":{"ha":506,"x_min":0,"x_max":0,"o":"m 431 -39 b 629 178 550 -39 604 86 b 631 188 631 183 631 186 b 582 244 631 214 604 244 b 549 203 568 244 554 232 b 456 53 536 142 511 53 b 419 117 419 53 419 104 l 419 469 b 344 531 419 503 390 531 b 300 515 325 531 300 525 b 314 463 300 506 314 503 l 314 239 b 200 51 297 142 256 51 b 136 167 160 51 136 92 b 176 447 136 283 151 344 b 154 524 182 468 222 524 b 81 472 81 524 90 496 b 31 160 81 472 31 307 b 178 -40 31 39 85 -40 b 317 60 239 -40 283 1 b 431 -39 326 4 368 -39 z m 375 764 b 392 792 382 772 392 779 b 335 832 392 815 361 832 b 289 806 315 832 292 821 l 163 660 b 151 639 157 653 151 646 b 206 607 151 624 168 607 b 251 632 221 607 240 614 z "},"Û":{"ha":856,"x_min":0,"x_max":0,"o":"m 668 131 b 722 -39 672 18 674 -39 b 793 -6 753 -39 793 -24 b 789 4 793 -3 792 0 b 776 308 783 49 776 126 l 776 911 b 699 972 776 944 744 972 b 663 949 679 972 663 963 b 668 904 663 939 668 931 l 668 376 b 483 71 668 258 525 71 b 471 90 478 71 471 72 l 471 914 b 415 972 471 947 444 972 b 25 581 251 972 25 875 b 142 304 25 440 93 338 b 242 388 182 275 242 329 b 231 404 242 397 238 404 b 208 399 224 404 217 399 b 135 581 190 399 135 469 b 363 864 135 756 238 849 l 363 82 b 457 -39 363 -10 418 -39 b 668 133 536 -39 611 38 z m 614 1213 b 567 1251 603 1239 600 1251 b 503 1214 543 1251 519 1239 l 406 1075 b 403 1069 404 1074 403 1072 b 463 1026 403 1050 438 1026 b 496 1050 483 1026 489 1038 l 556 1146 l 624 1040 b 654 1026 628 1033 639 1026 b 717 1058 692 1026 717 1043 b 706 1079 717 1065 711 1072 z "},"û":{"ha":506,"x_min":0,"x_max":0,"o":"m 431 -39 b 629 178 550 -39 604 86 b 631 188 631 183 631 186 b 582 244 631 214 604 244 b 549 203 568 244 554 232 b 456 53 536 142 511 53 b 419 117 419 53 419 104 l 419 469 b 344 531 419 503 390 531 b 300 515 325 531 300 525 b 314 463 300 506 314 503 l 314 239 b 200 51 297 142 256 51 b 136 167 160 51 136 92 b 176 447 136 283 151 344 b 154 524 182 468 222 524 b 81 472 81 524 90 496 b 31 160 81 472 31 307 b 178 -40 31 39 85 -40 b 317 60 239 -40 283 1 b 431 -39 326 4 368 -39 z m 304 793 b 257 832 293 819 290 832 b 193 794 233 832 210 819 l 96 656 b 93 650 94 654 93 653 b 153 607 93 631 128 607 b 186 631 174 607 179 618 l 246 726 l 314 621 b 344 607 318 614 329 607 b 407 639 382 607 407 624 b 396 660 407 646 401 653 z "},"Ü":{"ha":856,"x_min":0,"x_max":0,"o":"m 668 131 b 722 -39 672 18 674 -39 b 793 -6 753 -39 793 -24 b 789 4 793 -3 792 0 b 776 308 783 49 776 126 l 776 911 b 699 972 776 944 744 972 b 663 949 679 972 663 963 b 668 904 663 939 668 931 l 668 376 b 483 71 668 258 525 71 b 471 90 478 71 471 72 l 471 914 b 415 972 471 947 444 972 b 25 581 251 972 25 875 b 142 304 25 440 93 338 b 242 388 182 275 242 329 b 231 404 242 397 238 404 b 208 399 224 404 217 399 b 135 581 190 399 135 469 b 363 864 135 756 238 849 l 363 82 b 457 -39 363 -10 418 -39 b 668 133 536 -39 611 38 z m 394 1119 b 460 1054 394 1083 424 1054 b 525 1119 496 1054 525 1083 b 460 1185 525 1156 496 1185 b 394 1119 424 1185 394 1156 z m 594 1119 b 660 1054 594 1083 624 1054 b 725 1119 696 1054 725 1083 b 660 1185 725 1156 696 1185 b 594 1119 624 1185 594 1156 z "},"ü":{"ha":506,"x_min":0,"x_max":0,"o":"m 431 -39 b 629 178 550 -39 604 86 b 631 188 631 183 631 186 b 582 244 631 214 604 244 b 549 203 568 244 554 232 b 456 53 536 142 511 53 b 419 117 419 53 419 104 l 419 469 b 344 531 419 503 390 531 b 300 515 325 531 300 525 b 314 463 300 506 314 503 l 314 239 b 200 51 297 142 256 51 b 136 167 160 51 136 92 b 176 447 136 283 151 344 b 154 524 182 468 222 524 b 81 472 81 524 90 496 b 31 160 81 472 31 307 b 178 -40 31 39 85 -40 b 317 60 239 -40 283 1 b 431 -39 326 4 368 -39 z m 85 700 b 150 635 85 664 114 635 b 215 700 186 635 215 664 b 150 765 215 736 186 765 b 85 700 114 765 85 736 z m 285 700 b 350 635 285 664 314 635 b 415 700 386 635 415 664 b 350 765 415 736 386 765 b 285 700 314 765 285 736 z "},"Ũ":{"ha":856,"x_min":0,"x_max":0,"o":"m 668 131 b 722 -39 672 18 674 -39 b 793 -6 753 -39 793 -24 b 789 4 793 -3 792 0 b 776 308 783 49 776 126 l 776 911 b 699 972 776 944 744 972 b 663 949 679 972 663 963 b 668 904 663 939 668 931 l 668 376 b 483 71 668 258 525 71 b 471 90 478 71 471 72 l 471 914 b 415 972 471 947 444 972 b 25 581 251 972 25 875 b 142 304 25 440 93 338 b 242 388 182 275 242 329 b 231 404 242 397 238 404 b 208 399 224 404 217 399 b 135 581 190 399 135 469 b 363 864 135 756 238 849 l 363 82 b 457 -39 363 -10 418 -39 b 668 133 536 -39 611 38 z m 468 1072 b 504 1124 472 1096 478 1124 b 633 1047 525 1124 560 1047 b 743 1181 681 1047 743 1092 b 696 1206 743 1193 718 1206 b 658 1178 681 1206 658 1199 b 631 1135 658 1151 649 1135 b 492 1208 588 1135 567 1208 b 386 1082 429 1208 386 1136 b 436 1054 386 1067 413 1054 b 468 1072 450 1054 468 1060 z "},"ũ":{"ha":506,"x_min":0,"x_max":0,"o":"m 431 -39 b 629 178 550 -39 604 86 b 631 188 631 183 631 186 b 582 244 631 214 604 244 b 549 203 568 244 554 232 b 456 53 536 142 511 53 b 419 117 419 53 419 104 l 419 469 b 344 531 419 503 390 531 b 300 515 325 531 300 525 b 314 463 300 506 314 503 l 314 239 b 200 51 297 142 256 51 b 136 167 160 51 136 92 b 176 447 136 283 151 344 b 154 524 182 468 222 524 b 81 472 81 524 90 496 b 31 160 81 472 31 307 b 178 -40 31 39 85 -40 b 317 60 239 -40 283 1 b 431 -39 326 4 368 -39 z m 158 653 b 194 704 163 676 168 704 b 324 628 215 704 250 628 b 433 761 371 628 433 672 b 386 786 433 774 408 786 b 349 758 371 786 349 779 b 321 715 349 732 339 715 b 182 789 278 715 257 789 b 76 663 119 789 76 717 b 126 635 76 647 103 635 b 158 653 140 635 158 640 z "},"Ū":{"ha":856,"x_min":0,"x_max":0,"o":"m 668 131 b 722 -39 672 18 674 -39 b 793 -6 753 -39 793 -24 b 789 4 793 -3 792 0 b 776 308 783 49 776 126 l 776 911 b 699 972 776 944 744 972 b 663 949 679 972 663 963 b 668 904 663 939 668 931 l 668 376 b 483 71 668 258 525 71 b 471 90 478 71 471 72 l 471 914 b 415 972 471 947 444 972 b 25 581 251 972 25 875 b 142 304 25 440 93 338 b 242 388 182 275 242 329 b 231 404 242 397 238 404 b 208 399 224 404 217 399 b 135 581 190 399 135 469 b 363 864 135 756 238 849 l 363 82 b 457 -39 363 -10 418 -39 b 668 133 536 -39 611 38 z m 450 1154 b 400 1094 418 1154 400 1132 b 436 1063 400 1075 411 1063 l 676 1063 b 683 1061 679 1061 682 1061 b 719 1118 706 1061 719 1092 b 689 1154 719 1142 713 1157 z "},"ū":{"ha":506,"x_min":0,"x_max":0,"o":"m 431 -39 b 629 178 550 -39 604 86 b 631 188 631 183 631 186 b 582 244 631 214 604 244 b 549 203 568 244 554 232 b 456 53 536 142 511 53 b 419 117 419 53 419 104 l 419 469 b 344 531 419 503 390 531 b 300 515 325 531 300 525 b 314 463 300 506 314 503 l 314 239 b 200 51 297 142 256 51 b 136 167 160 51 136 92 b 176 447 136 283 151 344 b 154 524 182 468 222 524 b 81 472 81 524 90 496 b 31 160 81 472 31 307 b 178 -40 31 39 85 -40 b 317 60 239 -40 283 1 b 431 -39 326 4 368 -39 z m 140 735 b 90 675 108 735 90 713 b 126 643 90 656 101 643 l 367 643 b 374 642 369 642 372 642 b 410 699 396 642 410 672 b 379 735 410 722 403 738 z "},"Ŭ":{"ha":856,"x_min":0,"x_max":0,"o":"m 668 131 b 722 -39 672 18 674 -39 b 793 -6 753 -39 793 -24 b 789 4 793 -3 792 0 b 776 308 783 49 776 126 l 776 911 b 699 972 776 944 744 972 b 663 949 679 972 663 963 b 668 904 663 939 668 931 l 668 376 b 483 71 668 258 525 71 b 471 90 478 71 471 72 l 471 914 b 415 972 471 947 444 972 b 25 581 251 972 25 875 b 142 304 25 440 93 338 b 242 388 182 275 242 329 b 231 404 242 397 238 404 b 208 399 224 404 217 399 b 135 581 190 399 135 469 b 363 864 135 756 238 849 l 363 82 b 457 -39 363 -10 418 -39 b 668 133 536 -39 611 38 z m 561 1040 b 718 1196 608 1040 718 1060 b 660 1238 718 1215 685 1238 b 625 1213 639 1238 628 1224 b 560 1125 625 1181 626 1125 b 485 1224 492 1125 488 1183 b 454 1238 481 1231 469 1238 b 392 1206 417 1238 392 1221 b 561 1040 392 1075 493 1040 z "},"ŭ":{"ha":506,"x_min":0,"x_max":0,"o":"m 431 -39 b 629 178 550 -39 604 86 b 631 188 631 183 631 186 b 582 244 631 214 604 244 b 549 203 568 244 554 232 b 456 53 536 142 511 53 b 419 117 419 53 419 104 l 419 469 b 344 531 419 503 390 531 b 300 515 325 531 300 525 b 314 463 300 506 314 503 l 314 239 b 200 51 297 142 256 51 b 136 167 160 51 136 92 b 176 447 136 283 151 344 b 154 524 182 468 222 524 b 81 472 81 524 90 496 b 31 160 81 472 31 307 b 178 -40 31 39 85 -40 b 317 60 239 -40 283 1 b 431 -39 326 4 368 -39 z m 251 621 b 408 776 299 621 408 640 b 350 818 408 796 375 818 b 315 793 329 818 318 804 b 250 706 315 761 317 706 b 175 804 182 706 178 764 b 144 818 171 811 160 818 b 82 786 107 818 82 801 b 251 621 82 656 183 621 z "},"Ů":{"ha":856,"x_min":0,"x_max":0,"o":"m 668 131 b 722 -39 672 18 674 -39 b 793 -6 753 -39 793 -24 b 789 4 793 -3 792 0 b 776 308 783 49 776 126 l 776 911 b 699 972 776 944 744 972 b 663 949 679 972 663 963 b 668 904 663 939 668 931 l 668 376 b 483 71 668 258 525 71 b 471 90 478 71 471 72 l 471 914 b 415 972 471 947 444 972 b 25 581 251 972 25 875 b 142 304 25 440 93 338 b 242 388 182 275 242 329 b 231 404 242 397 238 404 b 208 399 224 404 217 399 b 135 581 190 399 135 469 b 363 864 135 756 238 849 l 363 82 b 457 -39 363 -10 418 -39 b 668 133 536 -39 611 38 z m 417 1156 b 560 1013 417 1076 481 1013 b 703 1156 639 1013 703 1076 b 560 1299 703 1235 639 1299 b 417 1156 481 1299 417 1235 z m 499 1156 b 560 1217 499 1189 525 1217 b 621 1156 593 1217 621 1189 b 560 1094 621 1121 593 1094 b 499 1156 525 1094 499 1121 z "},"ů":{"ha":506,"x_min":0,"x_max":0,"o":"m 431 -39 b 629 178 550 -39 604 86 b 631 188 631 183 631 186 b 582 244 631 214 604 244 b 549 203 568 244 554 232 b 456 53 536 142 511 53 b 419 117 419 53 419 104 l 419 469 b 344 531 419 503 390 531 b 300 515 325 531 300 525 b 314 463 300 506 314 503 l 314 239 b 200 51 297 142 256 51 b 136 167 160 51 136 92 b 176 447 136 283 151 344 b 154 524 182 468 222 524 b 81 472 81 524 90 496 b 31 160 81 472 31 307 b 178 -40 31 39 85 -40 b 317 60 239 -40 283 1 b 431 -39 326 4 368 -39 z m 107 736 b 250 593 107 657 171 593 b 393 736 329 593 393 657 b 250 879 393 815 329 879 b 107 736 171 879 107 815 z m 189 736 b 250 797 189 769 215 797 b 311 736 283 797 311 769 b 250 675 311 701 283 675 b 189 736 215 675 189 701 z "},"Ű":{"ha":856,"x_min":0,"x_max":0,"o":"m 668 131 b 722 -39 672 18 674 -39 b 793 -6 753 -39 793 -24 b 789 4 793 -3 792 0 b 776 308 783 49 776 126 l 776 911 b 699 972 776 944 744 972 b 663 949 679 972 663 963 b 668 904 663 939 668 931 l 668 376 b 483 71 668 258 525 71 b 471 90 478 71 471 72 l 471 914 b 415 972 471 947 444 972 b 25 581 251 972 25 875 b 142 304 25 440 93 338 b 242 388 182 275 242 329 b 231 404 242 397 238 404 b 208 399 224 404 217 399 b 135 581 190 399 135 469 b 363 864 135 756 238 849 l 363 82 b 457 -39 363 -10 418 -39 b 668 133 536 -39 611 38 z m 594 1183 b 604 1211 600 1192 607 1199 b 550 1251 599 1235 576 1251 b 511 1225 531 1251 510 1240 l 422 1079 b 415 1058 418 1072 414 1065 b 465 1026 419 1043 428 1026 b 506 1051 481 1026 499 1033 z m 783 1183 b 796 1211 789 1192 797 1199 b 742 1251 792 1235 768 1251 b 700 1225 722 1251 701 1240 l 597 1079 b 589 1058 592 1072 588 1065 b 639 1026 592 1043 601 1026 b 681 1051 654 1026 672 1033 z "},"ű":{"ha":506,"x_min":0,"x_max":0,"o":"m 431 -39 b 629 178 550 -39 604 86 b 631 188 631 183 631 186 b 582 244 631 214 604 244 b 549 203 568 244 554 232 b 456 53 536 142 511 53 b 419 117 419 53 419 104 l 419 469 b 344 531 419 503 390 531 b 300 515 325 531 300 525 b 314 463 300 506 314 503 l 314 239 b 200 51 297 142 256 51 b 136 167 160 51 136 92 b 176 447 136 283 151 344 b 154 524 182 468 222 524 b 81 472 81 524 90 496 b 31 160 81 472 31 307 b 178 -40 31 39 85 -40 b 317 60 239 -40 283 1 b 431 -39 326 4 368 -39 z m 285 764 b 294 792 290 772 297 779 b 240 832 289 815 267 832 b 201 806 221 832 200 821 l 113 660 b 106 639 108 653 104 646 b 156 607 110 624 118 607 b 196 632 171 607 189 614 z m 474 764 b 486 792 479 772 488 779 b 432 832 482 815 458 832 b 390 806 413 832 392 821 l 288 660 b 279 639 282 653 278 646 b 329 607 282 624 292 607 b 371 632 344 607 363 614 z "},"Ų":{"ha":856,"x_min":0,"x_max":0,"o":"m 668 131 b 679 0 669 74 672 28 b 557 -169 606 -53 557 -94 b 707 -287 557 -219 596 -287 b 815 -228 786 -287 815 -269 b 796 -194 815 -215 808 -187 b 714 -207 776 -204 735 -207 b 650 -157 665 -207 650 -183 b 772 -28 650 -100 719 -58 b 793 -6 783 -21 793 -17 b 789 4 793 -3 792 0 b 776 308 783 49 776 126 l 776 911 b 699 972 776 944 744 972 b 663 949 679 972 663 963 b 668 904 663 939 668 931 l 668 376 b 483 71 668 258 525 71 b 471 90 478 71 471 72 l 471 914 b 415 972 471 947 444 972 b 25 581 251 972 25 875 b 142 304 25 440 93 338 b 242 388 182 275 242 329 b 231 404 242 397 238 404 b 208 399 224 404 217 399 b 135 581 190 399 135 469 b 363 864 135 756 238 849 l 363 82 b 457 -39 363 -10 418 -39 b 668 133 536 -39 611 38 z "},"ų":{"ha":506,"x_min":0,"x_max":0,"o":"m 364 -18 b 279 -161 311 -60 279 -104 b 429 -279 279 -211 318 -279 b 538 -219 508 -279 538 -261 b 518 -186 538 -207 531 -179 b 436 -199 499 -196 457 -199 b 372 -149 388 -199 372 -175 b 471 -40 372 -107 421 -61 b 629 178 563 -3 607 96 b 631 188 631 183 631 186 b 582 244 631 214 604 244 b 549 203 568 244 554 232 b 456 53 536 142 511 53 b 419 117 419 53 419 104 l 419 469 b 344 531 419 503 390 531 b 300 515 325 531 300 525 b 314 463 300 506 314 503 l 314 239 b 200 51 297 142 256 51 b 136 167 160 51 136 92 b 176 447 136 283 151 344 b 154 524 182 468 222 524 b 81 472 81 524 90 496 b 31 160 81 472 31 307 b 178 -40 31 39 85 -40 b 317 60 239 -40 283 1 b 364 -18 322 31 339 0 z "},"Ŵ":{"ha":761,"x_min":0,"x_max":0,"o":"m 675 814 b 724 921 675 883 688 910 b 729 926 728 922 729 924 b 639 972 729 939 679 972 b 567 828 606 972 567 940 l 567 168 b 500 63 567 63 518 63 b 435 168 479 63 435 63 l 435 869 b 357 931 435 903 403 931 b 321 907 338 931 321 921 b 326 863 321 897 326 889 l 326 182 b 260 63 326 63 281 63 b 194 168 242 63 194 63 l 194 828 b 121 972 194 940 156 972 b 32 926 82 972 32 939 b 38 921 32 924 33 922 b 86 814 71 910 86 883 l 86 182 b 253 -39 86 19 167 -39 b 372 19 278 -39 333 -33 b 503 -39 415 -33 478 -39 b 675 182 586 -39 675 19 z m 438 1175 b 390 1214 426 1201 424 1214 b 326 1176 367 1214 343 1201 l 229 1038 b 226 1032 228 1036 226 1035 b 286 989 226 1013 261 989 b 319 1013 307 989 313 1000 l 379 1108 l 447 1003 b 478 989 451 996 463 989 b 540 1021 515 989 540 1006 b 529 1042 540 1028 535 1035 z "},"ŵ":{"ha":692,"x_min":0,"x_max":0,"o":"m 292 151 b 222 53 292 99 275 53 b 154 151 163 53 154 101 l 154 469 b 79 531 154 503 125 531 b 43 507 60 531 43 521 b 49 463 43 497 49 489 l 49 153 b 218 -39 49 78 64 -39 b 344 28 271 -39 326 -8 b 471 -39 364 -8 411 -39 b 640 151 614 -39 640 65 l 640 469 b 565 531 640 503 611 531 b 529 507 546 531 529 521 b 535 463 529 497 535 489 l 535 151 b 465 53 535 99 518 53 b 397 151 411 53 399 93 l 397 469 b 322 531 397 503 368 531 b 286 507 303 531 286 521 b 292 463 286 497 292 489 z m 396 793 b 349 832 385 819 382 832 b 285 794 325 832 301 819 l 188 656 b 185 650 186 654 185 653 b 244 607 185 631 219 607 b 278 631 265 607 271 618 l 338 726 l 406 621 b 436 607 410 614 421 607 b 499 639 474 607 499 624 b 488 660 499 646 493 653 z "},"Ẁ":{"ha":761,"x_min":0,"x_max":0,"o":"m 675 814 b 724 921 675 883 688 910 b 729 926 728 922 729 924 b 639 972 729 939 679 972 b 567 828 606 972 567 940 l 567 168 b 500 63 567 63 518 63 b 435 168 479 63 435 63 l 435 869 b 357 931 435 903 403 931 b 321 907 338 931 321 921 b 326 863 321 897 326 889 l 326 182 b 260 63 326 63 281 63 b 194 168 242 63 194 63 l 194 828 b 121 972 194 940 156 972 b 32 926 82 972 32 939 b 38 921 32 924 33 922 b 86 814 71 910 86 883 l 86 182 b 253 -39 86 19 167 -39 b 372 19 278 -39 333 -33 b 503 -39 415 -33 478 -39 b 675 182 586 -39 675 19 z m 383 1003 b 414 989 388 996 399 989 b 476 1021 451 989 476 1006 b 465 1042 476 1028 471 1035 l 339 1188 b 299 1214 329 1201 318 1214 b 242 1169 281 1214 242 1196 b 253 1146 242 1163 246 1154 z "},"ẁ":{"ha":692,"x_min":0,"x_max":0,"o":"m 292 151 b 222 53 292 99 275 53 b 154 151 163 53 154 101 l 154 469 b 79 531 154 503 125 531 b 43 507 60 531 43 521 b 49 463 43 497 49 489 l 49 153 b 218 -39 49 78 64 -39 b 344 28 271 -39 326 -8 b 471 -39 364 -8 411 -39 b 640 151 614 -39 640 65 l 640 469 b 565 531 640 503 611 531 b 529 507 546 531 529 521 b 535 463 529 497 535 489 l 535 151 b 465 53 535 99 518 53 b 397 151 411 53 399 93 l 397 469 b 322 531 397 503 368 531 b 286 507 303 531 286 521 b 292 463 286 497 292 489 z m 342 621 b 372 607 346 614 357 607 b 435 639 410 607 435 624 b 424 660 435 646 429 653 l 297 806 b 257 832 288 819 276 832 b 200 788 239 832 200 814 b 211 764 200 781 204 772 z "},"Ẃ":{"ha":761,"x_min":0,"x_max":0,"o":"m 675 814 b 724 921 675 883 688 910 b 729 926 728 922 729 924 b 639 972 729 939 679 972 b 567 828 606 972 567 940 l 567 168 b 500 63 567 63 518 63 b 435 168 479 63 435 63 l 435 869 b 357 931 435 903 403 931 b 321 907 338 931 321 921 b 326 863 321 897 326 889 l 326 182 b 260 63 326 63 281 63 b 194 168 242 63 194 63 l 194 828 b 121 972 194 940 156 972 b 32 926 82 972 32 939 b 38 921 32 924 33 922 b 86 814 71 910 86 883 l 86 182 b 253 -39 86 19 167 -39 b 372 19 278 -39 333 -33 b 503 -39 415 -33 478 -39 b 675 182 586 -39 675 19 z m 508 1146 b 525 1174 515 1154 525 1161 b 468 1214 525 1197 494 1214 b 422 1188 449 1214 425 1203 l 296 1042 b 285 1021 290 1035 285 1028 b 339 989 285 1006 301 989 b 385 1014 354 989 374 996 z "},"ẃ":{"ha":692,"x_min":0,"x_max":0,"o":"m 292 151 b 222 53 292 99 275 53 b 154 151 163 53 154 101 l 154 469 b 79 531 154 503 125 531 b 43 507 60 531 43 521 b 49 463 43 497 49 489 l 49 153 b 218 -39 49 78 64 -39 b 344 28 271 -39 326 -8 b 471 -39 364 -8 411 -39 b 640 151 614 -39 640 65 l 640 469 b 565 531 640 503 611 531 b 529 507 546 531 529 521 b 535 463 529 497 535 489 l 535 151 b 465 53 535 99 518 53 b 397 151 411 53 399 93 l 397 469 b 322 531 397 503 368 531 b 286 507 303 531 286 521 b 292 463 286 497 292 489 z m 467 764 b 483 792 474 772 483 779 b 426 832 483 815 453 832 b 381 806 407 832 383 821 l 254 660 b 243 639 249 653 243 646 b 297 607 243 624 260 607 b 343 632 313 607 332 614 z "},"Ẅ":{"ha":761,"x_min":0,"x_max":0,"o":"m 675 814 b 724 921 675 883 688 910 b 729 926 728 922 729 924 b 639 972 729 939 679 972 b 567 828 606 972 567 940 l 567 168 b 500 63 567 63 518 63 b 435 168 479 63 435 63 l 435 869 b 357 931 435 903 403 931 b 321 907 338 931 321 921 b 326 863 321 897 326 889 l 326 182 b 260 63 326 63 281 63 b 194 168 242 63 194 63 l 194 828 b 121 972 194 940 156 972 b 32 926 82 972 32 939 b 38 921 32 924 33 922 b 86 814 71 910 86 883 l 86 182 b 253 -39 86 19 167 -39 b 372 19 278 -39 333 -33 b 503 -39 415 -33 478 -39 b 675 182 586 -39 675 19 z m 218 1082 b 283 1017 218 1046 247 1017 b 349 1082 319 1017 349 1046 b 283 1147 349 1118 319 1147 b 218 1082 247 1147 218 1118 z m 418 1082 b 483 1017 418 1046 447 1017 b 549 1082 519 1017 549 1046 b 483 1147 549 1118 519 1147 b 418 1082 447 1147 418 1118 z "},"ẅ":{"ha":692,"x_min":0,"x_max":0,"o":"m 292 151 b 222 53 292 99 275 53 b 154 151 163 53 154 101 l 154 469 b 79 531 154 503 125 531 b 43 507 60 531 43 521 b 49 463 43 497 49 489 l 49 153 b 218 -39 49 78 64 -39 b 344 28 271 -39 326 -8 b 471 -39 364 -8 411 -39 b 640 151 614 -39 640 65 l 640 469 b 565 531 640 503 611 531 b 529 507 546 531 529 521 b 535 463 529 497 535 489 l 535 151 b 465 53 535 99 518 53 b 397 151 411 53 399 93 l 397 469 b 322 531 397 503 368 531 b 286 507 303 531 286 521 b 292 463 286 497 292 489 z m 176 700 b 242 635 176 664 206 635 b 307 700 278 635 307 664 b 242 765 307 736 278 765 b 176 700 206 765 176 736 z m 376 700 b 442 635 376 664 406 635 b 507 700 478 635 507 664 b 442 765 507 736 478 765 b 376 700 406 765 376 736 z "},"Ý":{"ha":863,"x_min":0,"x_max":0,"o":"m 776 911 b 699 972 776 944 744 972 b 663 949 679 972 663 963 b 668 904 663 939 668 931 l 668 376 b 483 71 668 258 525 71 b 471 90 478 71 471 72 l 471 914 b 415 972 471 947 444 972 b 25 581 251 972 25 875 b 142 304 25 440 93 338 b 242 388 182 275 242 329 b 231 404 242 397 238 404 b 208 399 224 404 217 399 b 135 581 190 399 135 469 b 363 864 135 756 238 849 l 363 82 b 457 -39 363 -10 418 -39 b 668 133 536 -39 611 38 l 668 -58 l 668 -74 b 415 -328 540 -111 415 -187 b 571 -492 415 -421 476 -492 b 775 -154 732 -492 767 -314 b 832 -151 793 -153 811 -151 b 850 -42 881 -150 915 -37 b 776 -49 828 -43 803 -44 l 776 -7 z m 574 -385 b 524 -325 546 -385 524 -367 b 665 -176 524 -256 574 -204 b 574 -385 658 -286 636 -385 z m 688 1185 b 704 1213 694 1193 704 1200 b 647 1253 704 1236 674 1253 b 601 1226 628 1253 604 1242 l 475 1081 b 464 1060 469 1074 464 1067 b 518 1028 464 1044 481 1028 b 564 1053 533 1028 553 1035 z "},"ý":{"ha":499,"x_min":0,"x_max":0,"o":"m 542 203 b 419 -18 514 107 469 38 l 419 469 b 344 531 419 503 390 531 b 308 507 325 531 308 521 b 314 463 308 497 314 489 l 314 239 b 200 51 297 142 256 51 b 136 167 160 51 136 92 b 176 447 136 283 151 344 b 154 524 182 468 222 524 b 81 472 81 524 90 496 b 31 160 81 472 31 307 b 178 -40 31 39 85 -40 b 314 56 238 -40 281 0 l 314 -121 b 142 -412 222 -201 142 -272 b 275 -572 142 -501 197 -572 b 419 -375 346 -572 419 -521 l 419 -135 b 622 174 494 -69 575 13 b 624 188 624 179 624 186 b 575 244 624 214 597 244 b 542 203 561 244 550 232 z m 275 -485 b 239 -408 253 -485 239 -451 b 314 -226 239 -325 269 -272 l 314 -375 b 275 -485 314 -401 319 -485 z m 390 764 b 407 792 397 772 407 779 b 350 832 407 815 376 832 b 304 806 331 832 307 821 l 178 660 b 167 639 172 653 167 646 b 221 607 167 624 183 607 b 267 632 236 607 256 614 z "},"Ŷ":{"ha":863,"x_min":0,"x_max":0,"o":"m 776 911 b 699 972 776 944 744 972 b 663 949 679 972 663 963 b 668 904 663 939 668 931 l 668 376 b 483 71 668 258 525 71 b 471 90 478 71 471 72 l 471 914 b 415 972 471 947 444 972 b 25 581 251 972 25 875 b 142 304 25 440 93 338 b 242 388 182 275 242 329 b 231 404 242 397 238 404 b 208 399 224 404 217 399 b 135 581 190 399 135 469 b 363 864 135 756 238 849 l 363 82 b 457 -39 363 -10 418 -39 b 668 133 536 -39 611 38 l 668 -58 l 668 -74 b 415 -328 540 -111 415 -187 b 571 -492 415 -421 476 -492 b 775 -154 732 -492 767 -314 b 832 -151 793 -153 811 -151 b 850 -42 881 -150 915 -37 b 776 -49 828 -43 803 -44 l 776 -7 z m 574 -385 b 524 -325 546 -385 524 -367 b 665 -176 524 -256 574 -204 b 574 -385 658 -286 636 -385 z m 617 1214 b 569 1253 606 1240 603 1253 b 506 1215 546 1253 522 1240 l 408 1076 b 406 1071 407 1075 406 1074 b 465 1028 406 1051 440 1028 b 499 1051 486 1028 492 1039 l 558 1147 l 626 1042 b 657 1028 631 1035 642 1028 b 719 1060 694 1028 719 1044 b 708 1081 719 1067 714 1074 z "},"ŷ":{"ha":499,"x_min":0,"x_max":0,"o":"m 542 203 b 419 -18 514 107 469 38 l 419 469 b 344 531 419 503 390 531 b 308 507 325 531 308 521 b 314 463 308 497 314 489 l 314 239 b 200 51 297 142 256 51 b 136 167 160 51 136 92 b 176 447 136 283 151 344 b 154 524 182 468 222 524 b 81 472 81 524 90 496 b 31 160 81 472 31 307 b 178 -40 31 39 85 -40 b 314 56 238 -40 281 0 l 314 -121 b 142 -412 222 -201 142 -272 b 275 -572 142 -501 197 -572 b 419 -375 346 -572 419 -521 l 419 -135 b 622 174 494 -69 575 13 b 624 188 624 179 624 186 b 575 244 624 214 597 244 b 542 203 561 244 550 232 z m 275 -485 b 239 -408 253 -485 239 -451 b 314 -226 239 -325 269 -272 l 314 -375 b 275 -485 314 -401 319 -485 z m 319 793 b 272 832 308 819 306 832 b 208 794 249 832 225 819 l 111 656 b 108 650 110 654 108 653 b 168 607 108 631 143 607 b 201 631 189 607 194 618 l 261 726 l 329 621 b 360 607 333 614 344 607 b 422 639 397 607 422 624 b 411 660 422 646 417 653 z "},"Ÿ":{"ha":863,"x_min":0,"x_max":0,"o":"m 776 911 b 699 972 776 944 744 972 b 663 949 679 972 663 963 b 668 904 663 939 668 931 l 668 376 b 483 71 668 258 525 71 b 471 90 478 71 471 72 l 471 914 b 415 972 471 947 444 972 b 25 581 251 972 25 875 b 142 304 25 440 93 338 b 242 388 182 275 242 329 b 231 404 242 397 238 404 b 208 399 224 404 217 399 b 135 581 190 399 135 469 b 363 864 135 756 238 849 l 363 82 b 457 -39 363 -10 418 -39 b 668 133 536 -39 611 38 l 668 -58 l 668 -74 b 415 -328 540 -111 415 -187 b 571 -492 415 -421 476 -492 b 775 -154 732 -492 767 -314 b 832 -151 793 -153 811 -151 b 850 -42 881 -150 915 -37 b 776 -49 828 -43 803 -44 l 776 -7 z m 574 -385 b 524 -325 546 -385 524 -367 b 665 -176 524 -256 574 -204 b 574 -385 658 -286 636 -385 z m 397 1121 b 463 1056 397 1085 426 1056 b 528 1121 499 1056 528 1085 b 463 1186 528 1157 499 1186 b 397 1121 426 1186 397 1157 z m 597 1121 b 663 1056 597 1085 626 1056 b 728 1121 699 1056 728 1085 b 663 1186 728 1157 699 1186 b 597 1121 626 1186 597 1157 z "},"ÿ":{"ha":499,"x_min":0,"x_max":0,"o":"m 542 203 b 419 -18 514 107 469 38 l 419 469 b 344 531 419 503 390 531 b 308 507 325 531 308 521 b 314 463 308 497 314 489 l 314 239 b 200 51 297 142 256 51 b 136 167 160 51 136 92 b 176 447 136 283 151 344 b 154 524 182 468 222 524 b 81 472 81 524 90 496 b 31 160 81 472 31 307 b 178 -40 31 39 85 -40 b 314 56 238 -40 281 0 l 314 -121 b 142 -412 222 -201 142 -272 b 275 -572 142 -501 197 -572 b 419 -375 346 -572 419 -521 l 419 -135 b 622 174 494 -69 575 13 b 624 188 624 179 624 186 b 575 244 624 214 597 244 b 542 203 561 244 550 232 z m 275 -485 b 239 -408 253 -485 239 -451 b 314 -226 239 -325 269 -272 l 314 -375 b 275 -485 314 -401 319 -485 z m 100 700 b 165 635 100 664 129 635 b 231 700 201 635 231 664 b 165 765 231 736 201 765 b 100 700 129 765 100 736 z m 300 700 b 365 635 300 664 329 635 b 431 700 401 635 431 664 b 365 765 431 736 401 765 b 300 700 329 765 300 736 z "},"Ỳ":{"ha":863,"x_min":0,"x_max":0,"o":"m 776 911 b 699 972 776 944 744 972 b 663 949 679 972 663 963 b 668 904 663 939 668 931 l 668 376 b 483 71 668 258 525 71 b 471 90 478 71 471 72 l 471 914 b 415 972 471 947 444 972 b 25 581 251 972 25 875 b 142 304 25 440 93 338 b 242 388 182 275 242 329 b 231 404 242 397 238 404 b 208 399 224 404 217 399 b 135 581 190 399 135 469 b 363 864 135 756 238 849 l 363 82 b 457 -39 363 -10 418 -39 b 668 133 536 -39 611 38 l 668 -58 l 668 -74 b 415 -328 540 -111 415 -187 b 571 -492 415 -421 476 -492 b 775 -154 732 -492 767 -314 b 832 -151 793 -153 811 -151 b 850 -42 881 -150 915 -37 b 776 -49 828 -43 803 -44 l 776 -7 z m 574 -385 b 524 -325 546 -385 524 -367 b 665 -176 524 -256 574 -204 b 574 -385 658 -286 636 -385 z m 563 1042 b 593 1028 567 1035 578 1028 b 656 1060 631 1028 656 1044 b 644 1081 656 1067 650 1074 l 518 1226 b 478 1253 508 1240 497 1253 b 421 1208 460 1253 421 1235 b 432 1185 421 1201 425 1193 z "},"ỳ":{"ha":499,"x_min":0,"x_max":0,"o":"m 542 203 b 419 -18 514 107 469 38 l 419 469 b 344 531 419 503 390 531 b 308 507 325 531 308 521 b 314 463 308 497 314 489 l 314 239 b 200 51 297 142 256 51 b 136 167 160 51 136 92 b 176 447 136 283 151 344 b 154 524 182 468 222 524 b 81 472 81 524 90 496 b 31 160 81 472 31 307 b 178 -40 31 39 85 -40 b 314 56 238 -40 281 0 l 314 -121 b 142 -412 222 -201 142 -272 b 275 -572 142 -501 197 -572 b 419 -375 346 -572 419 -521 l 419 -135 b 622 174 494 -69 575 13 b 624 188 624 179 624 186 b 575 244 624 214 597 244 b 542 203 561 244 550 232 z m 275 -485 b 239 -408 253 -485 239 -451 b 314 -226 239 -325 269 -272 l 314 -375 b 275 -485 314 -401 319 -485 z m 265 621 b 296 607 269 614 281 607 b 358 639 333 607 358 624 b 347 660 358 646 353 653 l 221 806 b 181 832 211 819 200 832 b 124 788 163 832 124 814 b 135 764 124 781 128 772 z "},"Ź":{"ha":676,"x_min":0,"x_max":0,"o":"m 219 -346 b 375 -510 219 -439 281 -510 b 578 -206 532 -510 578 -346 b 576 -174 578 -194 578 -183 b 636 -169 596 -171 615 -169 b 654 -60 685 -168 719 -56 b 561 -71 626 -61 594 -64 b 428 101 535 25 481 78 b 635 589 514 174 635 315 b 342 972 635 825 513 972 b 39 594 201 972 39 853 b 247 257 39 371 183 257 b 317 342 290 257 317 293 b 310 361 317 357 314 361 b 288 357 304 361 297 357 b 150 601 246 357 150 425 b 339 864 150 771 243 864 b 524 596 389 864 524 833 b 288 136 524 221 297 135 b 276 138 283 138 279 138 b 253 103 260 138 253 122 b 300 35 253 74 269 36 b 457 -96 375 32 432 -14 b 219 -346 335 -135 219 -211 z m 472 -204 b 378 -403 472 -296 443 -403 b 328 -343 350 -403 328 -385 b 472 -193 328 -274 379 -221 z m 482 1185 b 499 1213 489 1193 499 1200 b 442 1253 499 1236 468 1253 b 396 1226 422 1253 399 1242 l 269 1081 b 258 1060 264 1074 258 1067 b 313 1028 258 1044 275 1028 b 358 1053 328 1028 347 1035 z "},"ź":{"ha":500,"x_min":0,"x_max":0,"o":"m 143 -412 b 276 -572 143 -501 199 -572 b 440 -257 403 -572 440 -403 b 432 -124 440 -206 438 -161 b 624 174 504 -61 578 21 b 625 188 625 179 625 186 b 576 244 625 214 599 244 b 543 203 563 244 551 232 b 410 -29 514 100 464 28 b 296 99 386 32 349 69 b 474 353 394 143 474 236 b 289 544 474 460 406 544 b 47 221 128 544 82 403 b 125 185 40 186 106 106 b 289 453 176 400 219 453 b 368 364 343 453 368 411 b 167 111 368 225 264 139 l 186 35 b 324 -112 271 35 308 -35 b 143 -412 229 -197 143 -268 z m 335 -276 b 276 -485 335 -351 329 -485 b 240 -408 254 -485 240 -451 b 333 -208 240 -314 279 -258 b 335 -276 335 -233 335 -257 z m 414 771 b 431 799 421 779 431 786 b 374 839 431 822 400 839 b 328 813 354 839 331 828 l 201 667 b 190 646 196 660 190 653 b 244 614 190 631 207 614 b 290 639 260 614 279 621 z "},"Ż":{"ha":676,"x_min":0,"x_max":0,"o":"m 219 -346 b 375 -510 219 -439 281 -510 b 578 -206 532 -510 578 -346 b 576 -174 578 -194 578 -183 b 636 -169 596 -171 615 -169 b 654 -60 685 -168 719 -56 b 561 -71 626 -61 594 -64 b 428 101 535 25 481 78 b 635 589 514 174 635 315 b 342 972 635 825 513 972 b 39 594 201 972 39 853 b 247 257 39 371 183 257 b 317 342 290 257 317 293 b 310 361 317 357 314 361 b 288 357 304 361 297 357 b 150 601 246 357 150 425 b 339 864 150 771 243 864 b 524 596 389 864 524 833 b 288 136 524 221 297 135 b 276 138 283 138 279 138 b 253 103 260 138 253 122 b 300 35 253 74 269 36 b 457 -96 375 32 432 -14 b 219 -346 335 -135 219 -211 z m 472 -204 b 378 -403 472 -296 443 -403 b 328 -343 350 -403 328 -385 b 472 -193 328 -274 379 -221 z m 288 1111 b 357 1042 288 1072 318 1042 b 426 1111 396 1042 426 1072 b 357 1181 426 1150 396 1181 b 288 1111 318 1181 288 1150 z "},"ż":{"ha":500,"x_min":0,"x_max":0,"o":"m 143 -412 b 276 -572 143 -501 199 -572 b 440 -257 403 -572 440 -403 b 432 -124 440 -206 438 -161 b 624 174 504 -61 578 21 b 625 188 625 179 625 186 b 576 244 625 214 599 244 b 543 203 563 244 551 232 b 410 -29 514 100 464 28 b 296 99 386 32 349 69 b 474 353 394 143 474 236 b 289 544 474 460 406 544 b 47 221 128 544 82 403 b 125 185 40 186 106 106 b 289 453 176 400 219 453 b 368 364 343 453 368 411 b 167 111 368 225 264 139 l 186 35 b 324 -112 271 35 308 -35 b 143 -412 229 -197 143 -268 z m 335 -276 b 276 -485 335 -351 329 -485 b 240 -408 254 -485 240 -451 b 333 -208 240 -314 279 -258 b 335 -276 335 -233 335 -257 z m 219 697 b 289 628 219 658 250 628 b 358 697 328 628 358 658 b 289 767 358 736 328 767 b 219 697 250 767 219 736 z "},"Ž":{"ha":676,"x_min":0,"x_max":0,"o":"m 219 -346 b 375 -510 219 -439 281 -510 b 578 -206 532 -510 578 -346 b 576 -174 578 -194 578 -183 b 636 -169 596 -171 615 -169 b 654 -60 685 -168 719 -56 b 561 -71 626 -61 594 -64 b 428 101 535 25 481 78 b 635 589 514 174 635 315 b 342 972 635 825 513 972 b 39 594 201 972 39 853 b 247 257 39 371 183 257 b 317 342 290 257 317 293 b 310 361 317 357 314 361 b 288 357 304 361 297 357 b 150 601 246 357 150 425 b 339 864 150 771 243 864 b 524 596 389 864 524 833 b 288 136 524 221 297 135 b 276 138 283 138 279 138 b 253 103 260 138 253 122 b 300 35 253 74 269 36 b 457 -96 375 32 432 -14 b 219 -346 335 -135 219 -211 z m 472 -204 b 378 -403 472 -296 443 -403 b 328 -343 350 -403 328 -385 b 472 -193 328 -274 379 -221 z m 299 1067 b 365 1028 321 1038 328 1028 b 410 1065 389 1028 401 1040 l 499 1193 b 508 1211 500 1194 508 1206 b 450 1253 508 1231 475 1253 b 417 1229 429 1253 419 1240 l 357 1133 l 289 1239 b 258 1253 285 1246 274 1253 b 196 1221 221 1253 196 1236 b 207 1200 196 1214 201 1207 z "},"ž":{"ha":500,"x_min":0,"x_max":0,"o":"m 143 -412 b 276 -572 143 -501 199 -572 b 440 -257 403 -572 440 -403 b 432 -124 440 -206 438 -161 b 624 174 504 -61 578 21 b 625 188 625 179 625 186 b 576 244 625 214 599 244 b 543 203 563 244 551 232 b 410 -29 514 100 464 28 b 296 99 386 32 349 69 b 474 353 394 143 474 236 b 289 544 474 460 406 544 b 47 221 128 544 82 403 b 125 185 40 186 106 106 b 289 453 176 400 219 453 b 368 364 343 453 368 411 b 167 111 368 225 264 139 l 186 35 b 324 -112 271 35 308 -35 b 143 -412 229 -197 143 -268 z m 335 -276 b 276 -485 335 -351 329 -485 b 240 -408 254 -485 240 -451 b 333 -208 240 -314 279 -258 b 335 -276 335 -233 335 -257 z m 231 653 b 297 614 253 624 260 614 b 342 651 321 614 333 626 l 431 779 b 440 797 432 781 440 792 b 382 839 440 817 407 839 b 349 815 361 839 351 826 l 289 719 l 221 825 b 190 839 217 832 206 839 b 128 807 153 839 128 822 b 139 786 128 800 133 793 z "},"$":{"ha":549,"x_min":0,"x_max":0,"o":"m 240 -46 b 289 -86 240 -74 263 -86 b 317 -61 308 -86 317 -79 l 317 50 b 456 219 393 72 456 139 b 317 408 456 315 388 365 l 317 807 b 357 814 331 811 344 814 b 415 754 400 814 415 792 b 372 661 415 708 406 661 b 360 632 364 661 353 651 b 414 592 367 611 390 592 b 518 761 467 592 518 676 b 368 915 518 854 461 915 b 317 910 350 915 333 913 l 317 990 b 274 1025 317 1017 300 1025 b 233 1010 247 1025 233 1021 b 240 992 233 1003 240 996 l 240 882 b 39 596 129 826 39 708 b 240 338 39 450 149 389 l 240 133 b 157 176 189 142 174 176 b 107 106 138 176 107 133 b 240 43 107 99 153 51 z m 144 596 b 240 767 144 665 188 726 l 240 454 b 144 596 186 490 144 531 z m 358 215 b 317 142 358 183 346 156 l 317 289 b 358 215 342 268 358 244 z "},"¢":{"ha":499,"x_min":0,"x_max":0,"o":"m 235 51 b 283 11 235 24 257 11 b 311 36 303 11 311 18 l 311 169 b 432 207 361 171 400 185 b 372 281 485 246 432 332 b 311 261 360 272 335 263 l 311 651 b 346 585 336 636 339 603 b 433 617 338 536 433 564 b 311 751 433 663 399 742 l 311 865 b 268 900 311 892 294 900 b 228 885 242 900 228 896 b 235 867 228 878 235 871 l 235 743 b 53 432 125 706 53 568 b 235 176 53 288 135 200 z m 161 432 b 235 643 161 528 189 610 l 235 276 b 161 432 189 301 161 354 z "},"£":{"ha":658,"x_min":0,"x_max":0,"o":"m 438 322 b 450 411 469 322 493 443 l 272 411 b 229 619 250 481 229 553 b 386 865 229 779 299 865 b 481 765 443 865 481 819 b 436 668 481 733 469 667 b 499 614 399 669 442 614 b 583 776 554 614 583 713 b 400 972 583 885 510 972 b 118 638 222 972 118 804 b 161 411 118 549 138 476 l 67 411 b 46 383 53 411 46 399 b 86 322 46 354 57 322 l 194 322 b 229 161 214 268 229 217 b 215 103 229 142 224 121 b 14 46 146 131 14 140 b 144 -39 14 -8 64 -39 b 251 -4 181 -39 226 -25 b 447 -51 308 -25 385 -51 b 631 161 565 -51 631 53 b 554 219 631 197 603 219 b 538 210 543 219 538 217 b 540 185 538 204 540 197 b 438 42 540 115 529 42 b 304 72 390 42 353 54 b 329 172 319 100 329 146 b 301 322 329 218 317 269 z "},"¥":{"ha":919,"x_min":0,"x_max":0,"o":"m 856 -129 b 868 -40 888 -129 911 -8 l 786 -40 l 786 -7 l 786 24 l 856 24 b 868 113 888 24 911 144 l 786 113 l 786 911 b 708 972 786 944 754 972 b 672 949 689 972 672 963 b 678 904 672 939 678 931 l 678 543 b 493 238 678 425 535 238 b 481 257 488 238 481 239 l 481 914 b 425 972 481 947 454 972 b 35 581 261 972 35 875 b 151 304 35 440 103 338 b 251 388 192 275 251 329 b 240 404 251 397 247 404 b 218 399 233 404 226 399 b 144 581 200 399 144 469 b 372 864 144 756 247 849 l 372 249 b 467 128 372 157 428 128 b 678 300 546 128 621 204 l 678 113 l 554 113 b 533 85 540 113 533 100 b 574 24 533 56 544 24 l 678 24 l 678 -40 l 554 -40 b 533 -68 540 -40 533 -53 b 574 -129 533 -97 544 -129 l 676 -129 b 583 -385 672 -257 654 -385 b 533 -325 556 -385 533 -367 b 568 -237 533 -292 544 -262 b 574 -239 569 -237 572 -239 b 585 -226 582 -239 585 -233 b 522 -156 585 -203 553 -156 b 504 -161 515 -156 510 -157 b 425 -328 453 -200 425 -257 b 581 -492 425 -421 486 -492 b 785 -129 751 -492 781 -293 z "},"ƒ":{"ha":596,"x_min":0,"x_max":0,"o":"m -64 -242 b 58 -306 -43 -274 -3 -306 b 238 -99 157 -306 218 -225 l 319 465 l 424 465 b 460 538 443 465 460 510 b 449 560 460 550 456 560 b 436 554 444 560 440 558 l 333 554 l 360 732 b 436 872 372 821 396 872 b 488 801 471 872 488 840 b 474 769 488 785 474 776 b 492 760 474 763 481 760 b 582 822 532 760 582 788 b 449 972 582 906 521 972 b 258 765 347 972 276 892 l 228 554 l 125 554 b 104 526 111 554 104 542 b 144 465 104 497 115 465 l 214 465 l 133 -89 b 61 -206 122 -160 99 -206 b 8 -157 31 -206 19 -185 b -7 -144 4 -149 0 -144 b -69 -224 -35 -144 -69 -193 b -64 -242 -69 -231 -68 -235 z "},"€":{"ha":619,"x_min":0,"x_max":0,"o":"m 322 328 b 335 417 354 328 378 449 l 183 417 b 190 494 185 442 188 468 l 363 494 b 375 583 394 494 418 615 l 207 583 b 419 869 244 740 325 869 b 482 792 467 869 482 824 b 469 729 482 771 478 750 b 535 679 444 707 493 679 b 592 788 585 679 592 747 b 432 971 592 908 515 971 b 96 583 260 971 143 786 l 21 583 b 0 556 7 583 0 571 b 40 494 0 526 11 494 l 79 494 b 72 417 76 468 74 442 l 21 417 b 0 389 7 417 0 404 b 40 328 0 360 11 328 l 74 328 b 346 -29 89 108 196 -29 b 568 86 482 -29 565 82 b 497 158 601 119 533 218 b 356 75 496 157 442 75 b 185 328 253 75 197 192 z "},"¤":{"ha":664,"x_min":0,"x_max":0,"o":"m 65 285 b 56 263 58 278 56 271 b 110 200 56 232 88 200 b 122 204 115 200 119 201 l 203 285 b 331 247 239 261 283 247 b 457 282 378 247 421 260 l 538 201 b 546 197 540 199 543 197 b 604 267 568 197 604 243 b 600 278 604 271 603 275 l 528 350 b 567 482 553 388 567 432 b 529 611 567 529 553 574 l 590 672 b 597 693 594 676 597 685 b 551 760 597 728 569 760 b 531 749 546 760 539 760 l 461 679 b 331 717 424 703 379 717 b 200 678 282 717 236 703 l 126 751 b 108 758 121 757 115 758 b 40 694 79 758 40 717 b 67 674 40 685 58 682 l 132 607 b 97 482 110 571 97 528 b 133 353 97 433 110 390 z m 186 481 b 331 628 186 560 251 628 b 478 481 410 628 478 560 b 331 336 478 401 410 336 b 186 481 251 336 186 401 z "},"%":{"ha":786,"x_min":0,"x_max":0,"o":"m 193 482 b 350 726 279 482 350 550 b 193 972 350 903 279 972 b 35 726 107 972 35 903 b 193 482 35 550 107 482 z m 193 897 b 258 726 239 897 258 846 b 193 557 258 607 239 557 b 126 726 147 557 126 607 b 193 897 126 846 147 897 z m 101 38 b 96 18 97 32 96 22 b 150 -26 96 -11 129 -26 b 168 -17 157 -26 164 -24 l 688 908 b 690 924 692 915 690 919 b 626 974 690 953 649 974 b 611 964 619 974 611 972 b 611 950 611 961 613 953 z m 594 -28 b 751 217 681 -28 751 40 b 594 463 751 393 681 463 b 436 217 508 463 436 393 b 594 -28 436 40 508 -28 z m 594 388 b 660 217 640 388 660 336 b 594 47 660 97 640 47 b 528 217 549 47 528 97 b 594 388 528 336 549 388 z "},"‰":{"ha":1147,"x_min":0,"x_max":0,"o":"m 193 482 b 350 726 279 482 350 550 b 193 972 350 903 279 972 b 35 726 107 972 35 903 b 193 482 35 550 107 482 z m 193 897 b 258 726 239 897 258 846 b 193 557 258 607 239 557 b 126 726 147 557 126 607 b 193 897 126 846 147 897 z m 101 38 b 96 18 97 32 96 22 b 150 -26 96 -11 129 -26 b 168 -17 157 -26 164 -24 l 688 908 b 690 924 692 915 690 919 b 626 974 690 953 649 974 b 611 964 619 974 611 972 b 611 950 611 961 613 953 z m 594 -28 b 751 217 681 -28 751 40 b 594 463 751 393 681 463 b 436 217 508 463 436 393 b 594 -28 436 40 508 -28 z m 594 388 b 660 217 640 388 660 336 b 594 47 660 97 640 47 b 528 217 549 47 528 97 b 594 388 528 336 549 388 z m 956 -28 b 1113 217 1042 -28 1113 40 b 956 463 1113 393 1042 463 b 797 217 869 463 797 393 b 956 -28 797 40 869 -28 z m 956 388 b 1021 217 1001 388 1021 336 b 956 47 1021 97 1001 47 b 889 217 910 47 889 97 b 956 388 889 336 910 388 z "},"#":{"ha":646,"x_min":0,"x_max":0,"o":"m 65 392 b 28 346 43 392 28 368 b 51 315 28 329 35 315 l 147 315 l 108 108 b 107 96 107 101 107 100 b 154 58 107 76 131 58 b 186 75 169 58 186 61 l 232 315 l 356 315 l 317 108 b 315 96 315 101 315 100 b 363 58 315 76 339 58 b 394 75 378 58 394 61 l 440 315 l 528 315 b 576 364 554 315 576 328 b 551 393 576 382 567 393 b 540 392 547 393 544 392 l 454 392 l 479 524 l 569 524 b 618 572 596 524 618 536 b 593 601 618 590 608 601 b 582 600 589 601 586 600 l 494 600 l 533 801 b 475 846 542 835 504 846 b 451 817 456 846 451 832 l 410 600 l 286 600 l 325 801 b 267 846 333 835 296 846 b 243 817 247 846 243 832 l 201 600 l 107 600 b 69 554 85 600 69 576 b 93 524 69 538 76 524 l 188 524 l 163 392 z m 271 524 l 396 524 l 371 392 l 246 392 z "},"¹":{"ha":301,"x_min":0,"x_max":0,"o":"m 128 411 b 182 383 128 397 157 383 b 218 407 199 383 218 389 l 218 935 b 161 972 218 954 193 972 b 136 957 147 972 138 967 b 49 857 136 957 67 874 b 28 838 39 847 28 853 b 72 792 28 821 47 792 b 128 836 85 792 103 800 z "},"²":{"ha":399,"x_min":0,"x_max":0,"o":"m 192 468 b 357 799 256 540 357 665 b 197 972 357 883 303 972 b 35 801 119 972 35 919 b 119 663 35 740 69 663 b 165 704 144 663 164 681 b 153 713 167 717 161 717 b 125 801 143 714 125 753 b 196 897 125 875 160 897 b 264 801 219 897 264 883 b 75 451 264 631 86 463 b 63 425 69 444 63 433 b 103 389 63 404 82 389 l 307 389 b 350 443 336 389 350 415 b 336 479 350 457 342 479 b 310 468 329 479 326 468 z "},"³":{"ha":389,"x_min":0,"x_max":0,"o":"m 28 807 b 113 676 28 749 64 676 b 163 719 142 676 163 704 b 147 726 163 732 153 726 b 118 806 136 726 118 760 b 186 897 118 871 150 897 b 257 794 225 897 257 869 b 165 639 257 699 208 639 b 135 615 149 639 135 633 b 165 575 135 590 147 578 b 238 496 190 571 238 557 b 194 450 238 467 217 450 b 149 494 157 450 149 489 b 122 514 149 513 140 514 b 61 488 99 514 61 506 b 192 375 61 443 111 375 b 328 496 265 375 328 426 b 254 608 328 557 288 589 b 347 792 306 642 347 693 b 190 972 347 878 297 972 b 28 807 113 972 28 921 z "},"¼":{"ha":850,"x_min":0,"x_max":0,"o":"m 753 142 b 794 199 782 142 794 171 b 776 228 794 213 792 228 b 763 221 771 228 764 225 b 740 218 757 219 749 219 l 740 528 b 678 569 740 550 713 569 b 642 556 661 569 642 565 b 650 525 642 546 650 544 l 650 218 l 642 218 b 549 217 613 218 578 218 b 594 488 582 301 594 424 b 538 540 594 531 560 540 b 500 525 518 540 500 536 b 506 496 500 519 506 504 b 454 208 506 444 501 321 b 442 186 446 199 442 196 b 489 140 442 172 464 140 b 628 143 508 140 553 143 l 650 143 l 650 8 b 701 -19 650 -6 676 -19 b 740 4 718 -19 740 -14 l 740 142 z m 92 64 b 86 44 88 58 86 49 b 140 0 86 15 119 0 b 158 10 147 0 154 3 l 658 900 b 661 915 663 907 661 911 b 597 965 661 944 619 965 b 582 956 590 965 582 964 b 582 942 582 953 583 944 z m 128 411 b 182 383 128 397 157 383 b 218 407 199 383 218 389 l 218 935 b 161 972 218 954 193 972 b 136 957 147 972 138 967 b 49 857 136 957 67 874 b 28 838 39 847 28 853 b 72 792 28 821 47 792 b 128 836 85 792 103 800 z "},"½":{"ha":842,"x_min":0,"x_max":0,"o":"m 92 64 b 86 44 88 58 86 49 b 140 0 86 15 119 0 b 158 10 147 0 154 3 l 658 900 b 661 915 663 907 661 911 b 597 965 661 944 619 965 b 582 956 590 965 582 964 b 582 942 582 953 583 944 z m 128 411 b 182 383 128 397 157 383 b 218 407 199 383 218 389 l 218 935 b 161 972 218 954 193 972 b 136 957 147 972 138 967 b 49 857 136 957 67 874 b 28 838 39 847 28 853 b 72 792 28 821 47 792 b 128 836 85 792 103 800 z m 621 65 b 786 396 685 138 786 263 b 626 569 786 481 732 569 b 464 399 549 569 464 517 b 549 260 464 338 499 260 b 594 301 574 260 593 278 b 582 310 596 314 590 314 b 554 399 572 311 554 350 b 625 494 554 472 589 494 b 693 399 649 494 693 481 b 504 49 693 228 515 60 b 492 22 499 42 492 31 b 532 -14 492 1 511 -14 l 736 -14 b 779 40 765 -14 779 13 b 765 76 779 54 771 76 b 739 65 758 76 756 65 z "},"¾":{"ha":928,"x_min":0,"x_max":0,"o":"m 831 142 b 872 199 860 142 872 171 b 854 228 872 213 869 228 b 840 221 849 228 842 225 b 818 218 835 219 826 219 l 818 528 b 756 569 818 550 790 569 b 719 556 739 569 719 565 b 728 525 719 546 728 544 l 728 218 l 719 218 b 626 217 690 218 656 218 b 672 488 660 301 672 424 b 615 540 672 531 638 540 b 578 525 596 540 578 536 b 583 496 578 519 583 504 b 532 208 583 444 579 321 b 519 186 524 199 519 196 b 567 140 519 172 542 140 b 706 143 586 140 631 143 l 728 143 l 728 8 b 779 -19 728 -6 754 -19 b 818 4 796 -19 818 -14 l 818 142 z m 28 807 b 113 676 28 749 64 676 b 163 719 142 676 163 704 b 147 726 163 732 153 726 b 118 806 136 726 118 760 b 186 897 118 871 150 897 b 257 794 225 897 257 869 b 165 639 257 699 208 639 b 135 615 149 639 135 633 b 165 575 135 590 147 578 b 238 496 190 571 238 557 b 194 450 238 467 217 450 b 149 494 157 450 149 489 b 122 514 149 513 140 514 b 61 488 99 514 61 506 b 192 375 61 443 111 375 b 328 496 265 375 328 426 b 254 608 328 557 288 589 b 347 792 306 642 347 693 b 190 972 347 878 297 972 b 28 807 113 972 28 921 z m 169 64 b 164 44 165 58 164 49 b 218 0 164 15 197 0 b 236 10 225 0 232 3 l 736 900 b 739 915 740 907 739 911 b 675 965 739 944 697 965 b 660 956 668 965 660 964 b 660 942 660 953 661 944 z "},"°":{"ha":368,"x_min":0,"x_max":0,"o":"m 69 857 b 183 743 69 794 121 743 b 299 857 247 743 299 794 b 183 972 299 921 247 972 b 69 857 121 972 69 921 z m 136 857 b 183 906 136 885 156 906 b 232 857 211 906 232 885 b 183 810 232 829 211 810 b 136 857 156 810 136 829 z "},"ª":{"ha":422,"x_min":0,"x_max":0,"o":"m 158 532 b 246 569 196 532 225 547 b 328 532 264 546 293 532 b 408 576 361 532 408 544 b 379 621 408 597 392 621 b 368 614 372 621 371 619 b 346 606 364 607 354 606 b 317 651 325 606 317 629 l 317 810 b 254 858 317 836 292 858 b 222 838 238 858 222 849 b 226 804 222 824 226 825 l 226 658 b 174 606 215 629 199 606 b 119 689 140 606 119 636 b 286 904 119 838 210 904 b 317 901 297 904 307 901 b 335 928 331 901 335 910 b 282 975 335 957 313 975 b 28 692 151 975 28 867 b 158 532 28 601 72 532 z m 99 475 b 49 425 67 475 49 463 b 85 393 49 406 60 393 l 333 393 b 340 392 336 392 339 392 b 376 439 363 392 376 413 b 346 475 376 463 369 478 z "},"º":{"ha":442,"x_min":0,"x_max":0,"o":"m 376 667 b 354 663 371 663 363 663 b 339 664 349 663 344 663 b 353 774 349 697 353 736 b 258 951 353 876 311 951 b 169 826 199 951 169 894 b 244 640 169 751 196 683 b 188 604 232 618 214 604 b 118 733 150 604 118 647 b 163 893 118 831 144 869 b 179 926 172 907 179 917 b 140 975 179 949 161 975 b 28 726 115 975 28 882 b 186 531 28 621 76 531 b 314 604 247 531 288 560 b 363 599 329 601 344 599 b 428 628 390 599 428 600 b 392 671 428 647 411 671 b 376 667 386 671 381 669 z m 235 831 b 247 878 235 863 239 878 b 267 757 264 878 267 826 b 265 722 267 746 267 733 b 235 831 246 751 235 789 z m 92 475 b 42 425 60 475 42 463 b 78 393 42 406 53 393 l 319 393 b 326 392 322 392 325 392 b 363 439 349 392 363 413 b 332 475 363 463 356 478 z "},"+":{"ha":556,"x_min":0,"x_max":0,"o":"m 93 486 b 54 428 67 486 54 453 b 76 389 54 407 63 389 l 229 389 l 229 233 b 326 243 231 203 326 215 l 326 389 l 460 389 b 503 464 485 389 503 435 b 489 493 503 479 499 493 b 471 486 485 493 481 486 l 326 486 l 326 633 b 260 657 326 653 285 657 b 224 647 235 657 224 653 b 229 631 224 642 229 640 l 229 486 z "},"−":{"ha":556,"x_min":0,"x_max":0,"o":"m 107 486 b 68 428 81 486 68 453 b 90 389 68 407 76 389 l 446 389 b 489 464 471 389 489 435 b 475 493 489 479 485 493 b 457 486 471 493 467 486 z "}}}
